<svg xmlns="http://www.w3.org/2000/svg" viewBox="0 0 512 512" id="shaniwar-wada"> 
  <path fill="#cd854e" d="M256.466 511.843c-8.768.024-17.536.069-26.304.069q-38.204-.002-76.41-.032-43.803-.014-87.606-.014c-12.782.006-25.563.074-38.345.107-.37.001-.74-.065-1.111-.1a.896.896 0 0 1 .144-.98c1.071-.972.685-2.266.686-3.433q.016-19.186.025-38.371a9.188 9.188 0 0 1 .383-3.866c.605-1.047 1.686-1.014 2.688-1.174 4.969-.792 9.918-1.742 14.978-1.79a72.44 72.44 0 0 0-13.73 1.319c-1.613.26-3.215.452-4.062-1.462a9.024 9.024 0 0 1-.262-3.058c-.02-33.146-.133-66.292-.077-99.438a11.126 11.126 0 0 1 .417-4.147c2.134-2.328 4.91-.72 7.018-1.277-2.047-.593-4.817.94-6.959-1.178a3.52 3.52 0 0 1-.275-.796c-1.049-6.52-.117-7.397 6.348-7.682 16.65-.735 33.307-.253 49.959-.514.558-.009 1.117-.004 1.675.001 5.023.043 5.844 1.072 4.859 6.078-.709 1.275-1.99 1.127-3.159 1.232a14.798 14.798 0 0 0-2.195.224c-1.019.247-2.054.56-1.935 1.902.114 1.28 1.204 1.167 2.095 1.294 1.749.25 3.738-.545 5.155 1.185a8.163 8.163 0 0 1 .384 3.59q.011 63.115.002 126.23a11.275 11.275 0 0 1-.192 3.055c-.455 1.494-1.685 1.82-3.03 2.04-2.116.348-4.254.52-6.355 1.033a52.543 52.543 0 0 0 5.709-.593c1.192-.143 2.427-.471 3.385.65.962 3.27.31 6.615.46 9.922.097 2.124.002 4.255.028 6.382.011.898-.199 1.927 1.074 2.23a4.966 4.966 0 0 0 1.021.02c18.914.015 37.822-.129 56.73.058.726-.01 1.452-.016 2.177.001 11.403-.116 22.805-.137 34.207.002.71-.004 1.42-.029 2.13.005 4.188-.077 8.377-.1 12.565.005.868-.03 1.736-.044 2.603 0 3.985-.08 7.97-.098 11.954.002a38.956 38.956 0 0 1 2.078-.001 249.24 249.24 0 0 1 11.44-.002 30.266 30.266 0 0 1 2.62-.003c7.396-.13 14.79-.071 22.185-.042a6.72 6.72 0 0 1 2.505.483.619.619 0 0 1 .32.834Z"></path>
  <path fill="#cd854e" d="M256.466 511.843v-.32c.777-1.042 1.946-1.01 3.041-1.013 7.705-.017 15.41-.129 23.112.044 4.078-.065 8.157-.106 12.235.016.7-.011 1.4-.025 2.1.001 3.989-.078 7.978-.097 11.967.003.695-.017 1.39-.021 2.085-.002 4.365-.089 8.729-.1 13.094-.002.71-.024 1.42-.015 2.131-.006q16.825-.186 33.65-.003 1.09-.02 2.18-.001c19.353-.162 38.706-.08 58.058-.055a3.938 3.938 0 0 0 1.045-.132c1.38-.665.885-1.945.888-2.977.037-11.488.023-22.976.023-34.464q0-56.32.008-112.639a12.12 12.12 0 0 1 .293-4.162c.895-1.653 2.526-1.201 3.94-1.334 1.231-.115 2.625-.152 2.62-1.787-.006-1.538-1.468-1.374-2.498-1.597-1.383-.299-3.04.262-4.013-1.316a5.317 5.317 0 0 1-.339-2.2c-.002-2.884.698-3.72 3.562-3.822 3.82-.135 7.644-.012 11.467.012 7.18.045 14.365.147 21.541-.024 7.467-.178 14.897.62 22.356.555 3.743-.032 4.381.703 4.44 4.421a9.806 9.806 0 0 1-.405 3.862c-.885 1.47-2.386 1.174-3.732 1.228a54.55 54.55 0 0 1-4.251.003c2.391.708 5.447-.982 7.926 1.217a8.012 8.012 0 0 1 .399 3.589c.008 21.744.046 43.488-.034 65.232q-.02 5.45.041 10.897c.184 18.38-.855 36.747-.5 55.128a10.045 10.045 0 0 1-.283 3.045c-.623 1.859-2.44 1.205-3.97 1.825 1.256.787 2.896.14 3.726 1.396.922 3.556.238 7.175.454 10.758.082 1.362-.15 2.825 1.242 3.754a.706.706 0 0 1 .169.86 16.178 16.178 0 0 1-3.904.086q-60.596.007-121.191-.011-30.368-.01-60.735-.052c-13.621-.002-27.242.039-40.863.055-1.025.001-2.05-.044-3.075-.068Z"></path>
  <path fill="#ad6232" d="M166.122 343.679c.168-1.85.14-3.719.26-5.574a17.682 17.682 0 0 1 .413-2.466 1.326 1.326 0 0 1 1.028-1.18c.72-.114.916.536 1.104 1.029a6.644 6.644 0 0 1 .496 1.88 39.272 39.272 0 0 1-.874 9.261c-1.931-.482-2.57-1.37-2.427-2.95Zm-39.157-13.465c-.05.911-.476 1.37-1.418 1.278-.185-.017-.37-.025-.557-.04-5.677-.433-6.01-.8-5.153-6.394a19.353 19.353 0 0 1 1.493-5.937c.695-1.382 1.751-2.96 3.094-2.973 1.51-.017 2.014 1.925 2.614 3.27a9.486 9.486 0 0 1 .535 4.343c.11 2.22-.493 4.313-.608 6.453Zm379.965 24.25c-.498-1.124-1.583-1.508-2.547-2.07-4.845-2.825-9.933-5.174-14.907-7.743-.98-.507-2.379-1.155-1.634-2.43.586-.997 1.665.115 2.433.477 4.976 2.35 9.782 5.055 14.845 7.235a6.712 6.712 0 0 0 1.118.274.809.809 0 0 0 .681-.24c.003-.558.003-1.116.003-1.673a5.027 5.027 0 0 0-2.858-2.494c-4.573-2.281-9.15-4.551-13.7-6.871-.709-.362-1.659-.488-2.06-1.623 5.157 2.385 10.158 4.602 15.031 7.104 1.088.56 2.22 1.558 3.584.524q0-.837-.005-1.673c-.516-1.239-1.696-1.648-2.752-2.216-4.42-2.377-8.987-4.453-13.568-6.485a5.986 5.986 0 0 1-3.696-5.057c-.891-5.204-1.303-10.503-2.878-15.589a1.514 1.514 0 0 0-.356-.395 2.654 2.654 0 0 1-.235-.193c-.132-.129-.092-.171.028-.168a1.863 1.863 0 0 1 .353.053 3.14 3.14 0 0 1 2.55.815c5.506 3.75 10.993 7.527 16.345 11.49l.067.05c.35.23.715.434 1.084.63l.028.017.264.137c.754.202 1.365 1.183 2.256.64.005 0 .008-.007.014-.01a1.81 1.81 0 0 0 .227-.167c.406-2.186-.81-3.444-2.46-4.574-5.916-4.046-11.739-8.232-17.676-12.245-2.015-1.364-3.716-2.726-3.817-5.405a2.97 2.97 0 0 0-1.477-2.264l-.002-.003h-.003a1.256 1.256 0 0 0-.13-.053c-.983-.379-1.966-.244-1.882.972.235 3.5-2.029 3.43-4.35 3.262-9.765-.71-19.547-.53-29.326-.55-6.056-.01-12.114-.025-18.172.012-2.09.01-3.119-.762-3.023-2.943a4.368 4.368 0 0 0-.863-3.427c-.376-.002-.749-.002-1.124-.005-1.676.325-1.8 1.614-1.897 2.973-.244 3.444-.26 3.452-3.783 3.46-5.786.009-11.576.04-17.362-.016a21.185 21.185 0 0 0-7.137 1.149c-7.51 2.564-15.146 4.74-22.63 7.375-1.866.655-3.525 1.213-3.23-1.908.078-.838-.284-1.735-1.365-1.48l-.014.003a2.691 2.691 0 0 0-.368.123.563.563 0 0 0-.496.129 1.9 1.9 0 0 0-1.174 2.037c.247 3.004-1.572 4.461-3.889 5.823-9.477 5.568-18.965 11.116-28.296 16.858 1.07-3.84 4.1-5.832 7.151-7.872.788-.524 2.36-.781 1.981-2.247v-.003a3.243 3.243 0 0 0-.056-.179v-.003c-.028-.073-.056-.151-.092-.232a1.97 1.97 0 0 0-2.662-.611c-4.173 2.354-8.06 4.957-9.216 10.163.103-5.1.02-10.113.056-15.123.025-3.256.185-3.4 3.533-3.435 1.771-.02 3.542-.003 5.31-.026a2.511 2.511 0 0 0 2.721-1.863l.008.017c.858-.673.687-1.225-.23-1.626a8.11 8.11 0 0 0-3.306-.389c-6.893-.014-13.79.028-20.685-.03-1.73-.015-4.004.63-4.038-2.397-.025-2.233.448-2.544 4.158-2.558 3.635-.017 7.269.081 10.9-.056 1.16-.042 2.744.42 3.142-1.449v-.002c-.499 0-1-.003-1.502-.003-.869-1.541-2.262-1.94-3.929-1.95-10.544-.07-21.089-.368-31.627-.455-34.26-.285-68.524-.263-102.782.424-2.124.044-4.05.277-5.512 1.986a2.637 2.637 0 0 0-1.558.028c.426 1.853 2.006 1.385 3.17 1.424 4.096.134 8.198-.017 12.298.081 2.331.056 2.978.961 2.673 3.141-.264 1.878-1.645 1.782-2.934 1.79-6.991.046-13.98.01-20.971.026a10.15 10.15 0 0 0-3.326.303c-1.026.35-1.35.938-.485 1.818.037.328.07.653.107.981 2.51 1.508 5.268.614 7.904.723 1.993.084 2.9.56 3.192 2.794.667 5.139.263 10.261.474 15.762-3.004-6.058-3.853-6.93-8.838-9.752-1.194-.675-2.183-.916-3.12.3a2.07 2.07 0 0 0-.173.272c-.005.006-.008.008-.008.014-.533 1.006.524 1.398 1.093 1.866a32.493 32.493 0 0 0 3.696 2.514 8.927 8.927 0 0 1 3.858 5.301 8.535 8.535 0 0 1-2.808-1.415c-7.619-4.506-15.176-9.115-22.831-13.548-3.29-1.906-6.218-3.775-6.109-8.112.008-.25-.26-.482-.431-.704-.384-.554-.984-.552-1.564-.6-1.393-.08-1.169 1.018-1.06 1.716.393 2.488-.59 2.611-2.628 1.908-7.479-2.578-15.095-4.747-22.562-7.37a25.795 25.795 0 0 0-9.04-1.46c-5.492.084-10.987-.022-16.476.048-2.066.025-3.223-.614-3.072-2.85a5.86 5.86 0 0 0-.131-1.667c-.331-1.502-1.017-2.191-2.31-1.423a.113.113 0 0 0-.024.014 4.249 4.249 0 0 0-.384.26 2.765 2.765 0 0 0-.39 1.328c.079 4.153-.336 4.254-4.89 4.251-11.567-.005-23.134.034-34.701-.02-4.48-.019-8.91.833-13.405.606-1.867-.093-3.324-.236-3.304-2.657.008-.95-.317-2.04-1.679-1.675l-.218.067a.424.424 0 0 0-.435.135 3.762 3.762 0 0 0-1.204 2.432c.09 2.146-1.191 3.315-2.822 4.421-4.299 2.912-8.6 5.832-12.753 8.936-2.645 1.976-5.78 3.307-8.033 5.798v.003c-.107.115-.21.232-.309.353-.09.106-.176.213-.26.322-.115 2.634-.115 2.654 2.936 2.438l.068-.006a2.479 2.479 0 0 0 .689-.919c.017-.033.036-.067.056-.1v-.003a2.739 2.739 0 0 1 .83-.959q9.116-6.435 18.289-12.791a1.863 1.863 0 0 1 1.373-.325c.042.005.081.01.123.02a3.227 3.227 0 0 1 .348.075 2.843 2.843 0 0 0 .916-.23 2.781 2.781 0 0 0 .305-.148 4.769 4.769 0 0 0 .81-.564c1.15-1.196 2.643-1.224 4.15-1.224q25.32-.021 50.64 0a3.772 3.772 0 0 1 1.603.16l.028.01h.003c.034.018.067.034.1.054h.004a.802.802 0 0 1 .44.762.35.35 0 0 0 .008.053l.003.009a4.895 4.895 0 0 1 .05.787 5.174 5.174 0 0 0 .042.723c.258 4.57.13 9.144.098 13.717-.033 4.962-.059 4.948-5.147 4.97-7.375.031-14.773-.394-22.12.144-9.892.725-19.778.213-29.664.38-2.362.04-2.973-1.109-1.84-3.208.613-1.14 1.552-2.113 1.583-3.516a63.983 63.983 0 0 0-.412-11.719 1.483 1.483 0 0 0-.387-.499 1.373 1.373 0 0 0-.23-.154 4.082 4.082 0 0 0-1.345-.344l-.12-.02-.017-.003c-1.799.86-1.617 2.69-1.681 4.128-.177 4.018-1.07 7.938-1.337 11.934a5.983 5.983 0 0 1-3.847 5.57c-5.083 2.318-10.004 4.991-15.03 7.437-1.677.819-2.755 1.883-2.419 3.895a2.025 2.025 0 0 0 .367.272.814.814 0 0 0 .118.065c1.028.507 1.888-.387 2.726-.793 4.767-2.315 9.485-4.725 14.235-7.079a4.01 4.01 0 0 1 2.746-.686c-2.892 2.02-5.82 2.78-8.373 4.25-3.693 2.125-7.868 3.355-11.267 6.02v.003c-.067.047-.132.1-.196.156a4.085 4.085 0 0 0-.213.171 5.338 5.338 0 0 0-.157 1.872.986.986 0 0 0 .258.658c.056.017.115.034.17.048.06.017.116.03.174.045a.078.078 0 0 0 .026-.003 2.465 2.465 0 0 0 .933-.266 5.21 5.21 0 0 0 .552-.294c.255-.143.513-.275.77-.404a4.657 4.657 0 0 0 .5-.258c.249-.131.504-.24.759-.356a5.095 5.095 0 0 0 .515-.243c.177-.082.356-.163.527-.252.18-.085.361-.169.535-.267.182-.087.367-.17.547-.269.185-.087.372-.173.552-.277.187-.09.375-.177.557-.278a6.95 6.95 0 0 0 .56-.28c.188-.09.379-.18.561-.28.19-.087.378-.176.56-.28.188-.09.379-.18.56-.28a6.95 6.95 0 0 0 .561-.28c.188-.09.379-.18.56-.28.189-.088.38-.177.561-.281.188-.09.376-.18.56-.28.188-.087.376-.177.558-.28.188-.09.376-.177.56-.278.188-.09.376-.176.558-.28.185-.09.373-.18.552-.277.188-.087.373-.177.552-.278.182-.09.365-.176.544-.277a6.38 6.38 0 0 0 .535-.272c.177-.09.353-.177.524-.275a5.225 5.225 0 0 0 .507-.274c.244-.135.49-.255.743-.373a3.15 3.15 0 0 0 .485-.247c.235-.123.479-.23.723-.336.162-.064.325-.129.484-.21.239-.092.482-.163.732-.233.157-.042.31-.08.47-.14a1.194 1.194 0 0 1 .185.135l-.078.196a6.795 6.795 0 0 0-.073 1.32 2.39 2.39 0 0 1-.151.877 1.72 1.72 0 0 1-.362.406c-.157.098-.322.188-.484.28a7.581 7.581 0 0 0-.524.261c-.18.087-.362.17-.538.266a8.34 8.34 0 0 0-.55.275c-.185.087-.372.176-.554.274a8.605 8.605 0 0 0-.558.278c-.188.092-.376.18-.56.28-.188.09-.376.177-.558.28-.188.09-.378.18-.56.28-.191.087-.379.177-.561.28-.188.09-.378.18-.56.28-.191.088-.379.177-.56.281-.189.09-.38.18-.561.28-.19.087-.379.177-.56.28-.188.09-.379.18-.561.28a7.455 7.455 0 0 0-.56.28c-.188.09-.376.18-.56.281a7.403 7.403 0 0 0-.559.28c-.187.09-.375.177-.557.278-.19.09-.378.176-.558.28-.188.09-.373.18-.555.277a7.81 7.81 0 0 0-.552.278c-.182.09-.367.176-.546.277-.182.087-.364.174-.538.275-.18.09-.356.176-.53.277-.176.087-.35.174-.518.278-.171.09-.345.173-.516.269-.173.075-.35.154-.518.246-.174.087-.345.168-.513.264-.176.08-.35.162-.515.257-.258.138-.522.267-.785.39a5.55 5.55 0 0 0-.544.244c-.294.131-.594.252-.885.384a3.91 3.91 0 0 0-.617.322 1.366 1.366 0 0 0-.737 1.308c.073.533-.12 1.183.255 1.58a.408.408 0 0 0 .062.06 1.21 1.21 0 0 0 .504.238 7.426 7.426 0 0 0 3.668-1.22c4.184-2.064 8.348-4.169 12.52-6.25 3.136-1.564 3.1-1.564 3.142 2.062.313 26.3-.354 52.598.437 78.905.577 19.2.115 38.434.12 57.653 0 1.853-.067 3.59-2.373 4.13a1.439 1.439 0 0 0-1.22 1.363c.026.608.696.89 1.234.98 2.057.345 2.356 1.78 2.354 3.509-.006 3.449-.031 6.901.016 10.353.017 1.166-.117 2.393.78 3.355.019.025.044.047.067.072.907.003 1.698-.137 1.68-1.322-.008-.743.012-1.488.012-2.23l.006-42.977a2.043 2.043 0 0 0 .227-.347 1.536 1.536 0 0 0 .109-1.222 2.661 2.661 0 0 0-.34-.68l-.005-107.594a.612.612 0 0 0 .04-.05v-.003a1.22 1.22 0 0 0 .086-1.494l-.002-.003h-.003a1.374 1.374 0 0 0-.11-.162c-.005-2.049.009-4.1-.028-6.148-.02-1.166.457-1.684 1.654-1.69 4.828-.028 9.659-.325 14.476-.426 14.066-.288 28.141-.117 42.21-.126.561-.003 1.122.028 1.68 0 1.198-.064 1.678.521 1.647 1.682-.037 1.305-.014 2.608-.014 3.914a5.969 5.969 0 0 0-.219.35 4.132 4.132 0 0 0 .093 4.515l.131.204-.008 133.93a2.608 2.608 0 0 0-.33.67 1.54 1.54 0 0 0 .114 1.261 2.155 2.155 0 0 0 .216.322q.004 5.675.014 11.355c.003 2.216.036 4.433-.008 6.646-.026 1.214.501 1.696 1.672 1.55a3.392 3.392 0 0 0 .474-.72c.017-.034.034-.068.048-.101l.008-.017v-.003c.555-1.26.258-2.673.258-4.001l.008-15.591v-.003a.024.024 0 0 1 0-.02v-.002c-.003-.334-.003-.67 0-1.004v-.002a.477.477 0 0 1 0-.09q.017-65.839.065-131.677a52.79 52.79 0 0 0-.037-1.996v-.002a30.468 30.468 0 0 0-.025-.718v-.003c-.062-1.768-.143-3.541-.04-5.312.023-.41.057-.819.104-1.225a17.784 17.784 0 0 1 .365-2.152c1.21-1.034 2.502-.342 3.724-.092q23.672 4.82 47.364 9.569c5.837 1.163 5.128.431 5.181 6.341a4.08 4.08 0 0 0-.028.32 8.23 8.23 0 0 0-.003.644 9.726 9.726 0 0 1-.014 1.07 10.496 10.496 0 0 0-.061 1.113q-.004 57.348.025 114.694c.025.364.036.731.04 1.095.002 1.034-.06 2.065-.023 3.097q.012.353.042.706c-.177 7.652-.05 15.308-.056 22.96a5.313 5.313 0 0 0 .384 2.351 2.76 2.76 0 0 0 .554.777c.533.008 1.065.014 1.598.02a3.127 3.127 0 0 0 .53-.797 7.555 7.555 0 0 0 .355-3.194c.031-6.162.05-12.321-.008-18.48-.023-2.099.86-3.03 2.875-3.295 1.86-.244 3.735-.096 5.582-.401a2.577 2.577 0 0 0 2.482-2.564c.05-1.698-.952-2.55-2.536-2.791a35.444 35.444 0 0 0-4.755-.143c-3.44-.062-3.923-.507-3.472-3.996a69.107 69.107 0 0 0 .404-8.938q0-48.442.003-96.881c0-1.396-.384-2.979.358-4.13 1.121-1.738 1.855-3.192.065-4.887a.99.99 0 0 1-.02-1.3c.348-.379.866-.194 1.306-.009.429.182.843.4 1.26.605 8.382 4.105 16.76 8.213 25.26 12.066a4.807 4.807 0 0 1 3.124 5.002c-.031 17.073.154 34.141.431 51.212.381 23.512.028 47.039.16 70.557.02 3.856-.157 7.812 1.11 11.573.086.263.182.527.285.787l1.612-.022a3.56 3.56 0 0 0 .526-.765c.634-1.255.393-2.69.412-4.05.365-25.115-.874-50.213-.577-75.329.163-13.632.028-27.267.03-40.9 0-2.056-.184-4.099-.313-6.147-.527-8.396-.177-16.8-.205-25.2a2.12 2.12 0 0 1 2.385-2.415c1.681-.028 3.363-.026 5.041-.026 5.274 0 5.282.003 5.282 5.21.003 37.26.2 74.517-.12 111.774-.096 11.096-.37 22.204-.423 33.308a7.939 7.939 0 0 0 .411 3.78 3.355 3.355 0 0 0 .53.754c.7 0 1.401.003 2.104.003a3.646 3.646 0 0 0 .55-.757c.717-1.33.431-2.866.434-4.312q.034-55.873.017-111.746c0-1.025.053-2.057.005-3.08-.098-2.129.85-3.003 2.993-3.012 2.612-.01 5.223-.033 7.835.026 16.042.358 32.065-.757 48.104-.555 6.055.075 12.083.728 18.155.577 7.552-.19 15.114-.076 22.669-.008 3.634.03 3.774.218 3.766 3.841q-.084 38.497.532 76.991c.222 12.506.028 25.018.054 37.526a8.183 8.183 0 0 0 .409 3.752 3.32 3.32 0 0 0 .54.782l1.598-.011a3.251 3.251 0 0 0 .527-.77 7.555 7.555 0 0 0 .4-3.49c-.286-47.235.653-94.473-.532-141.705-.053-2.147-.03-4.296.02-6.443a2.14 2.14 0 0 1 2.395-2.412c1.962-.028 3.923-.025 5.885-.02 4.301.011 4.475.12 4.424 4.369-.294 24.364.216 48.726-.403 73.096-.622 24.547-.146 49.118-.132 73.679a6.669 6.669 0 0 0 .39 2.923 2.934 2.934 0 0 0 .532.781l1.611-.016a3.057 3.057 0 0 0 .533-.768 7.015 7.015 0 0 0 .372-3.211c-.294-31.27.956-62.527.592-93.796-.118-9.894-.012-19.791-.026-29.688-.005-2.337.233-4.652.401-6.978a5.16 5.16 0 0 1 3.265-4.71c6.952-3.419 14.027-6.585 20.937-10.088 1.662-.843 3.407-1.527 5.117-2.275.563-.247 1.27-.636 1.723.129.328.555-.053 1.065-.44 1.488-.787.86-1.606 1.78-.499 2.883 1.516 1.502 1.382 3.374 1.382 5.234q.008 25.627.005 51.254c.02 20.63-.07 41.261.054 61.89a21.778 21.778 0 0 0-.022 1.978c.002.228.01.458.016.688-.177 7.616-.048 15.238-.056 22.856a5.317 5.317 0 0 0 .373 2.343 2.823 2.823 0 0 0 .54.782c.538.003 1.076.008 1.612.014a3.055 3.055 0 0 0 .532-.799 7.427 7.427 0 0 0 .362-3.166c.03-6.033-.014-12.066.03-18.1.009-1.487-.059-3.034 2.018-3.39.93-.162 2.309-.157 2.267-1.544-.042-1.373-1.3-1.63-2.424-1.832-2.357-.522-1.95-2.413-1.95-4.041q-.009-32.961-.009-65.926v-1.502q-.004-23.302.003-46.607c0-.238.008-.477.017-.712.014-.311.025-.614.011-.925v-.003a6.282 6.282 0 0 0-.028-.392c.081-5.34-.664-5.11 5.091-6.254q24.543-4.884 49.082-9.8a6.23 6.23 0 0 1 2.763-.27c1.18.747.908 1.966.858 3.037-.017.31-.028.622-.037.935v.003c-.008.213-.014.423-.016.636-.031 1.561-.003 3.12.028 4.677.002.213.005.429.01.642.02 1.059.04 2.121.04 3.18q-.008 73.644.017 147.288c0 1.32-.292 2.721.246 3.976l.009.009v.006a3.121 3.121 0 0 0 .176.347 3.267 3.267 0 0 0 .356.507c.959.076 1.673-.14 1.65-1.314-.019-.84.006-1.679.006-2.52l.026-151.891c.075-.115.145-.227.21-.342l.002-.003a4.186 4.186 0 0 0-.008-4.422 4.533 4.533 0 0 0-.202-.33c-.002-1.118-.03-2.236-.002-3.354.056-2.16.07-2.208 2.208-2.222 4.842-.028 9.687-.012 14.529 0 14.139.036 28.281-.127 42.413.549a8.345 8.345 0 0 0 .837.005c1.194-.07 1.67.516 1.65 1.679-.036 2.048-.016 4.097-.022 6.148a1.873 1.873 0 0 0-.215.358 1.242 1.242 0 0 0 .15 1.278l.004.003a.5.5 0 0 0 .064.092l.009 19.879q.004 9.94-.006 19.88c-.003 6.72-.098 13.443.02 20.16.114 6.581-.331 13.155-.068 19.746.533 13.422-.639 26.83-.501 40.255.067 6.347.003 12.694-.003 19.04a2.371 2.371 0 0 0-.216.32v.003a1.508 1.508 0 0 0-.017 1.563v.003a2.274 2.274 0 0 0 .236.353c0 4.321-.017 8.642.011 12.963.014 1.95.053 1.95 2.18 2.102h.003v-.003l.067-.062c.88-.838.835-1.967.84-3.043.02-4.094.104-8.188-.044-12.285q-.038-1.055-.003-2.11c.252-21.741.081-43.483.149-65.225.056-17.07-.054-34.15-.062-51.225-.006-8.762-.454-17.536.496-26.287.317-2.925.426-3.051 3.166-1.782 4.24 1.964 8.185 4.483 12.41 6.47 1.158.544 2.276 1.365 3.691.9a5.29 5.29 0 0 0 .028-2.2Zm-61.65-38.585c.334-1.995.912-4.42 2.666-4.87 1.603-.415 2.625 1.995 3.58 3.415 1.988 2.951 1.595 6.406 1.8 9.718.039.65-.513.7-.964.715-1.02.03-2.043.008-3.066.008-.462.036-.924.095-1.39.11-2.32.07-2.48-.057-2.591-2.439a30.923 30.923 0 0 1-.034-6.657Zm-60.886 7.683a11.118 11.118 0 0 1 2.037-6.638c.832-1.143 1.485-1.062 2.449-.165a7.819 7.819 0 0 1 2.443 3.66 46.305 46.305 0 0 1 1.362 8.523 1.495 1.495 0 0 1-1.494 1.87c-1.378.181-2.754.422-4.127.65-1.09.179-1.765-.104-1.891-1.354-.227-2.31-.544-4.612-.78-6.546Zm-41.606 13.565c.075-1.037.154-2.592 1.507-2.558 1.118.028 1.227 1.449 1.306 2.482.162 2.136.325 4.27.443 6.409.117 2.127.092 2.127-2.407 3.012a29.235 29.235 0 0 1-.85-9.345Z"></path>
  <path fill="#d58c55" d="M5.439 356.084a5.15 5.15 0 0 0 2.576-.974c5.092-2.535 10.169-5.1 15.264-7.627a5.554 5.554 0 0 1 2.678-1.005 8.244 8.244 0 0 1 .18 2.997c.018 24.16-.401 48.33.148 72.478.496 21.815.106 43.622.377 65.43.007.56.004 1.12 0 1.679-.02 2.901-.021 2.896-3.031 3.33a2.672 2.672 0 0 0-.754.314c-.068.034-.099.142-.187.28.241.687.87.418 1.34.452 2.47.178 2.612.288 2.626 2.853.03 5.037.022 10.074.029 15.112l.005.47-18.837.06c-1.142.006-2.29.068-2.52-1.47a8.106 8.106 0 0 1-.2-3.048q-.016-74.164.005-148.328c0-1-.3-2.054.3-3.003ZM486.253 494l-.015-47.63q.008-44.498.032-88.997c.002-3.506.893-6.937.42-10.886 7.35 3.102 13.574 7.056 20.212 10.175.04 1.117.116 2.233.117 3.35q.02 60.18.032 120.361c.004 8.957.053 17.913.079 26.87a21.082 21.082 0 0 1-.03 2.238c-.193 1.851-.79 2.437-2.677 2.437-6.063 0-12.126-.052-18.189-.084a3.888 3.888 0 0 0-.043-.517l.058-15.62a1.012 1.012 0 0 0 .004-1.697Z"></path>
  <path fill="#c37541" d="M327.872 306.19a5.468 5.468 0 0 0-3.027-1.083c-16.396.45-32.774-.682-49.171-.552-19.303.152-38.616-.285-57.91.17-10.145.239-20.287.307-30.43.352-1.36.006-2.077 1.176-3.312 1.12 1.272-1.134.66-2.627.677-3.955.047-3.791-.004-3.788 3.865-3.795 19.395-.034 38.79-.102 58.184-.099q38.739.007 77.478.101c3.145.005 3.226.129 3.28 3.334.025 1.473-.352 2.99.366 4.407Z"></path>
  <path fill="#d58c55" d="M29.605 312.034a.472.472 0 0 0-.112-.162c-.291-1.455-1.09-.592-1.572-.258q-9.255 6.384-18.463 12.842a3.173 3.173 0 0 0-1.264 1.446c.42.415.67.82-.047 1.188h-.003c-.406-.196-.58-1.034-.975-.804-2.292 1.34-1.606-.463-1.654-1.502.101-.26.202-.519.295-.78v-.002c.53-1.496.782-2.981-.48-4.413-.565.535-.322 1.216-.322 1.846.003 5.218.14 10.43.042 15.65-.148 8.017-.07 16.037-.075 24.056q-.034 73.035-.045 146.067c0 1.087-.33 2.244.4 3.25l.003.003c.02-1.309.06-2.614.06-3.923l.005-146.812c0-1.16.022-2.317.039-3.474 0-.056.003-.112.003-.169.011-.672.025-1.342.04-2.014.15-.55.767-.395 1.072-.712a3.075 3.075 0 0 0 .533-.04 6.572 6.572 0 0 1 .588-.526 2.82 2.82 0 0 0 .533-.036c.176-.197.392-.348.585-.524a3.104 3.104 0 0 0 .535-.037 4.183 4.183 0 0 1 .438-.395l.145-.129a3.176 3.176 0 0 0 .541-.042c.185-.17.373-.345.558-.518l.005-.003c.292-.348.799-.258 1.116-.552h.002l.003-.006-.011.006.003-.006h.003c.29-.35.807-.255 1.12-.557h-.005l.003-.003c.291-.35.807-.255 1.123-.558h-.005l.002-.002c.289-.35.805-.255 1.118-.56h.003v-.004c.289-.344.804-.252 1.118-.557h.003v-.003c.289-.345.804-.25 1.115-.56h.003v-.003h.003c.294-.342.807-.247 1.115-.56a1.058 1.058 0 0 1 .555-.292 1.162 1.162 0 0 0 .566-.272c.297-.342.816-.241 1.12-.56.295-.342.814-.239 1.119-.56l.003-.004c.297-.339.812-.235 1.115-.56l.006-.003c.294-.333.812-.23 1.112-.558l.008-.005c.298-.33.813-.227 1.113-.558l.006-.003.546-.546q0-1.404.003-2.808a.422.422 0 0 0-.6-.025 2.589 2.589 0 0 0-.51.034c-.291.344-.812.221-1.11.557l-.008.006c-.297.328-.813.224-1.112.552l-.009.006c-.297.33-.812.227-1.112.557l-.009.006c-.297.328-.812.224-1.11.555l-.01.005c-.298.328-.813.227-1.113.552l-.008.006c-.297.33-.813.227-1.113.557l-.008.003c-.3.33-.813.23-1.115.555l-.006.003c-.297.333-.813.23-1.112.56l-.009.003c-.297.33-.812.23-1.115.555l-.006.003c-.297.333-.812.232-1.112.557h-.003l-.006.006c-.297.33-.812.23-1.115.555l-.005.003c-.297.333-.813.232-1.116.557l-.005.003c-.297.333-.813.233-1.116.558l-.005.002c-.297.334-.813.233-1.115.558l-.006.003c-.297.333-.813.232-1.115.557l-.006.003c-.297.334-.812.233-1.115.558l-.006.003c-.297.336-.812.232-1.115.557l-.006.003c-.215.168-.383.137-.498-.118.01-.703.022-1.403.036-2.107.067-.165.137-.33.2-.496v-.003a1.711 1.711 0 0 0-.068-1.712 4.492 4.492 0 0 0-.118-.148c-.39-1.684.465-2.51 1.908-3.211 5.7-2.76 11.34-5.641 17.026-8.432a3.466 3.466 0 0 0 2.362-3.04c.482-4.599 1.48-9.132 1.606-13.787a10.068 10.068 0 0 1 1.06-4.52c.038 0 .08-.047.122-.14a.455.455 0 0 0 .017-.036.242.242 0 0 0-.003-.202ZM18.91 331.066a6.813 6.813 0 0 1-2.805.844c.14-3.184-.376-6.238.428-9.27a5.74 5.74 0 0 1 1.752-3.105c.779-.65 1.516-.431 1.555.57.118 3.163.104 6.33.14 9.496a1.474 1.474 0 0 1-1.07 1.465Z"></path>
  <path fill="#c37541" d="M90.028 300.107c-.005 1.675-.035 3.35-.006 5.026.02 1.15-.434 1.749-1.639 1.694-.65-.03-1.303.002-1.954.002-11.914.002-23.828.066-35.74-.025-5.113-.04-10.173.961-15.29.583-.649-.047-1.304.01-1.954-.024-1.014-.052-1.515-.447-1.27-1.606a9.924 9.924 0 0 0 .057-2.496c-.033-.695-.623-.842-1.174-.98a25.565 25.565 0 0 1 8.227-1.014c5.872.075 11.689-.775 17.542-.972 9.669-.327 19.33-.95 29.01-.897a10.948 10.948 0 0 1 1.38.179c.796.928 1.988-.252 2.811.53ZM481.215 302.324c-.786.12-1.874-.075-1.342 1.365a3.941 3.941 0 0 1 .187 1.094c.154 2.307-.069 2.527-2.388 2.602-4.373.14-8.723-.434-13.077-.492-12.489-.168-24.982-.062-37.473-.064-.653 0-1.306-.028-1.957 0-1.157.049-1.72-.437-1.7-1.64.033-1.864.002-3.729-.002-5.593a190.417 190.417 0 0 1 19.772.227c1.763.09 3.526.258 5.29.256 8.833-.012 17.602 1.279 26.44 1.276a14.825 14.825 0 0 1 6.25.97ZM422.34 299.59c-1.39.843-1.098 2.221-1.104 3.498-.017 4.085.309 3.734-3.78 3.739-6.42.008-12.84.032-19.258-.019a15.014 15.014 0 0 0-4.905.81c-8.368 2.762-16.753 5.473-25.132 8.204-.353.115-.693.281-1.053.363-1.565.352-2.081-.133-1.74-1.738a8.524 8.524 0 0 0 .368-1.9 1.196 1.196 0 0 0-1.18-1.278c4.934-1.638 9.863-3.291 14.804-4.91 3.45-1.13 6.966-2.074 10.36-3.349a50.11 50.11 0 0 1 14.765-2.728c5.945-.363 11.884-.984 17.855-.692Z"></path>
  <path fill="#c37541" d="M90.028 300.107a4.692 4.692 0 0 0-1.815.3c-.727.266-.906-.26-.995-.83 7.097-.289 14.155.44 21.232.742 5.965.255 11.56 1.872 17.129 3.756 7.229 2.444 14.604 4.441 21.753 7.13a.931.931 0 0 0-.448 1.183 10.38 10.38 0 0 1 .25 3.981 3.215 3.215 0 0 1-2.138-.272q-12.215-3.983-24.426-7.979a23.802 23.802 0 0 0-7.934-1.321c-5.788.107-11.579.036-17.368.03-3.697-.002-3.573.32-3.561-3.422.002-.653-.02-1.307-.008-1.96.023-1.181-.74-1.36-1.671-1.338Z"></path>
  <path fill="#d58c55" d="M506.894 327.538a1.036 1.036 0 0 0-.48-.543l-.01-.006c-.782-.294-1.275-1.171-2.23-1.11l-.267.017a3.3 3.3 0 0 1-.527.014.743.743 0 0 1-.412-.658 3.142 3.142 0 0 0-1.283-1.435c-5.417-3.777-10.861-7.518-16.233-11.363-1.135-.812-1.412.079-1.975.58a.292.292 0 0 0-.082.49v.004c.19.72.443 1.426.56 2.157.805 5.036 1.576 10.08 2.369 15.118a4.741 4.741 0 0 0 2.961 3.942c5.933 2.721 11.761 5.66 17.629 8.516.16-5.243.165-10.483-.02-15.723Zm-14.89-.244c.072-2.323.207-4.648.327-6.971.023-.457.068-1.017.642-1.062a1.493 1.493 0 0 1 .961.445 5.783 5.783 0 0 1 1.875 4.226c.059 2.598.014 5.198.014 8.034-3.906-1.27-3.926-1.27-3.82-4.671Z"></path>
  <path fill="#cb834c" d="M339.435 314.703c0-.402.425-.992-.32-1.095a16.497 16.497 0 0 0-2.226-.044l-23.98-.015c-2.596-.005-2.63-.033-2.627-2.636.008-4.571-.425-4.062 3.972-4.081 4.182-.018 8.364.013 12.547-.013.889-.006 1.892.302 2.574-.623 3.607-.028 7.215-.104 10.821-.067 2.222.024 2.661.562 2.732 2.873.02.647.006 1.295.003 1.943-.015 3.457-.015 3.457-3.496 3.758ZM182.464 306.226c.702.898 1.703.588 2.594.593 4.747.025 9.494-.012 14.241.02 2.176.013 2.24.061 2.241 2.181.003 5.324.476 4.496-4.367 4.524-7.632.043-15.265.017-22.897.017-.844 0-1.82-.165-1.387 1.248-.456-.072-.91-.15-1.367-.214-2.089-.29-2.31-.506-2.385-2.582-.04-1.107-.05-2.22.004-3.325.093-1.866.66-2.527 2.524-2.55 3.598-.045 7.199.05 10.799.088Z"></path>
  <path fill="#c37541" d="M364.06 311.397a4.969 4.969 0 0 0-.558 2.964 4.633 4.633 0 0 1-2.555 4.488c-10.168 5.956-20.236 12.08-30.345 18.135a.883.883 0 0 1-1.13.082c1.219-3.21 2.71-6.18 5.918-8.005 1.6-.91 3.047-2.094 4.564-3.154q-.292-.18-.188-.35c.067-.11.134-.166.202-.166 5.688-3.36 11.356-6.756 17.074-10.064 2.32-1.341 4.474-2.987 7.017-3.93ZM172.445 325.922a9.61 9.61 0 0 0 3.968 2.96c3.257 1.686 4.802 4.482 5.924 7.696-.726.707-1.288.083-1.772-.205q-14.507-8.606-28.981-17.266a3.958 3.958 0 0 1-2.317-3.168 27.8 27.8 0 0 1-.372-4.136c5.925 3.428 11.868 6.826 17.765 10.301a36.65 36.65 0 0 1 5.203 3.152c.173.24.514.334.582.666Z"></path>
  <path fill="#c37543" d="m172.445 325.922-.582-.666c1.167.119 1.056-.705 1.062-1.441l.072-8.026c3.257.001 6.514.022 9.77-.006 1.171-.01 1.841.227 2 1.643.684 6.111.497 12.237.512 18.36a8.038 8.038 0 0 1-.205 1.117 7.467 7.467 0 0 1-2.171-3.59c-1.392-4.272-5.38-5.65-8.53-7.968-.9-.662-1.163.796-1.928.577Z"></path>
  <path fill="#c37542" d="M339.968 325.391q0 .258-.014.516c-1.168-.622-2.32-1.07-3.378.208a1.409 1.409 0 0 1-.47.296 15.095 15.095 0 0 0-7.771 8.682 13.85 13.85 0 0 1-.896 1.663 2.47 2.47 0 0 1-.352-1.892q-.022-8.236 0-16.472c.01-2.566.039-2.578 2.681-2.598 2.327-.017 4.657-.078 6.979.028a3.236 3.236 0 0 0 2.677-1.138c-.044 2.843-.114 5.685-.116 8.527 0 .762-.349 1.697.66 2.18ZM506.893 327.538l-.48-.543c.294-1.718-.602-2.823-1.907-3.723q-7.444-5.134-14.886-10.271-2.975-2.055-5.946-4.117a2.574 2.574 0 0 1-1.35-2.287 10.314 10.314 0 0 0-1.114-4.276 3.755 3.755 0 0 1 2.225 1.045c7.302 4.969 14.578 9.977 21.908 14.904 1.202.809 1.872 1.608 1.693 3.146-.235 2.026.185 4.085-.143 6.122Z"></path>
  <path fill="#c37541" d="m5.514 324.784-.182-5.194a2.877 2.877 0 0 1 1.197-1.126q11.18-7.616 22.365-15.226a3.163 3.163 0 0 1 1.73-.823 8.162 8.162 0 0 0-.52 2.421c.237 2.42-1.106 3.64-2.93 4.882-7.271 4.947-14.448 10.032-21.66 15.066Z"></path>
  <path fill="#d58c55" d="M506.93 354.464q-8.931-4.616-17.864-9.23c-2.63-1.356-2.674-1.446-1.851-4.558a5.548 5.548 0 0 1 2.544.981c4.511 2.227 9.003 4.492 13.507 6.733a7.78 7.78 0 0 0 2.564 1.064q.303.248.598.505.246.002.492.008l.01 4.497Z"></path>
  <path fill="#c27441" d="M506.923 348.294a41.199 41.199 0 0 0-6.593-3.586c-3.642-1.857-7.312-3.66-10.97-5.488-.498-.25-.988-.516-1.49-.76-.864-.423-1.416-1.1-.84-1.984.495-.762 1.183-.06 1.706.19 5.03 2.391 10.043 4.817 15.06 7.234.997.48 1.928 1.158 3.124 1.033a12.097 12.097 0 0 1 .003 3.36Z"></path>
  <path fill="#c77e47" d="m149.98 364 .007 116.564c-.543 1.063-1.57 1.168-2.584 1.333-1.045.17-1.756.727-1.549 1.875.193 1.067 1.085.773 1.796.72a2.58 2.58 0 0 1 2.325.567l.069 26.275-57.832-.002c-.5-6.575-.09-13.16-.219-19.733.48-1.217 1.607-1.139 2.58-1.152a53.357 53.357 0 0 0 9.548-.688c-3.243.078-6.331-.094-9.423.167-.962.08-2.066.47-2.7-.745q-.03-65.414-.007-130.816c0-3.277.192-3.478 3.397-3.664a21.962 21.962 0 0 0 2.233-.154c1.283-.206 1.645-1.102 1.659-2.22.014-1.18-.918-1.248-1.752-1.366a19.109 19.109 0 0 0-2.517-.106c-2.112-.019-3.43-.745-3.031-3.175.149-.905-.214-1.868.28-2.743l20.679 4.177q14.699 2.958 29.4 5.9c2.087.416 4.177.834 6.283 1.126 1.104.152 1.383.726 1.37 1.688-.022 1.49-.01 2.98-.013 4.472-1.097 1.064-2.531.611-3.992.833 1.454.29 2.899-.21 3.993.866Z"></path>
  <path fill="#c17942" d="m151.64 511.352.036-23.52c.006-2.417.06-2.264 2.484-2.888a27.22 27.22 0 0 1 6.103-.462c2.06-.064 2.64-.524 2.593-2.04-.042-1.412-.548-1.831-2.482-1.867-2.239-.042-4.481-.06-6.72.004-1.41.04-1.92-.482-2.021-1.932-.178-2.546.61-4.973.607-7.496q-.047-51.522-.018-103.044c0-.653.012-1.307-.002-1.96-.023-1.07-.03-2.065 1.432-2.246.668-.083.996-1.02.474-1.175-2.82-.836-1.774-2.973-1.789-4.764 0-.068.096-.138.153-.215.603-.163 1.067.202 1.56.441q10.066 4.88 20.131 9.763c2.853 1.375 5.694 2.786 8.618 3.995 1.905.789 2.56 1.925 2.543 4.015-.1 12.32-.389 24.652.024 36.959.985 29.379.106 58.76.592 88.136.057 3.409.348 6.859.482 10.293q-17.4 0-34.8.003Z"></path>
  <path fill="#cb834c" d="M203.134 511.325c.03-2.893.084-5.786.085-8.68q.018-55.319.022-110.638v-1.4c.016-3.065.016-3.075 3.062-3.084 3.548-.01 7.097-.074 10.643.009 15.859.369 31.711-1.11 47.55-.451 13.899.577 27.786.227 41.676.444 2.39.038 2.41.06 2.412 2.887.01 18.02-.443 36.054.132 54.055.713 22.3.034 44.591.483 66.882q-6.229-.01-12.459-.018a4.316 4.316 0 0 1-.8-2.9c-.372-6.52-.425-13.05-.62-19.574-.412-13.703-.738-27.41-1.18-41.11-.402-12.492-.94-24.977-.98-37.47a3.34 3.34 0 0 1 .397-2.111c2.048-4.193 1.563-5.324-2.858-6.76a8.922 8.922 0 0 0-2.23-.15q-32.83-.01-65.659-.006a7.676 7.676 0 0 0-1.385.09c-4.15 1.29-4.866 2.846-3.07 6.733a7.713 7.713 0 0 1 .75 2.092c-.342 9.307-.239 18.623-.85 27.915-.136 2.051-.143 4.1-.124 6.149.088 9.413-.537 18.808-.726 28.215-.242 12.006-.9 24.007-1.019 36.022a3.99 3.99 0 0 1-.791 2.889Z"></path>
  <path fill="#c37542" d="m295.16 511.345-12.385-.002a3.33 3.33 0 0 1-.618-2.639c.858-13.428.483-26.877.234-40.304-.108-5.864-.358-11.743-.368-17.617a84.643 84.643 0 0 0-.771-9.757c-1.088-9.263-6.993-14.48-15.038-17.884-3.092-1.309-6.297-2.376-9.026-4.424-.63-.472-1.35-.785-2.051-.213-3.255 2.649-7.263 3.814-11 5.453-9.451 4.145-13.549 11.63-13.714 21.518-.227 13.619-.672 27.233-.723 40.859-.027 7.074.105 14.145.104 21.217 0 1.285.218 2.64-.726 3.754l-11.883.021c-1.487-3.125-.71-6.402-.533-9.61.096-1.762.366-3.522.317-5.296-.279-10.262.382-20.515.757-30.75.304-8.278-.234-16.606.946-24.854 2.165-15.135 9.952-28.763 26.216-32.753a34.05 34.05 0 0 0 8.847-3.431 4.133 4.133 0 0 1 4.254-.114 69.616 69.616 0 0 0 11.532 4.26c11.044 3.502 17.645 11.415 21.492 21.945a48.337 48.337 0 0 1 2.754 15.617c.335 14.068.681 28.14 1.234 42.196.278 7.08-.088 14.176.601 21.237a2.084 2.084 0 0 1-.451 1.57Z"></path>
  <path fill="#99572c" d="M229.078 511.306c-.03-2.147-.016-4.296-.097-6.441-.139-3.673-.292-7.346-.527-11.014-.12-1.89.608-3.651.567-5.542-.103-4.667.08-9.34-.043-14.006-.265-9.983.741-19.932.662-29.914a23.216 23.216 0 0 1 3.947-13.206 19.951 19.951 0 0 1 7.261-6.432 105.723 105.723 0 0 1 9.645-4.452 10.58 10.58 0 0 0 4.189-2.657c.873-.996 1.616-1.307 2.667.027 1.493 1.897 3.857 2.573 6.003 3.418a51.043 51.043 0 0 1 11.063 5.85c4.135 2.944 6.204 7.1 7.24 11.838a53.392 53.392 0 0 1 1.165 12.465c-.082 4.2-.268 8.424.053 12.603 1.003 13.05.177 26.112.526 39.161.075 2.823-.616 5.547-.624 8.34q-11.48.019-22.96.045c-1.116.003-2.233.085-3.35.132l-2.196-.19a2.902 2.902 0 0 1 .289-2.775c.3-.444 1.268-.517 1.093-1.05-.237-.726-1.108-.298-1.708-.387-6.055.143-12.104.094-18.15.036-2.355-.023-4.356.024-4.04 3.219.035.354-.289.67-.539.95l-2.136-.018Z"></path>
  <path fill="#c37541" d="M188.052 511.327c.012-12.79.405-25.594-.043-38.368-.986-28.081.074-56.168-.598-84.238-.234-9.783-.285-19.563-.433-29.344-.01-.653.036-1.31-.005-1.96-.08-1.292.458-1.861 1.79-1.846q5.46.062 10.923-.003c1.275-.015 1.942.425 1.86 1.775-.039.65-.001 1.306-.001 1.96-.003 38.652.222 77.306-.152 115.955-.106 10.989-.205 21.99-.401 32.984-.019 1.026.023 2.053.038 3.079l-12.978.006Z"></path>
  <path fill="#ad6232" d="M295.16 511.345a23.674 23.674 0 0 1-.575-7.485c.206-10.16-.525-20.302-.75-30.45-.136-6.132.06-12.3-.468-18.41-.377-4.374-.033-8.778-.56-13.09-1.203-9.82-4.554-18.813-11.98-25.769a29.428 29.428 0 0 0-12.325-6.827 46.788 46.788 0 0 1-10.945-4.157 2.602 2.602 0 0 0-3.096-.088 27.75 27.75 0 0 1-9.258 3.741 32.288 32.288 0 0 0-15.01 8.176A34.318 34.318 0 0 0 222.257 430a46.662 46.662 0 0 0-2.94 13.266c-.272 4.095-.206 8.179-.407 12.262-.407 8.28-.257 16.586-.704 24.846-.338 6.245.055 12.494-.502 18.694-.368 4.094-.35 8.174-.508 12.259l-1.602.027c-.009-5.124-.411-10.284.072-15.361.601-6.329-.062-12.668.547-18.942.623-6.421-.054-12.854.566-19.22.607-6.236-.038-12.478.546-18.663.616-6.51.073-13.025.577-19.5.268-3.433.338-6.855.478-10.283a.987.987 0 0 1 1.277-.665 1.83 1.83 0 0 1 .808.915 5.46 5.46 0 0 1 .284 1.65c-.126 5.398.464 10.82-.493 16.243a34.397 34.397 0 0 1 15.13-17.724 29.14 29.14 0 0 1 6.427-2.728 74.388 74.388 0 0 0 12.095-4.353 4.535 4.535 0 0 1 .854-.164 14.057 14.057 0 0 1 2.2-.006 4.554 4.554 0 0 1 .867.144c5.062 2.433 10.625 3.454 15.793 5.59 8.597 3.552 16.149 12.012 18.403 20.587-.769-3.302-.268-6.663-.468-9.996.03-2.763-.135-5.527.094-8.276.075-.905.098-2.497 1.821-1.224a1.554 1.554 0 0 1 .526 1.24c.006.653.027 1.306.01 1.959-.26 10.25.503 20.481.746 30.718.15 6.32-.126 12.68.485 18.964.616 6.336-.046 12.684.56 18.967.622 6.43.07 12.856.551 19.25a96.014 96.014 0 0 1 .391 10.854l-1.58.014Z"></path>
  <path fill="#b16839" d="m92.264 491.209-.052 20.123-.263.015-.263-.018q.006-81.465.034-162.93c0-1.156-.474-2.442.54-3.462-.019 5.02-.019 5.02 4.991 5.041.56.003 1.12-.014 1.678.02a1.592 1.592 0 0 1 1.657 2.053c-.105.732-.407 1.44-.463 2.171-.086 1.122-.732 1.372-1.69 1.36-1.492-.017-2.985.028-4.476-.002-1.15-.024-1.762.428-1.7 1.637.023.465-.003.932-.003 1.398l.011 130.909a1.217 1.217 0 0 1-.001 1.685Z"></path>
  <path fill="#b1693a" d="M231.214 511.323a10.7 10.7 0 0 0-.219-2.746c-.48-1.975-.279-2.218 1.836-2.226 7.313-.028 14.626-.01 21.94-.01a.611.611 0 0 1 .287.503 9.902 9.902 0 0 0 .012 1.22.658.658 0 0 1-.277.51 4.983 4.983 0 0 1-.524 2.757l-23.055-.008Z"></path>
  <path fill="#b06839" d="M75.02 427.328c-1.953-.001-3.906.024-5.858-.008-2.262-.038-2.597-.339-2.687-2.227-.105-2.187.232-2.459 2.363-2.854 5.351-.994 10.742-.36 16.112-.494 1.906-.047 2.233.427 2.277 2.331.048 2.071-.288 2.312-2.23 2.726-3.312.705-6.649.436-9.978.526ZM84.566 374.446c-.333 5.422-.659 9.386-1.242 13.33-.174 1.17-.51 2.019-1.843 1.931-1.368-.09-1.562-1.089-1.561-2.2.006-6.897-.011-13.795.026-20.692.009-1.639.853-2.714 1.857-2.642a2.27 2.27 0 0 1 2.02 2.551c-.224 3.094.993 6.075.743 7.722ZM41.261 382.14c0 2.443.017 4.216-.008 5.989a6.521 6.521 0 0 1-.209 1.929c-.323.975-.745 2.025-2.07 1.884-1.417-.151-1.037-1.324-1.07-2.182-.23-6.041-.833-12.072-.56-18.128a10.36 10.36 0 0 0-.474-2.736 2.51 2.51 0 0 1 .677-2.572c1.042-.96 2.172-.7 2.524.677a13.143 13.143 0 0 1 .578 3.28c-.034 4.192 1.107 8.321.612 11.859ZM58.646 378.993c-.232-3.208.386-6.936-.507-10.62a3.09 3.09 0 0 1 .487-2.924 1.675 1.675 0 0 1 1.677-.764 1.312 1.312 0 0 1 1.09 1.425c-.187 2.163.586 4.224.596 6.355.021 4.652-.009 9.305.023 13.958a9.548 9.548 0 0 1-.54 2.994 1.407 1.407 0 0 1-1.413 1.123 1.495 1.495 0 0 1-1.287-1.302 9.619 9.619 0 0 1-.12-1.939c-.012-2.606-.006-5.211-.006-8.306Z"></path>
  <path fill="#b16939" d="m90.01 350.524.005 5.068c-2.04-.003-4.082-.03-6.123 0-1.131.017-1.837-.396-1.692-1.604.128-1.058-.656-2.406 1.191-2.942 2.2-.639 4.41-.418 6.62-.522Z"></path>
  <path fill="#c37643" d="m28.382 464.874-.003-2.25c2.026 1.22 3.973-.098 5.942-.247 2.666-.202 5.278-1.017 7.987-.864a15.907 15.907 0 0 0 3.847-.494c.758-.142 1.587.1 1.58 1.093-.006.81-.722 1.007-1.403 1.048a70.422 70.422 0 0 0-7.211.46c-2.545.416-5.122.697-7.671 1.171a18.845 18.845 0 0 1-3.068.083ZM90.009 489.523l-.002 2.253a38.183 38.183 0 0 0-6.848.916 16.959 16.959 0 0 1-3.322.15c-.5-.022-.897-.267-.872-.851a.746.746 0 0 1 .71-.72c1.186-.178 2.307-.59 3.539-.668a24.086 24.086 0 0 0 6.795-1.08Z"></path>
  <path fill="#b1693a" d="M35.21 402.66c-1.479 0-2.958.01-4.436-.005-.473-.005-.993-.106-.984-.699.007-.51.458-.755.916-.891a1.972 1.972 0 0 1 .548-.07c3.05-.01 6.099-.022 9.148-.01.433.003 1.016-.05 1.094.567.089.702-.471 1.014-1.022 1.032-1.753.057-3.51.021-5.264.021Z"></path>
  <path fill="#c47744" d="M59.324 444.173c1.112 0 2.224-.013 3.335.007a.796.796 0 0 1 .835.59c.141.558-.176.845-.659 1.02a11.631 11.631 0 0 1-7.076.21c-.524-.138-1.045-.499-.867-1.207.138-.546.62-.636 1.094-.642 1.113-.013 2.225-.004 3.338-.004Z"></path>
  <path fill="#c57845" d="M81.216 399.334c-.618-.044-1.553-.057-2.468-.195a.932.932 0 0 1-.824-.977.95.95 0 0 1 .85-.96 19.912 19.912 0 0 1 5.838.053.897.897 0 0 1 .69.795.967.967 0 0 1-.72 1.06c-.991.365-2.035.112-3.366.224Z"></path>
  <path fill="#b1693a" d="m28.375 355.03.011-1.71c2.675.006 5.35.005 8.026.025.544.004 1.22-.013 1.3.706.106.953-.674.951-1.311.957-2.675.023-5.35.017-8.026.022Z"></path>
  <path fill="#c77e47" d="m361.792 511.354.045-22.326c.001-.744-.006-1.489.02-2.232a1.605 1.605 0 0 1 1.75-1.73c.559-.015 1.118 0 1.675-.026.536-.025 1.27.097 1.323-.647.044-.63-.549-.907-1.143-.99-.275-.038-.557-.03-.836-.043-2.084-.075-2.57-1.158-2.562-3.18.08-21.542.049-43.084.051-64.626 0-3.32.229-3.55 3.653-3.68 1.304-.05 2.612-.004 3.91-.168a1.118 1.118 0 0 0 .798-.278 32.47 32.47 0 0 0-5.446.248c-2.121.24-2.97-.562-2.958-2.831.075-14.734.055-29.469.032-44.194.77-2.233 2.727-1.021 4.038-1.467-1.343-.39-3.032.329-4.3-.899-.003-1.305.015-2.612-.014-3.917a1.932 1.932 0 0 1 1.862-2.247q22.778-4.434 45.53-9.004c3.452-.688 6.887-1.455 10.33-2.187.794-.419 1.267-.14 1.35.708.108 1.114-.033 2.242.056 3.355.118 1.473-.562 2.034-1.956 1.99a39.318 39.318 0 0 0-4.194-.045c-1.122.085-2.003.393-2.013 1.782-.01 1.328.732 1.797 1.91 1.896 1.21.103 2.423.05 3.634.118 1.75.097 2.879.733 2.611 2.741a8.544 8.544 0 0 0-.006 1.119q0 74.993-.01 149.986a6.181 6.181 0 0 1-.22 2.759Z"></path>
  <path fill="#c17942" d="M325.913 511.33c.017-14.84-.356-29.695.135-44.52.953-28.729.148-57.456.462-86.181.023-2.148.844-4.204.584-6.373-.108-.905.56-1.324 1.256-1.651 3.71-1.744 7.245-3.854 11.082-5.338.868-.336 1.692-.783 2.532-1.189 5.288-2.552 10.57-5.116 15.87-7.647.692-.33 1.531-1.08 2.173.037.551.96.056 3.443-.719 3.754-.582.234-1.33.115-1.676 1.12 2.998.635 2.536 2.998 2.536 5.203q-.017 57.125-.01 114.25c-2.7 1.553-5.595.444-8.35.69 2.647 1.008 5.726.117 8.347 1.57l.046 26.285-34.268-.01Z"></path>
  <path fill="#c37541" d="m310.795 511.339.03-37.824q.004-46.51-.009-93.02a10.357 10.357 0 0 0-.424-4.146 2.156 2.156 0 0 1-.103-1.106c.895-5.84-.492-11.674-.027-17.515.16-2.01.127-2.111 2.046-2.135 3.548-.044 7.098.033 10.646-.029 1.505-.026 2.004.658 1.889 2.034-.024.278-.002.56-.002.84-.003 23.255.472 46.522-.136 69.761-.706 26.975-.093 53.94-.433 80.907-.009.747.019 1.494.03 2.24l-13.507-.007Z"></path>
  <path fill="#b16939" d="m420.713 511.339-.04-35.834q-.004-58.093.003-116.185c0-4.104.299-3.72-3.8-3.738-.654-.002-1.311.046-1.96-.01-.99-.087-2.343.487-2.878-.488-.718-1.307-.45-2.91-.174-4.37.154-.814.989-.735 1.623-.721a33.021 33.021 0 0 1 5.858.188c.361.072.787.261 1.02-.092.61-.927.259-1.994.294-2.997.03-.883.281-1.97-1.109-2.161.726-.74 1.393-.663 1.601.352a14.058 14.058 0 0 1 .079 2.791q.002 79.811 0 159.622c0 1.214.009 2.427.013 3.64l-.265.017Z"></path>
  <path fill="#b06839" d="M436.04 427.327c-2.844-.226-6.032.417-9.143-.542-1.81-.557-2.342-1.171-2.297-2.936.044-1.704.824-2.467 2.53-2.702 1.72-.236 3.293.562 4.971.558 2.704-.007 5.409.026 8.113.006a11.966 11.966 0 0 1 3.576.47c1.944.583 2.306 1.01 2.077 2.889-.213 1.76-.764 2.225-2.813 2.25-2.237.028-4.476.007-7.014.007ZM432.433 377.681q.002 4.048.001 8.095c0 .559.021 1.118-.012 1.675a2.093 2.093 0 0 1-1.77 2.188c-1.351.191-1.76-1-1.946-1.952a33.926 33.926 0 0 1-.71-5.772c-.097-4.836-.063-9.676-.017-14.514.02-2.034.586-2.673 2.126-3.102.933-.26 1.52.062 1.68.906a18.111 18.111 0 0 1 .677 4.103c-.103 2.788-.03 5.582-.029 8.373Z"></path>
  <path fill="#b16939" d="M475.032 369.2c-1.052 6.832-.383 13.712-.566 20.569-.03 1.102-.185 2.085-1.556 2.2-1.156.096-1.5-.61-1.839-2.233-1.1-5.273.313-10.51.11-15.77-.068-1.807.602-3.637.528-5.508a3.368 3.368 0 0 1 .373-1.323c.332-.804.771-1.562 1.828-1.319.868.2 1.1.914 1.12 1.711.013.557.002 1.115.002 1.673Z"></path>
  <path fill="#b06839" d="M453.734 370.466c-.775 6.006-.53 12.043-.555 18.072a5.596 5.596 0 0 1-.076 1.109 1.197 1.197 0 0 1-.856.997c-.518.136-.874-.193-1.205-.526a2.073 2.073 0 0 1-.628-1.212 43.272 43.272 0 0 1-.257-12.44 61.512 61.512 0 0 0 .221-8.07 8.909 8.909 0 0 1 .157-2.21c.234-.821.797-1.588 1.79-1.407a1.615 1.615 0 0 1 1.419 1.78c-.04 1.302-.01 2.605-.01 3.907Z"></path>
  <path fill="#c47644" d="M462.945 454.783c4.277-.24 8.643.85 13.078 1.136.774.05 1.234.389 1.177 1.214-.061.885-.712.986-1.4.987a17.85 17.85 0 0 1-3.272-.6c-2.741-.513-5.553-.249-8.27-.95a5.577 5.577 0 0 0-3.308.189 10.883 10.883 0 0 1-3.88.226.84.84 0 0 1-.95-.797.984.984 0 0 1 .57-.882 3.792 3.792 0 0 1 2.137-.527c1.305.015 2.61.004 4.118.004Z"></path>
  <path fill="#b1693a" d="m422.925 355.61.003-5.097c1.937.136 3.88-.106 5.816.48 1.148.348 1.675.815 1.314 1.922-.935 2.867-.15 2.65-3.22 2.673-1.304.01-2.608.014-3.913.021ZM476.421 402.649c-1.483 0-2.966.008-4.448-.005-.567-.004-1.203-.066-1.255-.78-.053-.739.567-.873 1.14-.875q4.588-.014 9.175.017c.573.004 1.186.148 1.11.9-.073.725-.717.746-1.274.752-1.482.015-2.965.005-4.448.005ZM484.543 353.316v1.734l-7.559-.026c-.466-.002-.936.02-1.398-.026-.659-.066-1.422-.186-1.347-1.046.067-.759.829-.604 1.345-.609 2.986-.026 5.972-.021 8.959-.027Z"></path>
  <path fill="#c57845" d="M453.138 352.224a5.797 5.797 0 0 1 .657.003c.934.123 2.407-.364 2.376 1.113-.02.965-1.315 1.106-2.26 1.114-1.117.01-2.237.005-3.353-.049a.925.925 0 0 1-.878-.592c-.186-.556.24-.853.587-1.134.893-.722 1.97-.364 2.87-.455ZM483.995 494.008l.003 2.243c-1.106-.006-2.212.01-3.317-.025-.795-.024-1.525-.304-1.576-1.208-.062-1.129.869-.976 1.573-.997 1.105-.032 2.211-.011 3.317-.013Z"></path>
  <path fill="#cb834c" d="m255.89 315.245 48.998.001c3.299 0 3.648.29 3.666 3.704.046 8.4.032 16.8.02 25.2-.004 2.835-.171 3.005-3.028 3.007q-22.96.017-45.92.005-25.995 0-51.991-.003c-4.255-.002-3.854.393-3.858-3.957q-.012-12.6.013-25.2c.006-2.73.033-2.753 2.82-2.754q24.64-.01 49.28-.003Z"></path>
  <path fill="#c77e47" d="M421.241 310.843c.009-1.33-.554-1.807-1.846-1.793-6.798.078-13.568-.902-20.377-.535a13.308 13.308 0 0 0-2.749.364c-5.229 1.384-10.273 3.329-15.414 4.965-4.879 1.553-9.757 3.102-14.61 4.72-1.755.582-1.777.806-1.049 2.852a1.069 1.069 0 0 1 .003 1.642c-1.177.53-1.048 1.588-1.152 2.62-.243 2.395-.714 4.769-.871 7.167-.202 3.116-1.275 6.188-.605 9.424 1.373-.168 2.642-.182 3.931-.446 4.447-.91 8.925-1.678 13.397-2.471 5.93-1.05 11.867-2.07 17.8-3.108 4.836-.843 9.678-1.672 14.511-2.547 2.281-.412 4.531-.955 6.843-1.241 1.171-.146 2.236-.574 2.208-2.292-.095-6.44-.053-12.881-.02-19.32Zm-30.05 19.968c-1.378.182-2.754.423-4.127.65-1.09.18-1.765-.103-1.891-1.353-.227-2.31-.544-4.612-.78-6.546a11.118 11.118 0 0 1 2.038-6.638c.832-1.143 1.485-1.062 2.449-.165a7.819 7.819 0 0 1 2.443 3.66 46.305 46.305 0 0 1 1.362 8.523 1.495 1.495 0 0 1-1.493 1.87ZM149.486 335.855c-.692-5.047-1.21-10.118-1.715-15.188a2.104 2.104 0 0 0-1.723-2.165c-2.066-.552-4.103-1.214-6.137-1.872q-11.69-3.779-23.367-7.588a10.24 10.24 0 0 0-2.724-.541c-6.806-.32-13.579.543-20.374.555-1.13.002-1.74.386-1.734 1.61q.025 9.941.002 19.882c-.002 1.398.665 1.944 2.035 2.082 1.838.188 3.657.583 5.478.91 4.47.8 8.936 1.62 13.408 2.413 5.93 1.05 11.864 2.08 17.794 3.125 6.38 1.123 12.755 2.255 19.34 3.418a19.745 19.745 0 0 0-.283-6.641Zm-22.52-5.64c-.051.91-.477 1.37-1.419 1.277-.185-.017-.37-.025-.557-.04-5.677-.433-6.01-.8-5.153-6.394a19.353 19.353 0 0 1 1.493-5.937c.695-1.382 1.751-2.96 3.094-2.973 1.51-.017 2.014 1.925 2.614 3.27a9.486 9.486 0 0 1 .535 4.343c.11 2.22-.493 4.313-.608 6.453Z"></path>
  <path fill="#cd854e" d="M90.02 313.875c-.004-.734.12-1.513-.572-2.062a2.343 2.343 0 0 1-.485-.821l-.003-.009a.35.35 0 0 1-.008-.053.757.757 0 0 1-.014-.115c.117-.288.375-.316.63-.347a.605.605 0 0 0 .446-.317c-.376-1.715-1.769-1.065-2.744-1.067-17.555-.034-35.11.014-52.666-.062-1.863-.009-3.037.387-3.427 2.286a1.438 1.438 0 0 0-.308.572 1.072 1.072 0 0 0 .067.737 1.698 1.698 0 0 0 .227.367c-.468 3.514.238 7.022.031 10.536-.09 1.522.364 3.164-1.58 4.024-.507.224-.659 1.09-.659 1.77-.003 1.01-.003 2.021-.003 3.094a6.335 6.335 0 0 0 2.945.191c10.237-.241 20.467.224 30.714-.432 8.264-.526 16.59-.112 24.889-.14 2.443-.005 2.497-.044 2.51-2.208.032-5.315.015-10.631.01-15.944Zm-23.27 9.586a1.43 1.43 0 0 1-1.642 1.48 77.615 77.615 0 0 0-2.8-.07c-3.958-.054-3.855-.042-3.496-4.089.364-4.093 1.662-7.61 5.251-10.118a7.878 7.878 0 0 1 2.542 4.18c.784 2.862.428 5.74.145 8.617Z"></path>
  <path fill="#b06839" d="M308.584 367.913c-.052 5.142.582 4.473-4.453 4.475q-48.733.027-97.466.011c-3.733 0-3.436.148-3.439-3.547-.003-3.734-.02-7.468.012-11.202.008-.893-.32-1.895.56-2.616 1.382 2.15.509 4.548.738 6.824.1 1-.07 2.012.05 3.306a13.767 13.767 0 0 1 .401-3.292c.66-2.495 2.332-4.025 4.385-4.032 2.059-.008 3.72 1.521 4.425 3.993.418 1.464.146 3.164 1.366 4.44 1.032-.747.686-1.773.813-2.64a7.296 7.296 0 0 1 1.685-4.067c2.544-2.775 6.208-2.101 7.615 1.397.65 1.618.559 3.48 1.487 5.071 1.234-.535 1.02-1.62 1.27-2.445a9.696 9.696 0 0 1 1.379-3.339c1.203-1.54 2.653-2.73 4.753-2.316 2.023.397 2.764 2.046 3.246 3.822.38 1.398.288 2.94 1.21 4.325 1.088-.724.777-1.746.912-2.588a6.581 6.581 0 0 1 1.982-4.208 4.371 4.371 0 0 1 7.223 2.28c.397 1.418.314 2.957 1.113 4.457.873-.434.772-1.219.829-1.875a10.519 10.519 0 0 1 1.228-4.27 4.671 4.671 0 0 1 4.504-2.742c2.208.089 3.303 1.469 4.026 3.33a14.348 14.348 0 0 1 .729 3.266c.12.864-.024 1.916 1.159 2.307.913-.694.603-1.7.675-2.579.287-3.477 1.61-5.11 4.266-5.2 2.926-.098 4.553 1.44 5.083 4.765.155.974.01 2.069 1.076 2.884 1.052-.92.746-2.232.981-3.337.64-3.009 1.923-4.6 3.97-4.773 2.252-.19 4.188 1.44 5.222 4.257.466 1.268.294 2.79 1.5 4 1.312-1.297 1.127-2.992 1.565-4.422.62-2.023 1.52-3.639 3.885-3.791 2.296-.148 4.126 1.231 4.99 3.685.52 1.482.637 3.08 1.226 4.726 1.114-.498.915-1.416.992-2.146a7.534 7.534 0 0 1 1.422-4.174 4.417 4.417 0 0 1 4.366-1.938 4.202 4.202 0 0 1 3.44 3.271 17.034 17.034 0 0 1 .697 4.128c.037.934.014 1.89.902 2.519Z"></path>
  <path fill="#cd854e" d="M484.331 330.623a15.702 15.702 0 0 1-.344-3.6c-2.494-1.104-2.85-3.17-2.626-5.588.174-1.877.336-3.757.392-5.646-.46-2.27.02-4.772-1.68-6.734a6.438 6.438 0 0 0-3.033-.246c-17.185-.023-34.368.003-51.562-.023a1.005 1.005 0 0 0-1.05.83c-.017.059-.034.12-.048.182-.07.277-.115.577-.21.838a1.156 1.156 0 0 1-.25.42.89.89 0 0 1-.53.264c-.282 1.106-.563 2.177.96 2.676 1.092.358 1.126 1.359 1.15 2.292.048 1.751.099 3.508-.005 5.254-.09 1.49.743 3.486-1.883 3.853-.622.084-.345.936-.412 1.457-.126.983.286 2.02-.28 2.964.468 2.164.468 2.234 2.687 2.208 11.937-.131 23.863.255 35.795.544 6.627.16 13.26.042 19.89.05.464 0 .932.02 1.397-.005 1.782-.098 2.082-.359 1.642-1.99Zm-31.97-5.766c-1.02.03-2.042.008-3.065.008-.462.036-.924.095-1.39.11-2.32.07-2.48-.057-2.591-2.439a30.923 30.923 0 0 1-.034-6.657c.333-1.995.91-4.42 2.665-4.87 1.603-.415 2.625 1.995 3.58 3.415 1.988 2.951 1.595 6.406 1.8 9.718.039.65-.513.7-.964.715Z"></path>
  <path fill="#c37541" d="M308.584 367.913c-1.158.081-1.753-.393-1.682-1.619a13.15 13.15 0 0 0-.517-4.411c-.668-2.34-1.524-3.26-3.458-3.401-1.43-.105-3.188 1.34-3.913 3.107a9.467 9.467 0 0 0-.528 3.566c-.029 1.955-.06 1.954-2.555 2.466a55.744 55.744 0 0 0-1.068-5.966 4.086 4.086 0 0 0-3.5-3.135 2.895 2.895 0 0 0-3.528 1.944 18.304 18.304 0 0 0-1.11 4.594 3.169 3.169 0 0 1-.687 1.801 1.162 1.162 0 0 1-2.033-.273 7.183 7.183 0 0 1-.667-2.41 8.145 8.145 0 0 0-1.345-3.927 3.757 3.757 0 0 0-3.842-1.797 3.208 3.208 0 0 0-2.66 2.859 11.825 11.825 0 0 0-.542 3.288 2.952 2.952 0 0 1-.58 2.115c-.67.89-1.832.794-2.126-.256a15.23 15.23 0 0 1-.683-3.548 4.027 4.027 0 0 0-5.389-3.903 3.732 3.732 0 0 0-2.395 3.454c-.084 1.114-.03 2.24-.033 3.36-.003.835-.224 1.458-1.225 1.51a1.421 1.421 0 0 1-1.66-1.113 6.56 6.56 0 0 1-.465-2.451 7.773 7.773 0 0 0-.915-3.766c-1.25-2.799-4.387-3.187-6.33-.775a8.165 8.165 0 0 0-1.721 4.926c-.026.653-.014 1.307-.032 1.96-.026.982-.635 1.24-1.497 1.216-.783-.022-1.296-.386-1.235-1.176a18.905 18.905 0 0 0-.608-4.127c-.198-1.414-.447-2.803-2.259-3.07-2.374-.349-4.12.39-4.935 2.208a9.52 9.52 0 0 0-.659 4.384c.037.87-.01 1.714-1.225 1.783-1.056.06-1.536-.385-1.579-1.444-.049-1.206-.656-2.317-.583-3.569a4.415 4.415 0 0 0-1.012-2.568 2.604 2.604 0 0 0-3.639-.96 5.194 5.194 0 0 0-3.088 3.743 12.843 12.843 0 0 0-.668 3.556c.057.768-.367 1.204-1.175 1.237-.831.034-1.433-.133-1.581-1.132a43.307 43.307 0 0 0-.843-4.367c-.535-2.089-1.919-3.35-3.554-3.407-1.49-.051-3.305 1.347-4.022 3.024a10.881 10.881 0 0 0-.569 4.4c-.001.863-.062 1.846-1.197 1.843a1.573 1.573 0 0 1-1.623-1.589c-.082-.921-.633-1.755-.54-2.726a3.7 3.7 0 0 0-.097-1.11c-.497-2.297-2.042-3.842-3.817-3.841-1.776 0-3.336 1.54-3.811 3.843a17.817 17.817 0 0 1-.405 2.742c-.323.842.094 1.892-.932 2.744-.882-2.128-.345-4.24-.436-6.274-.097-2.143-.013-4.294-.008-6.441 31.785-1.246 63.584-.227 95.374-.604 2.724-.033 5.351.614 8.048.614 1.363 0 1.365.98 1.364 1.953q-.003 5.458 0 10.916Z"></path>
  <path fill="#cb834c" d="M256.208 313.554h-48.714c-.747 0-1.493-.02-2.24-.01-1.079.015-1.387-.573-1.482-1.574-.479-5.035-.403-5.142 4.643-5.142l96.588.002c3.818 0 3.556-.353 3.572 3.683.002.56-.018 1.12-.018 1.68 0 .935-.496 1.344-1.396 1.346-.746 0-1.493.014-2.24.015h-48.713Z"></path>
  <path fill="#c17942" d="M362.15 320.449c-7.288 4.346-14.321 8.524-21.34 12.724-3.994 2.39-7.953 4.837-11.955 7.216a3.096 3.096 0 0 0-1.793 2.894c.04 5.784.017 11.568.017 17.73 8.18-4.324 15.95-8.356 23.639-12.534 2.457-1.337 4.915-2.67 7.406-3.94a3.098 3.098 0 0 0 2.02-2.455c.714-5.98 1.502-11.951 2.194-17.93a8.816 8.816 0 0 0-.188-3.705Zm-18.513 26.023a29.235 29.235 0 0 1-.85-9.345c.076-1.037.155-2.592 1.508-2.558 1.118.028 1.227 1.449 1.306 2.482.162 2.136.325 4.27.443 6.409.117 2.127.092 2.127-2.407 3.012ZM185.297 343.241a3.088 3.088 0 0 0-1.83-2.863c-9.676-5.742-19.306-11.556-29.016-17.24-1.297-.758-2.415-2.078-4.139-2.059a4.576 4.576 0 0 0-.212 3.088c.863 4.562 1.14 9.188 1.55 13.795.299 3.385.57 6.65 4.704 7.69a10.95 10.95 0 0 1 2.14 1.288q11.311 6.09 22.64 12.15c1.215.65 2.468 1.23 4.149 2.063 0-6.356-.022-12.134.014-17.912Zm-16.748 3.388c-1.931-.482-2.57-1.37-2.427-2.95.168-1.85.14-3.719.26-5.574a17.682 17.682 0 0 1 .413-2.466 1.326 1.326 0 0 1 1.028-1.18c.72-.114.916.536 1.104 1.029a6.644 6.644 0 0 1 .496 1.88 39.272 39.272 0 0 1-.874 9.261Z"></path>
  <path fill="#c37542" d="M255.616 385.291h-48.17c-.654 0-1.308.015-1.96-.003-2.083-.058-2.216-.176-2.251-1.916-.042-2.028.35-2.458 2.37-2.555.56-.027 1.12-.007 1.68-.007h97.742c.373 0 .747-.006 1.12.002 2.349.052 2.463.254 2.463 2.58 0 1.484-.63 2.01-2.023 1.906-.65-.049-1.307-.007-1.96-.007h-49.01Z"></path>
  <path fill="#cb834c" d="M256.073 374.638h48.756c.467 0 .934-.01 1.401.002 2.112.054 3.129 1.797 2.225 3.767a1.142 1.142 0 0 1-1.11.674c-.746.033-1.494.032-2.24.032-14.758-.001-29.516.066-44.273-.04-5.847-.043-11.69.116-17.537.054-5.977-.063-11.955-.014-17.933-.014l-17.653.001c-.56 0-1.121.01-1.681-.002-2.507-.053-3.162-.858-2.772-3.26.127-.783.49-1.17 1.26-1.188q1.12-.026 2.24-.025 24.659-.002 49.317-.001Z"></path>
  <path fill="#c77e47" d="M361.83 351.532c.016-2.531.287-2.77 2.768-3.22q11.077-2.007 22.138-4.107c7.464-1.413 14.919-2.875 22.38-4.304 3.457-.663 6.935-1.233 10.373-1.984 1.307-.286 1.742.093 1.727 1.313a8.546 8.546 0 0 0 .013 1.398c.244 1.58-.717 2.17-2 2.449-2.084.452-4.179.849-6.27 1.268q-19.354 3.882-38.71 7.757c-3.364.67-6.744 1.263-10.118 1.883-2.254.415-2.255.408-2.3-1.894-.003-.186 0-.373 0-.56ZM149.992 354.302c-7.233-1.02-13.893-2.646-20.608-3.99l-29.714-5.945c-1.908-.382-3.82-.75-5.728-1.13a3.292 3.292 0 0 1-2.018-4.757c.374-.627.908-.457 1.474-.349 2.549.488 5.105.938 7.655 1.416q14.477 2.71 28.952 5.432 8.74 1.654 17.467 3.373c2.366.463 2.503.657 2.519 3.148.005.825 0 1.65 0 2.802Z"></path>
  <path fill="#cd854e" d="M55.37 343.263H31.746c-.56 0-1.12-.025-1.678.002-1.152.058-1.656-.42-1.723-1.623-.14-2.536.072-2.818 2.74-2.855.932-.013 1.864-.012 2.797-.005 11.545.084 23.08-.526 34.62-.75 6.405-.124 12.829-.174 19.241-.37.77-.023 1.878-.355 2.128.77a6.165 6.165 0 0 1-.15 3.826c-.084.195-.445.336-.699.377a9.13 9.13 0 0 1-1.393.068c-11.73.067-23.445 1.027-32.26.56ZM459.913 343.237c-6.623 0-13.247.068-19.87-.022-5.11-.069-10.204-.795-15.329-.508-1.322.074-1.887-.515-1.796-1.82.038-.556.022-1.119.007-1.678-.029-1.023.406-1.592 1.479-1.553 6.042.22 12.106-.479 18.134.437a17.197 17.197 0 0 0 2.512.103c5.224.019 10.468-.263 15.667.105 7.166.507 14.326.4 21.49.505 2.076.03 3.004 1.644 2.256 3.666a1.208 1.208 0 0 1-1.323.775c-1.399.015-2.798.01-4.197.01q-9.515.002-19.03.001Z"></path>
  <path fill="#b06839" d="M322.592 339.889c0 4.082-.024 8.165.014 12.247.013 1.323-.567 2.055-1.825 1.7-3.113-.878-6.27-.313-9.4-.498a3.344 3.344 0 0 1-.548-2.387c-.008-6.42.064-12.842-.04-19.26-.036-2.296.915-3.216 3.085-3.287 8.885-.292 7.797.355 7.893 7.066.033 2.332-.322 4.634-.301 6.959.02 2.32-.01 4.643.038 6.963-.088-2.633-.045-5.268.005-7.901.013-.712-.016-1.567 1.079-1.602ZM200.987 353.34c-3.146.174-6.329-.407-9.443.514a1.51 1.51 0 0 1-1.764-.517c1.545-1.788.88-3.94.748-5.885-.361-5.3-.07-10.594-.18-15.89-.025-1.199.251-2.348 1.492-2.717a14.843 14.843 0 0 1 7.974-.046 1.623 1.623 0 0 1 1.129 1.74c.126 7.6.734 15.2.044 22.801Z"></path>
  <path fill="#c37542" d="M322.592 339.889c-.844.735-.529 1.728-.54 2.622-.035 2.792.006 5.585-.028 8.377-.009.696.27 1.485-.516 2.17-.934-.528-.571-1.46-.575-2.178-.033-6.05-.017-12.1-.016-18.15 0-.652-.017-1.303-.007-1.955a1.319 1.319 0 0 0-1.519-1.526c-1.675.01-3.35-.01-5.026-.004-2.952.013-2.968.018-2.973 2.87q-.018 9.216-.008 18.43 0 1.397-.004 2.793c-1.395-.204-1.093-1.297-1.098-2.177-.021-3.734-.009-7.469-.009-11.203q-.001-10.784.001-21.567c.006-3.058.702-3.66 3.711-2.921 2.138.524 4.27.203 6.402.313 2.134.11 2.191.084 2.199 2.26.025 7.281.007 14.564.006 21.846ZM200.987 353.34c-.002-3.813-.129-7.631.03-11.437.157-3.73-.93-7.367-.608-11.092.088-1.012-.406-1.564-1.469-1.558-2.046.01-4.092-.002-6.138.004a1.66 1.66 0 0 0-1.883 1.893c.208 5.37-.502 10.76.414 16.123a32.039 32.039 0 0 1 .11 4.732c.022 1.173-.733 1.358-1.663 1.332-.003-5.963-.156-11.931.036-17.888.174-5.407-.748-10.752-.597-16.145.016-.558.036-1.12 0-1.676-.083-1.286.45-1.914 1.782-1.842.836.045 1.677.013 2.515.001a24.029 24.029 0 0 0 5.536-.45c1.973-.486 2.433.043 2.492 2.12.023.839.004 1.678.004 2.516q-.002 15.234-.021 30.467c-.003.978.374 2.074-.54 2.9Z"></path>
  <path fill="#c17942" d="M152.506 350.174c1.979.97 3.775 1.735 5.462 2.694 8.106 4.605 16.61 8.424 24.877 12.71 2.708 1.405 2.75 1.462 2.081 5.078-2.153-.93-4.292-1.763-6.353-2.758-8.217-3.969-16.389-8.033-24.634-11.943-1.314-.623-1.909-1.278-1.727-2.69a11.113 11.113 0 0 1 .294-3.09ZM327.337 370.527c-.451-3.616-.447-3.609 2.317-5.018l27.65-14.099a6.778 6.778 0 0 1 2.536-1.04c.524.857.195 1.712.302 2.518a2.696 2.696 0 0 1-1.807 3.069c-10.02 4.764-20.014 9.587-30.02 14.382a4.644 4.644 0 0 1-.978.188Z"></path>
  <path fill="#c27441" d="M430.267 333.751c14.053 1.048 28.134.22 42.192.644 3.511.106 7.04.397 10.57.46.825.015 1.521.205 1.44 1.241-.067.876-.735 1.01-1.417.973-3.43-.182-6.892.486-10.297-.426a6.893 6.893 0 0 0-1.67-.103 97.896 97.896 0 0 0-3.358-.004c-12.766.271-25.508-.97-38.277-.584-1.857.056-3.636-.772-5.527-.6a.739.739 0 0 1-.838-.867c.067-.562.535-.725 1.025-.728 2.052-.013 4.104-.006 6.157-.006ZM56.48 334.285c3.546 0 7.091-.03 10.636.006 6.703.07 13.376-.966 20.084-.538.92.058 2.529-.564 2.56.788.03 1.398-1.583.742-2.49.86-7.886 1.027-15.844.036-23.714.678-7.458.609-14.904.037-22.326.539-3.34.225-6.669.456-10.014.467-.56.002-1.12 0-1.679-.028a1.003 1.003 0 0 1-1.082-1.02.977.977 0 0 1 .946-1.138c.368-.045.744-.032 1.116-.054q12.97-.779 25.963-.56Z"></path>
  <path fill="#c47c46" d="M308.371 349.428c-2.321.763-102.058.762-104.201.058.336-.163-.211.028.002-.278.05-.071.14-.161.213-.162 34.169-.425 68.34-.07 102.508-.186a1.624 1.624 0 0 1 1.478.568Z"></path>
  <path fill="#c27442" d="M363.38 346.603c-.648-.03-1.414.042-1.426-.9-.01-.767.529-1.137 1.242-1.274 2.002-.384 3.998-.798 6.006-1.15 4.743-.834 9.492-1.628 14.236-2.457q9.027-1.579 18.05-3.19c4.467-.798 8.944-1.551 13.385-2.476a25.402 25.402 0 0 0 4.381-.781c.501-.198 1.457-.399 1.644.473.183.85-.629.983-1.28 1.102-3.096.567-6.198 1.112-9.29 1.704-6.277 1.202-12.548 2.441-18.825 3.644q-13.78 2.639-27.566 5.246c-.182.035-.37.04-.557.059Z"></path>
  <path fill="#c27542" d="M148.162 346.482c-5.008-.923-10.021-1.82-15.023-2.774-7.547-1.438-15.086-2.914-22.629-4.374q-8.043-1.558-16.085-3.118a29.93 29.93 0 0 1-1.361-.294c-.56-.136-1.176-.356-1.051-1.042.139-.763.856-.602 1.36-.478 2.073.513 4.182.798 6.282 1.157 6.931 1.184 13.84 2.498 20.757 3.765 8.01 1.467 16.013 2.978 24.037 4.365 1.365.236 2.732.515 4.111.673.862.1 1.469.357 1.35 1.344-.087.724-.651.979-1.748.776Z"></path>
  <path fill="#c67d47" d="M294.58 352.772c-10.08 0-20.165.187-30.238-.094-3.795-.106-7.619-.686-11.41-.412-15.373 1.113-30.76.203-46.136.508-.879.017-1.838.284-2.636-.353.088-.901.764-.692 1.258-.735.556-.047 1.119-.014 1.679-.014q49.14 0 98.282.02c1.065 0 2.258-.436 3.184.531-3.562.601-7.153.097-10.726.28-1.086.056-2.21-.28-3.257.269Z"></path>
  <path fill="#c37543" d="m362.391 364.006-.005 43.964c0 .374-.014.748.004 1.12.087 1.811.53 2.326 2.173 1.843 2.314-.68 4.634-.286 6.946-.42a8.146 8.146 0 0 1 1.117.048.786.786 0 0 1 .792.648c.099.576-.267.831-.776.93a30.644 30.644 0 0 1-6.363.635c-4.289-.061-3.887-.423-3.888 3.905q-.012 31.503-.003 63.006c0 2.598.007 2.598 2.238 3.675-2.783-.1-2.795-.1-2.795-3.033q-.001-58.162.003-116.324a.331.331 0 0 1 .557.003Z"></path>
  <path fill="#b1693a" d="M480.072 309.056q-26.125.005-52.25.03c-1.069.001-2.251-.418-3.196.498l-.197.21-.287.019c-.157-.06-.354-.247-.47-.146-.277.244-.1-.145.139.149a3.3 3.3 0 0 1 .293.55.978.978 0 0 1-.06.929c-.517.839-1.6 1.856.612 1.776 1.212-.044 1.612.738 1.616 1.793.012 3.243.069 6.487-.029 9.727-.05 1.693-.644 1.91-2.601 1.259-.6 1.257.407 2.806-.722 3.967-.003-6.25-.02-12.502-.003-18.753.007-2.503.041-2.547 2.46-2.548q26.312-.02 52.624-.003c.73 0 1.515-.148 2.07.543Z"></path>
  <path fill="#c27441" d="M327.35 364.184c-.407-.885.128-1.034.633-1.341 3.021-1.84 6.246-3.297 9.333-5.018 6.666-3.717 13.467-7.192 20.239-10.714.72-.375 1.759-1.58 2.358-.462.655 1.22-.867 1.603-1.72 2.055-1.73.915-3.504 1.745-5.247 2.636q-11.572 5.916-23.14 11.838a6.257 6.257 0 0 1-2.456 1.006ZM185.11 364.547c-1.387-.724-2.49-1.32-3.611-1.881-6.992-3.504-13.998-6.982-20.978-10.51-2.321-1.174-4.581-2.468-6.866-3.713a5.748 5.748 0 0 1-.935-.595 1.013 1.013 0 0 1-.34-1.251c.279-.546.779-.357 1.196-.123 1.133.635 2.237 1.325 3.386 1.928 2.964 1.555 5.945 3.071 8.874 4.7 5.849 3.25 11.805 6.309 17.708 9.463.62.331 1.466.475 1.566 1.982Z"></path>
  <path fill="#c37542" d="m5.492 347.762.014-2.36q8.62-4.29 17.238-8.576a15.66 15.66 0 0 1 1.499-.743c.55-.203 1.228-.927 1.694-.122a1.515 1.515 0 0 1-.73 2.13c-2.22 1.358-4.686 2.218-7.014 3.357-4.248 2.077-8.461 4.222-12.701 6.314Z"></path>
  <path fill="#b86c3a" d="M324.451 353.668v-37.45c1.074-.114.928.597.929 1.088.017 7.173.268 14.36-.086 21.515-.202 4.08.53 8.109.102 12.161-.09.856.274 1.856-.945 2.686Z"></path>
  <path fill="#bb6e3c" d="M187.133 353.646v-37.492a3.422 3.422 0 0 1 .392 2.254c.022 3.072.124 6.15-.011 9.216-.342 7.721.833 15.398.584 23.113a3.798 3.798 0 0 1-.965 2.909Z"></path>
  <path fill="#b1693a" d="M483.986 327.022c-3.35-.376-3.338-.376-3.354-3.973-.012-2.482-.029-4.96 1.121-7.259.896 3.714 1.124 7.56 2.233 11.232Z"></path>
  <path fill="#b16939" d="M360.135 485.055c-3.09.336-6.096-.627-9.169-.586-.669.009-1.423-.053-1.33-.99a1.174 1.174 0 0 1 1.6-1.094c2.944.826 5.939.229 8.903.41l-.004 2.26Z"></path>
  <path fill="#b06839" d="M149.975 485.059a9.192 9.192 0 0 0-3.249.395c-1.06.363-1.711-.06-1.803-1.319-.167-2.302.26-2.874 2.689-3a5.513 5.513 0 0 0 2.375-.571l-.012 4.495Z"></path>
  <path fill="#b1693a" d="m362.391 364.006-.278-.006-.279.003.008-1.718c1.737.015 3.474.006 5.21.06.54.017 1.159.194 1.06.924-.07.522-.596.671-1.06.683-1.553.039-3.107.039-4.66.054ZM149.98 364c-1.648-.011-3.297-.006-4.945-.04-.583-.011-1.12-.204-1.029-.944.07-.567.562-.679 1.028-.686 1.648-.025 3.296-.022 4.945-.03l.001 1.7Z"></path>
  <path fill="#c67d47" d="M294.58 352.772c.73-.842 1.717-.53 2.605-.537 3.793-.03 7.586-.012 11.378-.012-.71.887-1.71.544-2.59.551-3.798.03-7.595.004-11.393-.002Z"></path>
  <path fill="#94552a" d="M89.51 310.129q.252.017.504.023a3.1 3.1 0 0 1-.565 1.661c-1.104-.045-1.864-.326-1.124-1.636a.959.959 0 0 1 1.185-.048Z"></path>
  <path fill="#904f26" d="m31.178 311.308-.016 1.677c-.633.014-1.285.079-1.693-.574a4.192 4.192 0 0 1 .024-.54 3.6 3.6 0 0 1 1.685-.563Z"></path>
  <path fill="#8e4f26" d="M365.196 321.415c.559.006 1.216.048 1.291.696.104.887-.648.91-1.289.948a1.382 1.382 0 0 1-.002-1.644Z"></path>
  <path fill="#8d4e25" d="m483.478 313.035-.083.491a2.475 2.475 0 0 1-.543-.07c-.438-.157-.908-.356-.693-.945a.825.825 0 0 1 .604-.454c.614-.004.62.542.715.978Z"></path>
  <path fill="#925429" d="M503.647 326.489c-.26.316-.624.488-.916.167-.467-.512-.244-1.003.239-1.404a1.401 1.401 0 0 1 1.202.628v.002a2.318 2.318 0 0 0-.525.607Z"></path>
  <path fill="#9a5a2f" d="M8.193 325.901c.743.016 1.287.298.992 1.125-.205.577-.667.424-1.042.063l.05-1.188Z"></path>
  <path fill="#c57745" d="M486.253 494c.45.08.937.137 1.008.716.091.747-.442.894-1.013.982l.005-1.698Z"></path>
  <path fill="#d58c55" d="M12.124 350.556a1.122 1.122 0 0 1 1.128-.568 1.207 1.207 0 0 1-1.128.568Z"></path>
  <path fill="#d58c55" d="M11.004 351.117a1.118 1.118 0 0 1 1.129-.567 1.208 1.208 0 0 1-1.13.567ZM5.478 354.068c.105-.62.565-.702 1.074-.71-.232.426-.673.538-1.074.71ZM25.006 340.463a1.16 1.16 0 0 1-1.108.555 1.149 1.149 0 0 1 1.108-.555ZM22.77 341.582a1.17 1.17 0 0 1-1.113.557 1.157 1.157 0 0 1 1.112-.557ZM21.648 342.145a1.173 1.173 0 0 1-1.112.555 1.152 1.152 0 0 1 1.112-.555ZM20.528 342.705a1.173 1.173 0 0 1-1.115.554 1.159 1.159 0 0 1 1.115-.554ZM19.407 343.263a1.17 1.17 0 0 1-1.113.557 1.155 1.155 0 0 1 1.113-.557ZM18.286 343.825a1.172 1.172 0 0 1-1.116.554 1.158 1.158 0 0 1 1.116-.554ZM24.448 344.368a1.171 1.171 0 0 1 1.113-.557 1.158 1.158 0 0 1-1.113.557ZM17.165 344.383a1.168 1.168 0 0 1-1.113.558 1.159 1.159 0 0 1 1.113-.558ZM23.328 344.932a1.165 1.165 0 0 1 1.114-.56 1.162 1.162 0 0 1-1.114.56ZM16.044 344.946a1.172 1.172 0 0 1-1.115.554 1.158 1.158 0 0 1 1.115-.554ZM22.207 345.494a1.162 1.162 0 0 1 1.117-.56 1.17 1.17 0 0 1-1.117.56ZM14.923 345.504a1.168 1.168 0 0 1-1.115.557 1.165 1.165 0 0 1 1.115-.557ZM21.087 346.058a1.156 1.156 0 0 1 1.118-.562 1.175 1.175 0 0 1-1.118.562ZM13.802 346.065a1.169 1.169 0 0 1-1.115.556 1.158 1.158 0 0 1 1.115-.556ZM19.966 346.619a1.154 1.154 0 0 1 1.12-.561 1.18 1.18 0 0 1-1.12.56ZM12.681 346.625a1.168 1.168 0 0 1-1.115.556 1.163 1.163 0 0 1 1.115-.556ZM18.846 347.182a1.15 1.15 0 0 1 1.12-.564 1.181 1.181 0 0 1-1.12.564ZM11.56 347.185a1.167 1.167 0 0 1-1.116.557 1.164 1.164 0 0 1 1.117-.557Z"></path>
  <path fill="#d58c55" d="M17.725 347.744a1.146 1.146 0 0 1 1.123-.564 1.192 1.192 0 0 1-1.123.564ZM10.44 347.745a1.167 1.167 0 0 1-1.116.557 1.163 1.163 0 0 1 1.116-.557Z"></path>
  <path fill="#d58c55" d="M16.605 348.308a1.14 1.14 0 0 1 1.124-.567 1.196 1.196 0 0 1-1.124.567ZM9.319 348.306a1.167 1.167 0 0 1-1.116.557 1.164 1.164 0 0 1 1.116-.557Z"></path>
  <path fill="#d58c55" d="M15.484 348.868a1.136 1.136 0 0 1 1.127-.564 1.196 1.196 0 0 1-1.127.564ZM8.198 348.866a1.167 1.167 0 0 1-1.116.557 1.164 1.164 0 0 1 1.116-.557Z"></path>
  <path fill="#d58c55" d="M14.365 349.433a1.13 1.13 0 0 1 1.125-.569 1.2 1.2 0 0 1-1.125.569ZM7.077 349.426a1.166 1.166 0 0 1-1.116.557 1.164 1.164 0 0 1 1.116-.557Z"></path>
  <path fill="#d58c55" d="M13.244 349.993a1.126 1.126 0 0 1 1.129-.566 1.202 1.202 0 0 1-1.129.566ZM23.89 341.024a1.172 1.172 0 0 1-1.114.554 1.155 1.155 0 0 1 1.114-.554ZM25.568 343.807l.545-.546-.545.546ZM7.084 353.318l.589-.526-.589.526Z"></path>
  <path fill="#c27441" d="m506.428 349.959-.598-.505.598.505Z"></path>
  <path fill="#d58c55" d="m26.116 340.453-.598-.024c.213-.343.416-.427.598.024ZM10.449 351.629l.564-.522-.564.522ZM9.327 352.193l.583-.524q-.291.263-.583.524ZM5.957 349.986c-.273.412-.425.31-.5-.118a1.48 1.48 0 0 0 .5.118ZM8.206 352.755l.586-.524-.586.524Z"></path>
  <path fill="#b16939" d="M22.766 388.85c0 1.213.018 2.427-.007 3.639-.016.809-.307 1.504-1.203 1.635-.904.133-1.362-.417-1.551-1.243a10.34 10.34 0 0 1-.537-2.443c.178-6.71-1.557-13.304-1.18-20.022a5.961 5.961 0 0 1 .3-2.475c.25-.502.476-1.047 1.161-1.045a1.368 1.368 0 0 1 1.28.926 5.138 5.138 0 0 1 .57 1.846c.038 6.417.972 12.777 1.167 19.183Z"></path>
  <path fill="#c57845" d="M17.875 413.367a12.25 12.25 0 0 1-1.6-.323.955.955 0 0 1-.52-.6c-.097-.394.162-.635.546-.803a8.217 8.217 0 0 1 4.6-.464.948.948 0 0 1 .553.522.656.656 0 0 1-.37.906 7.065 7.065 0 0 1-3.21.762Z"></path>
  <path fill="#b16839" d="M493.528 373.427a107.929 107.929 0 0 1-1.052 15.562c-.114.92-.059 1.86-.08 2.79a2.039 2.039 0 0 1-1.648 2.255c-.874.158-1.653-1.073-1.686-2.478a2.036 2.036 0 0 1 .016-.557c.874-3.295.276-6.672.571-9.991.369-4.148.968-8.275 1.096-12.445.028-.928.4-1.71 1.465-1.65 1.062.061 1.308.906 1.314 1.81.014 1.863.004 3.725.004 4.704Z"></path>
  <path fill="#b1693a" d="M10.37 333.425c0 1.014.07 2.034-.027 3.039a1.186 1.186 0 0 1-1.126 1.051c-.717.068-.885-.417-1.025-1.01a23.598 23.598 0 0 1-.57-6.307c.031-.868.113-1.796 1.149-1.93 1.283-.165 1.467.972 1.58 1.839a25.95 25.95 0 0 1 .033 3.318ZM501.375 333.932c.17-1.24.376-2.887.63-4.525a1.325 1.325 0 0 1 2.636-.02 4.422 4.422 0 0 1-.014 1.926 13.85 13.85 0 0 0-.46 4.12c-.021.93.02 2.075-1.304 1.993a1.616 1.616 0 0 1-1.492-1.972c.03-.368.004-.741.004-1.522Z"></path>
  <path fill="#ad6232" d="m503.647 326.489.525-.607Z"></path>
  <path fill="#b06839" d="M129.088 445.25c2.057-.117 4.378.254 6.66-.486 1.29-.419 2.544.304 3.809.541a1.096 1.096 0 0 1 .882 1.232c.01 1.113.033 2.23-.028 3.34a1.48 1.48 0 0 1-1.391 1.48 2.723 2.723 0 0 1-.554.044c-4.641-.299-9.218.873-13.863.586-2.308-.143-2.55-.316-2.638-2.565-.158-4.065-.051-4.174 4.091-4.172h3.032ZM104.588 377.161c0 2.793-.01 5.585.005 8.377a3.502 3.502 0 0 1-1.085 3.024c-1.039.842-1.962.511-2.238-.794a2.134 2.134 0 0 1-.036-.556c.37-6.509-.62-12.977-.587-19.478.007-1.284.335-2.185 1.641-2.507.793-.196 1.448-.084 1.775.843a8.504 8.504 0 0 1 .536 2.994c-.036 2.698-.012 5.398-.011 8.097ZM142.697 376.556a63.005 63.005 0 0 1-.999 10.964 25.081 25.081 0 0 0-.119 2.782 5.562 5.562 0 0 1-.267 2.195c-.413.916-1.046 1.672-2.084 1.515-1.07-.163-1.019-1.182-1.004-2.017.057-3.24.761-6.429.592-9.7a29.686 29.686 0 0 1 .516-8.857c.068-.267.02-.56.078-.83.25-1.166 1.1-1.364 2.12-1.301 1.009.062 1.165.747 1.167 1.553.002 1.303 0 2.605 0 3.696ZM124.77 380.109c-.26 2.743.5 6.122-.527 9.408a5.805 5.805 0 0 1-.42 1.303 1.384 1.384 0 0 1-1.477.561 1.042 1.042 0 0 1-.926-1.182 29.887 29.887 0 0 1 .066-5.857c.733-3.71.312-7.42.469-11.125.027-.651 0-1.304.01-1.957.012-.772.05-1.555 1.097-1.598a1.43 1.43 0 0 1 1.656 1.48c.068 1.674.042 3.353.05 5.03.006 1.117.002 2.236.002 3.937Z"></path>
  <path fill="#c37543" d="M130.723 409.31c-3.434.418-6.415-.796-9.501-.544a2.523 2.523 0 0 1-1.29-.46.787.787 0 0 1 .046-1.493 3.613 3.613 0 0 1 2.198-.178 68.077 68.077 0 0 0 11.316 1.074 6.54 6.54 0 0 1 1.11.087.735.735 0 0 1 .652.77.715.715 0 0 1-.694.732c-1.394.03-2.79.011-3.837.011ZM92.264 491.209l.001-1.685c4.218-.957 8.5-.431 12.754-.544.594-.015 1.522-.214 1.503.726-.016.738-.825.832-1.5.942a79.858 79.858 0 0 1-12.758.561Z"></path>
  <path fill="#c37643" d="M98.61 467.622c-1.637 0-2.654.025-3.668-.011a.757.757 0 0 1-.823-.874.698.698 0 0 1 .74-.674c2.317.12 4.57-.43 6.857-.605a.873.873 0 0 1 1.04.691c.098.54-.273.821-.69 1.066-1.294.76-2.715.329-3.456.407ZM121.91 360.02c-1.588 0-2.511.027-3.433-.01a.759.759 0 0 1-.822-.874.686.686 0 0 1 .737-.671c2.143.199 4.162-.794 6.297-.624.489.04.94.158 1.04.704.099.533-.272.82-.687 1.069-1.2.722-2.526.351-3.132.406Z"></path>
  <path fill="#c37543" d="M107.72 427.878c-.644 0-1.29.032-1.931-.01-.59-.038-1.47.2-1.449-.762.012-.583.652-.86 1.242-.867q2.62-.03 5.239.005c.5.007.912.28.89.827-.024.545-.468.764-.958.776-1.01.026-2.022.008-3.034.008Z"></path>
  <path fill="#b06839" d="M155.592 385.906c0-2.607.006-5.213-.003-7.819a2.318 2.318 0 0 1 .896-2.201c1.25-.854 2.03-.63 2.446.841a27.58 27.58 0 0 1 .374 10.794c-.23 1.988-.022 4.1-.881 6.018a10.072 10.072 0 0 1-.445 1.292 1.646 1.646 0 0 1-1.571.974c-.91-.12-.81-.893-.813-1.522-.017-2.793-.008-5.585-.008-8.377Z"></path>
  <path fill="#b16939" d="M170.712 387.87c.285 3.388-.828 6.84-.627 10.388a6.095 6.095 0 0 1-.832 2.619 1.117 1.117 0 0 1-1.445.524 1.072 1.072 0 0 1-.799-1.288c1.093-5.124.912-10.321.92-15.508a3.192 3.192 0 0 1 .142-1.096c.233-.622.625-1.26 1.352-1.214a1.336 1.336 0 0 1 1.292 1.518c-.013 1.303-.004 2.605-.004 4.056ZM179.606 390.259c-.845 2.152-.483 4.406-.439 6.606.042 2.063-.77 3.99-.676 6.049a1.218 1.218 0 0 1-1.447 1.313 1.078 1.078 0 0 1-.987-1.584c.5-1.544.122-3.136.28-4.694.286-2.834.588-5.668.99-8.487.085-.59-.216-1.814.94-1.617a1.826 1.826 0 0 1 1.371 2.138c-.007.092-.021.184-.032.276Z"></path>
  <path fill="#b1693a" d="m254.785 403.222-.276.002h-.276c-8.624.552-17.257.185-25.886.231-1.96.01-2.953.374-3.275 2.637-.38 2.665-2.523 4.149-5.028 4.983l-.01-1.688c-.187-.186-.374-.372-.557-.561l-1.098.56a15.913 15.913 0 0 1-1.42-2.328c-1.233-3.073.253-5.503 3.638-6.08 7.527.591 15.067.234 22.6.269 13.683.063 27.367.013 41.05.022a63.304 63.304 0 0 0 7.518-.28c4.243 1.368 5.1 4.118 2.338 7.482-.233.284-.422.605-.63.908-.79-.313-1.164-.137-1.154.803.031 3.101.007 6.203.004 9.304-1.458-.219-1.219-1.444-1.325-2.376-.157-1.382-.043-2.783-.073-4.176-.017-.837.12-1.893-.536-2.379a9.73 9.73 0 0 1-4.186-6.268c-.203-1.098-1.745-.769-2.726-.774-6.128-.03-12.257-.043-18.385 0-2.503.016-4.994-.107-7.486-.3l-.58.008a2.031 2.031 0 0 0-2.24.001Z"></path>
  <path fill="#b06535" d="M291.765 400.989a5.983 5.983 0 0 1-3.923 1.115q-31.663-.01-63.327 0a5.89 5.89 0 0 1-3.918-1.126c.736-.848 1.733-.548 2.63-.55q32.783-.021 65.565-.017a5.252 5.252 0 0 1 2.973.578Z"></path>
  <path fill="#b26a3a" d="M282.25 392.9c0-1.025-.023-2.05.007-3.074.024-.809.333-1.486 1.224-1.623a1.556 1.556 0 0 1 1.761 1.099 10.956 10.956 0 0 1-.496 7.605 1.141 1.141 0 0 1-1.437.562 1.31 1.31 0 0 1-.991-1.218c-.056-1.114-.016-2.233-.016-3.35ZM226.804 392.31c0-.927-.03-1.856.01-2.781a1.362 1.362 0 0 1 .926-1.27 1.567 1.567 0 0 1 1.723.591 3.002 3.002 0 0 1 .672 2.05c.195 1.886-.709 3.627-.653 5.495a1.063 1.063 0 0 1-.845.993c-.507.131-.868-.195-1.205-.527a2.316 2.316 0 0 1-.666-1.767c.008-.928.002-1.856.002-2.784ZM267.078 393.223c0 1.12.023 2.24-.01 3.36a1.374 1.374 0 0 1-1.069 1.452c-.85.195-1.25-.437-1.39-1.058a26.956 26.956 0 0 1-.165-7.78 1.164 1.164 0 0 1 1.186-1.005 1.208 1.208 0 0 1 1.374 1.116c.106 1.297.03 2.61.03 3.915Z"></path>
  <path fill="#b1693a" d="M245.266 393.197c-.001-1.204-.006-2.408 0-3.611.004-.687.117-1.322.97-1.42.849-.096 1.63.272 1.684 1.081.178 2.662.531 5.362-.557 7.94a1.218 1.218 0 0 1-1.282.862c-.72-.081-.802-.67-.81-1.24-.015-1.204-.004-2.408-.005-3.612Z"></path>
  <path fill="#b26a3a" d="M209.454 393.002c0-1.025-.07-2.057.024-3.074a1.32 1.32 0 0 1 2.63.049 26.5 26.5 0 0 1-.1 6.133c-.126.69-.442 1.534-1.45 1.365-.9-.15-1.137-.875-1.155-1.674-.02-.932-.005-1.866-.005-2.799ZM300.22 393.128c0-1.023-.047-2.048.015-3.067a1.276 1.276 0 0 1 1.22-1.294c.685-.061 1.03.449 1.183.982a14.929 14.929 0 0 1 .135 6.337 1.438 1.438 0 0 1-1.578 1.288c-.933-.14-.997-.973-1.013-1.735-.017-.837-.004-1.674-.004-2.511Z"></path>
  <path fill="#94552a" d="M235.676 394.65a1.254 1.254 0 0 1-1.27 1.181c-.899-.014-1.225-.747-1.27-1.488-.047-.771.553-1.15 1.247-1.127a1.266 1.266 0 0 1 1.293 1.433Z"></path>
  <path fill="#8e5026" d="M257.553 393.747c-.016.879-.36 1.385-1.088 1.53-.825.164-1.22-.39-1.324-1.067-.125-.822.216-1.507 1.141-1.538a1.271 1.271 0 0 1 1.27 1.075Z"></path>
  <path fill="#915228" d="M299.437 393.604a1.373 1.373 0 0 1-1.1 1.39 1.098 1.098 0 0 1-1.412-.951 1.166 1.166 0 0 1 1.046-1.38 1.194 1.194 0 0 1 1.466.94Z"></path>
  <path fill="#96562b" d="M277.59 395.61a1.396 1.396 0 0 1-1.313-1.245 1.03 1.03 0 0 1 .984-1.14 1.112 1.112 0 0 1 1.428.966c.093.75-.475 1.146-1.098 1.419Z"></path>
  <path fill="#8d4f26" d="M215.538 393.785c-.091.645-.431 1.035-1.109.908a1.135 1.135 0 0 1-1.025-1.376c.11-.69.698-.802 1.273-.725.666.088.883.571.861 1.193Z"></path>
  <path fill="#b06839" d="m254.804 499.04-.004 2.264a3.856 3.856 0 0 1-.016 2.793l-19.022.007c-.745 0-1.496-.044-2.236.025-2.837.264-2.835.278-2.842-2.714-.008-3.725-.192-3.476 3.498-3.476q8.672.002 17.344-.003a5.689 5.689 0 0 1 3.25.566q.213.169.154.352-.06.186-.126.186Z"></path>
  <path fill="#af6739" d="M254.798 469.346c-.107 5.095.622 4.449-4.444 4.476-5.582.03-11.165.017-16.747-.002-.986-.004-2.236.308-2.68-.924a5.903 5.903 0 0 1 0-4.095c.34-.868 1.544-1.044 2.437-1.064 3.534-.08 7.118-.407 10.592.055 3.628.482 7.223.285 10.83.438a.742.742 0 0 1 .012 1.116Z"></path>
  <path fill="#b06839" d="M254.788 494.008c-.266 2.178-.266 2.227-2.191 2.234q-9.92.035-19.841-.004c-1.94-.01-1.993-.125-2.068-2.086-.021-.558.031-1.12-.006-1.676-.087-1.3.475-1.838 1.794-1.832 6.8.029 13.6.053 20.4-.022 1.768-.02 2.01.893 1.91 2.268a.738.738 0 0 1 .002 1.118ZM254.795 477.754l.002 2.25a.731.731 0 0 1-.024 1.113c-7.157.002-14.313.017-21.47-.014-.857-.004-2.126.458-2.423-.72a5.48 5.48 0 0 1 .28-4.31c.314-.519.941-.543 1.507-.544q10.456-.004 20.912-.002a1.484 1.484 0 0 1 1.219.553 1.185 1.185 0 0 1-.003 1.674ZM254.8 485.598l-.01 2.81-.002.003a5.281 5.281 0 0 1-2.691.559c-6.326-.018-12.651.007-18.977-.014-2.405-.008-2.407-.046-2.435-2.559-.005-.465.024-.93.002-1.395-.058-1.191.52-1.674 1.683-1.647 1.487.034 2.976.003 4.465.003 5.116 0 10.233-.014 15.349.012.892.005 1.887-.304 2.612.556a1.186 1.186 0 0 1 .005 1.672ZM257.043 468.243c7.098-.005 14.196-.022 21.294-.002.888.002 2.108-.417 2.55.583a5.77 5.77 0 0 1 .039 3.847c-.176.63-.882.593-1.438.598-6.612.07-13.201.898-19.825.564-2.287-.115-3.166-1.386-2.66-3.935a.304.304 0 0 1-.215-.43 1.438 1.438 0 0 0 .038-.771.411.411 0 0 1 .217-.454ZM257.014 452.547l.016-2.248a1.192 1.192 0 0 1-.032-1.667c.128-.96.782-1.134 1.61-1.132 6.709.01 13.417.021 20.125-.009 1.285-.006 1.932.456 1.834 1.79-.027.37.01.745-.002 1.117-.06 1.993-.109 2.078-2.026 2.13-1.77.047-3.54.01-5.31.012l-16.212.01ZM254.798 450.29c-.277 2.184-.277 2.233-2.2 2.24q-9.518.035-19.035 0c-2.228-.01-2.274-.099-2.312-2.131-.046-2.399.254-2.865 2.319-2.88 6.438-.045 12.876.003 19.315-.034 1.24-.007 2.01.3 1.912 1.696a.742.742 0 0 1 .001 1.11ZM257.022 454.774q10.618 0 21.236.004c2.762.004 3.298.662 2.843 3.266-.134.77-.487 1.165-1.256 1.195-.186.008-.372.02-.558.02q-10.338.002-20.677.007c-.826 0-1.485-.164-1.605-1.131a1.319 1.319 0 0 1-.484-.764 2.324 2.324 0 0 1-.07-.612l.023-.307-.007-1.11.048-.209a.902.902 0 0 1 .299-.306ZM257.054 461.536c7.155-.011 14.31-.035 21.466-.029 2.54.002 2.673.232 2.624 2.67-.027 1.296-.492 1.853-1.808 1.824-2.229-.05-4.46-.011-6.69-.012q-7.806 0-15.612-.003c-1.015-1.488-1.66-2.974.02-4.45Z"></path>
  <path fill="#b06839" d="M254.767 465.983c-7.063.002-14.127.045-21.189-.048-.85-.011-2.519.943-2.568-.986-.08-3.081.29-3.438 2.856-3.442 6.97-.011 13.94.004 20.91.01a3.415 3.415 0 0 1-.01 4.466ZM254.792 458.139c-.114.977-.783 1.127-1.606 1.126-6.713-.008-13.426-.03-20.138.017-1.579.012-1.833-.801-1.818-2.107.025-2.072.122-2.365 1.793-2.376 6.62-.044 13.24.025 19.858-.05 1.776-.021 2 .912 1.913 2.277a.74.74 0 0 1-.002 1.113ZM257.019 441.328c6.983.001 13.966-.017 20.949.013 2.263.01 2.706.625 2.61 2.883-.053 1.229-.62 1.636-1.747 1.592-.837-.032-1.676-.001-2.514-.002l-19.273-.02a1.52 1.52 0 0 1-.51-.698 6.354 6.354 0 0 1-.189-2.182 2.284 2.284 0 0 1 .674-1.586ZM254.774 445.801q-10.183.006-20.367.01c-.465 0-.93.015-1.394-.012-.969-.057-1.634-.366-1.326-1.554a5.391 5.391 0 0 0 .12-1.383c-.008-1.027.435-1.562 1.501-1.53.65.02 1.302-.006 1.953-.006l19.53.002a2.33 2.33 0 0 1 .671 1.586 6.31 6.31 0 0 1-.173 2.187 1.491 1.491 0 0 1-.515.7ZM257.022 435.72a5.274 5.274 0 0 1 2.694-.558c5.492.019 10.986.084 16.476-.032 2.12-.045 2.727.79 3.155 2.404a1.09 1.09 0 0 1-1.089 1.534c-.557.03-1.117.025-1.675.024q-9.775-.004-19.55-.012c-.895-1.117-1.645-2.235-.01-3.36Z"></path>
  <path fill="#af6839" d="m257.03 429.01 11.98-.01a11.713 11.713 0 0 1 1.392.007c1.163.14 2.28-.796 3.498.002a9.816 9.816 0 0 1 3.1 3.777c-.326.918-1.072.68-1.669.683q-8.08.03-16.159.008c-.885-.002-1.959.264-2.151-1.116-.854-1.12-1.656-2.239.01-3.351Z"></path>
  <path fill="#b06839" d="M254.793 432.36c-.147 1.188-1.036 1.124-1.89 1.124h-17.65a4.933 4.933 0 0 1 4.676-4.469c4.95-.036 9.9-.008 14.849-.006a2.378 2.378 0 0 1 .015 3.351ZM254.77 439.073H232.7c.421-3.242.485-3.323 3.124-3.346 2.705-.024 5.41-.032 8.115.001a58.191 58.191 0 0 0 10.282-.56l.437.151a1.66 1.66 0 0 1 .569.717 2.857 2.857 0 0 1-.458 3.037Z"></path>
  <path fill="#af6738" d="M254.773 427.309h-12.94c3.748-3.75 8.044-4.823 12.939-3.343a1.888 1.888 0 0 1 .628 1.465 2.901 2.901 0 0 1-.325 1.597c-.1.094-.2.188-.302.28Z"></path>
  <path fill="#af6739" d="M257.023 423.958c2.488-1.083 5.12-.784 7.58-.265 1.895.4 3.603 1.689 5.343 2.849-4.375-.214-8.6.898-12.905.762-.1-.094-.198-.188-.3-.281a3.244 3.244 0 0 1-.294-2.005 1.805 1.805 0 0 1 .576-1.06Z"></path>
  <path fill="#8e4f26" d="m254.77 439.073.01-3.341c-.196-.178-.344-.405-.558-.566l-.001.001a1.432 1.432 0 0 1 .125-.248c.444-.577.833-1.39 1.685-1.22 1.067.211.977 1.186.991 2.02-.877 1.124.184 2.24.012 3.361-1.132 1.349-1.132 1.349-2.265-.007ZM254.767 465.983l.009-4.467c.052-.69.237-1.406 1.004-1.479.985-.093 1.165.724 1.274 1.5-.86 1.479.16 2.967-.02 4.449a1.855 1.855 0 0 1-2.267-.003Z"></path>
  <path fill="#8d4e25" d="m254.793 432.36-.015-3.351-.005-1.7.001.002c.752-1.132 1.508-1.121 2.266-.006a1.587 1.587 0 0 1-.01 1.704c-.906 1.115.228 2.236-.01 3.352a1.787 1.787 0 0 1-2.227 0Z"></path>
  <path fill="#8c4e25" d="M254.784 504.097a2.301 2.301 0 0 1 .015-2.793c.97-.011 2.029.031 2.11 1.265.093 1.447-1.051 1.518-2.125 1.528Z"></path>
  <path fill="#894b23" d="M254.793 508.575q-.019-.27-.024-.542a.844.844 0 0 1-.003-1.149l.005-.544c.362.008.725.009 1.086.025a1.02 1.02 0 0 1 1.104 1.22c-.043.669-.475.927-1.082.965-.36.023-.724.018-1.086.025Z"></path>
  <path fill="#8b4d25" d="m254.795 477.754.002-1.674c.654-.306 1.321-.76 1.917.082a1.221 1.221 0 0 1-.001 1.514c-.598.84-1.265.382-1.918.078Z"></path>
  <path fill="#8b4d24" d="m254.8 485.598-.004-1.672c.653-.304 1.32-.762 1.917.078a1.22 1.22 0 0 1 .002 1.513c-.595.841-1.262.391-1.914.081ZM254.79 488.408c.424-.136.797-.528 1.279-.37a1.185 1.185 0 0 1 .85 1.495 1.048 1.048 0 0 1-.897.908c-.647.072-1-.373-1.144-.943a6.24 6.24 0 0 1-.09-1.087Z"></path>
  <path fill="#884b23" d="M254.804 499.04q-.016-.27-.028-.538c.043-.538-.076-1.19.497-1.477.602-.3 1.289-.334 1.602.455.215.542.174 1.166-.448 1.392a6.48 6.48 0 0 1-1.623.168Z"></path>
  <path fill="#8a4c24" d="M254.774 445.801q.015-.27.022-.541c.739-1.16 1.477-1.175 2.213.002q.013.266.035.532c-.098.78-.29 1.585-1.27 1.487-.763-.076-.946-.793-1-1.48Z"></path>
  <path fill="#8b4d24" d="m254.794 443.006-.004-1.678a1.817 1.817 0 0 1 2.229 0l-.008 1.675c-.738 1.176-1.477 1.156-2.217.003Z"></path>
  <path fill="#884b23" d="M257.017 452.55c.006.741.588 1.481.005 2.224l-.001.003a6.74 6.74 0 0 0-.555.564 1.44 1.44 0 0 1-.247-.123c-.578-.443-1.388-.832-1.221-1.684.21-1.07 1.182-.977 2.016-.987Z"></path>
  <path fill="#8a4c23" d="M257.036 469.36q-.004.27-.032.538a3.432 3.432 0 0 1-2.206-.552l-.012-1.116c.754-.3 1.51-1.014 2.257.013v.532a.37.37 0 0 1 .126.392q-.067.194-.133.194Z"></path>
  <path fill="#894b23" d="m257.023 423.958-.002 1.117c-.555.929-1.246 1.312-2.22.552l-.029-1.662c.747-1.024 1.5-.305 2.251-.007Z"></path>
  <path fill="#8b4d24" d="m254.773 481.117.023-1.114a5.888 5.888 0 0 1 .992-.43c.804-.189 1.2.201 1.195.998-.005.804-.42 1.169-1.216.97a6.538 6.538 0 0 1-.994-.424Z"></path>
  <path fill="#8a4c24" d="M254.788 494.008q0-.56-.002-1.118a6.186 6.186 0 0 1 .992-.425c.799-.193 1.203.183 1.204.983 0 .798-.402 1.178-1.202.986a6.137 6.137 0 0 1-.992-.426Z"></path>
  <path fill="#894b23" d="m254.798 450.29-.001-1.109a3.406 3.406 0 0 1 2.201-.549l.032 1.667a1.79 1.79 0 0 1-2.232-.008Z"></path>
  <path fill="#8a4c24" d="M257.007 421.145a1.71 1.71 0 0 1-2.201-.001q-.23-.177-.162-.364.07-.19.143-.19c.502-1.184 1.309-1.133 2.246-.555a.737.737 0 0 1-.026 1.11Z"></path>
  <path fill="#894c23" d="m254.792 458.139.002-1.113a3.733 3.733 0 0 1 1.68-.574l-.002.003c.162.207.355.385.536.575l-.003 1.105a1.746 1.746 0 0 1-2.213.004Z"></path>
  <path fill="#ab6436" d="m257.007 421.145.026-1.11 2.722 1.439c-1.272.294-2.068.498-2.748-.329Z"></path>
  <path fill="#ac6537" d="M254.787 420.59q.003.277.018.554c-.443.667-1.065.581-1.96.479a2.454 2.454 0 0 1 1.942-1.033Z"></path>
  <path fill="#cb834c" d="M220.044 411.075c.692-.354.457-1.355 1.32-1.685 2.96-1.133 3.66-3.431 2.97-6.271.65-.746 1.443-.444 2.135-.446q12.576-.039 25.152-.01c.892.003 1.89-.312 2.612.56a50.32 50.32 0 0 1-10.675 4.058 34.017 34.017 0 0 0-12.554 6.438c-5.05 4.08-8.086 9.379-10.466 15.21-.136.334-.241.72-1.14.649.801-6.143.637-12.324.646-18.503ZM257.607 403.214c.454-.627 1.13-.562 1.779-.561q13.59.006 27.178.024a3.435 3.435 0 0 1 .738.15c.613.571.109 1.089.061 1.603-.198 2.154.451 3.712 2.53 4.478 1.722.633 1.96 1.655 1.899 3.176-.074 1.865-.013 3.735-.01 5.603a2.037 2.037 0 0 0 .541 1.799v10.552c-2.086-3.874-3.491-7.513-5.845-10.628a32.865 32.865 0 0 0-13.42-10.61c-3.352-1.447-6.972-1.968-10.337-3.347-1.725-.707-3.465-1.366-5.114-2.24Z"></path>
  <path fill="#b06535" d="M254.785 403.222a1.35 1.35 0 0 1 2.24-.001l-2.24.001ZM219.477 408.826l.557.56-.557-.56Z"></path>
  <path fill="#99572c" d="m254.766 506.885.003 1.148c-.555-.381-.553-.764-.003-1.149Z"></path>
  <path fill="#b06839" d="M382.447 450.862a53.148 53.148 0 0 1-9.4-.502c-1.315-.252-1.782-.72-1.693-1.952.027-.37-.01-.743.004-1.115.067-1.924.515-2.43 2.471-2.571a11.61 11.61 0 0 1 3.336.02c3.494.792 7.022.388 10.534.513.911.032 2.038-.201 2.44.87a5.118 5.118 0 0 1-.097 4.054c-.363.755-1.25.682-1.998.683h-5.597ZM411.137 377.01v8.111c0 .56.017 1.12-.012 1.678-.058 1.126-.51 2.162-1.712 2.149-1-.011-1.496-.94-1.626-1.963-.47-3.682-.884-7.318-.132-11.066.45-2.243.106-4.645.122-6.975.005-.746-.013-1.494.04-2.236a1.648 1.648 0 0 1 3.286-.046c.064.928.042 1.863.044 2.795q.007 3.776.002 7.552ZM369.18 375.094a19.963 19.963 0 0 1 .02-2.478c.127-1.013.891-1.32 1.827-1.33a1.271 1.271 0 0 1 1.462 1.283 25.246 25.246 0 0 1 .563 4.963c-.267 4.838.472 9.626.827 14.433.078 1.05-.004 2.031-1.133 2.134-1.086.098-1.84-.547-1.972-1.848-.39-3.866-1.098-7.702-1.102-11.603-.002-1.862-.94-3.625-.492-5.554Z"></path>
  <path fill="#b16939" d="M390.393 378.282c.112 2.957-.272 5.939.533 8.865a5.827 5.827 0 0 1 .029 1.945c-.074.936.399 2.195-1.218 2.334-1.275.11-1.886-.605-2.124-2.346-.782-5.725-.542-11.481-.561-17.23a2.212 2.212 0 0 1 .536-1.808 1.69 1.69 0 0 1 1.829-.287 1.53 1.53 0 0 1 .97 1.552c.012 2.325.004 4.65.006 6.975Z"></path>
  <path fill="#c37543" d="M401.853 491.749c-.591-.006-1.178-.102-1.237-.818a1.202 1.202 0 0 1 .913-1.25 1.97 1.97 0 0 1 .817-.134c2.897.293 5.688-.717 8.59-.646a40.663 40.663 0 0 0 6.318-.763c.365-.05.717-.235 1.08-.248.623-.024 1.429-.211 1.608.662.19.924-.449 1.351-1.268 1.48-1.189.188-2.39.103-3.6.285-4.383.658-8.848.622-13.22 1.432ZM410.808 398.737c1.772 0 3.546-.045 5.316.021.754.029 2.052-.414 2.064.748.015 1.403-1.377.853-2.191.889-1.77.077-3.544-.004-5.316.03-2.223.043-4.46-.224-6.654.482-.643.207-1.65.268-1.711-.824-.05-.9.676-1.3 1.497-1.311 2.331-.033 4.663-.012 6.995-.012Z"></path>
  <path fill="#c37643" d="M413.712 462.663c-1.34-.11-2.372.141-3.348-.243a.896.896 0 0 1-.623-.818.528.528 0 0 1 .49-.56c1.989-.313 3.948-.92 6-.64.668.091 1.354.236 1.344 1.064-.007.667-.685.88-1.18.966a25.267 25.267 0 0 1-2.683.231Z"></path>
  <path fill="#b06839" d="M356.211 383.526c.163 2.49-.305 5.189.505 7.838a8.61 8.61 0 0 1 .058 2.497c-.007.862-.073 1.882-1.176 1.84-1.024-.04-2.16-.589-2.097-1.813.1-1.982-.654-3.83-.645-5.78.015-3.158.003-6.315.003-9.473a10.284 10.284 0 0 1 .015-1.114c.12-1.1.574-2.14 1.788-2.058a1.849 1.849 0 0 1 1.54 2.03c.032 1.95.01 3.9.01 6.033Z"></path>
  <path fill="#b16939" d="M341.657 390.115c0-2.54-.025-4.493.012-6.443.015-.775.241-1.585 1.232-1.491.776.074.934.798.977 1.476.024.37.018.743.015 1.115a92.56 92.56 0 0 0 1.076 14.355 6.173 6.173 0 0 1-.003 1.39.948.948 0 0 1-.85.942 1.21 1.21 0 0 1-1.239-.445 3.553 3.553 0 0 1-.663-1.803c-.307-3.222-.852-6.429-.557-9.096ZM336.063 401.356c-.061 1.239.215 2.49-.923 2.702-1.34.25-1.779-1.184-1.76-2.041.096-4.276-.893-8.483-.683-12.754.034-.677.204-1.4.983-1.473.997-.092 1.225.725 1.218 1.495-.024 2.783.962 5.494.584 8.294-.193 1.43.683 2.7.581 3.777Z"></path>
  <path fill="#b06839" d="M213.393 342.128c-1.957 0-3.917.07-5.87-.019-2.406-.11-3.138-.894-3.17-3.253-.034-2.609.01-5.218-.02-7.827-.015-1.412-.036-2.746 1.147-3.854.834-.78.545-1.863.306-2.895-.764-3.307-.008-4.81 3.043-6.25 4.304-2.031 8.829-1.356 11.533 1.73a3.831 3.831 0 0 1 1.057 4.064c-.548 1.622-.597 3.3.873 4.64a2.585 2.585 0 0 1 .541 2.1c-.003 2.516.049 5.033-.017 7.547-.077 2.91-1.22 3.98-4.112 4.023h-5.311ZM234.876 342.133c-1.864 0-3.728.037-5.59-.009-2.941-.073-3.619-.764-3.641-3.64-.019-2.423.009-4.846-.013-7.269-.013-1.496-.07-2.927 1.194-4.12.821-.774.469-1.876.226-2.903-.738-3.125.035-4.68 2.904-6.083 4.278-2.09 8.813-1.495 11.573 1.516 1.127 1.228 1.777 2.491 1.161 4.289a3.87 3.87 0 0 0 .781 4.404 2.576 2.576 0 0 1 .661 2.06c-.01 2.608.055 5.219-.023 7.826-.086 2.861-1.25 3.9-4.202 3.928-1.677.015-3.354.002-5.031.001ZM256.05 342.134c-1.77 0-3.54.028-5.31-.007-3.123-.062-3.78-.723-3.8-3.765-.015-2.236 0-4.473-.007-6.709-.006-1.665-.176-3.314 1.26-4.657.725-.678.417-1.722.207-2.655-.78-3.461-.025-4.926 3.217-6.398 4.117-1.869 8.414-1.257 11.099 1.567 1.225 1.289 1.9 2.609 1.238 4.521a3.823 3.823 0 0 0 .889 4.383 2.246 2.246 0 0 1 .582 1.805c-.008 2.702.066 5.407-.025 8.106-.092 2.72-1.274 3.772-4.038 3.805-1.77.021-3.54.004-5.311.004ZM297.49 342.133c-1.863-.001-3.728.046-5.59-.012-2.762-.087-3.462-.81-3.486-3.51-.023-2.516.008-5.032-.015-7.547-.012-1.406-.075-2.753 1.125-3.86.84-.775.574-1.858.338-2.892-.78-3.417.006-4.916 3.255-6.381 4.222-1.905 8.63-1.204 11.285 1.804a3.826 3.826 0 0 1 1.09 4.056c-.544 1.622-.624 3.3.843 4.647a2.58 2.58 0 0 1 .562 2.092c-.004 2.516.046 5.033-.017 7.547-.073 2.938-1.198 4.01-4.079 4.057H297.491ZM276.29 342.133c-1.957-.002-3.916.06-5.87-.018-2.543-.1-3.273-.885-3.301-3.41-.027-2.422.004-4.845-.014-7.267-.012-1.583-.143-3.132 1.228-4.387.744-.682.465-1.717.262-2.65-.783-3.59-.003-5.072 3.392-6.55 4.02-1.75 8.229-1.121 10.858 1.615 1.224 1.273 1.968 2.58 1.3 4.503a3.854 3.854 0 0 0 .834 4.394 2.566 2.566 0 0 1 .624 2.072c-.01 2.515.038 5.032-.017 7.547-.067 3.082-1.17 4.124-4.264 4.15-1.677.014-3.355.002-5.032 0Z"></path>
  <path fill="#99592e" d="M267.617 325.553c-.153.895-.594 1.426-1.483 1.346a1.297 1.297 0 0 1 .01-2.58c.91-.085 1.299.496 1.473 1.234Z"></path>
  <path fill="#9a592d" d="M224.376 326.912a1.275 1.275 0 0 1-1.437-1.313 1.195 1.195 0 0 1 1.169-1.289 1.226 1.226 0 0 1 1.436 1.292 1.265 1.265 0 0 1-1.168 1.31Z"></path>
  <path fill="#925328" d="M246.312 325.702c-.101.59-.38 1.103-1.038 1.104-.801 0-1.133-.552-1.11-1.303a.901.901 0 0 1 .828-.966 1.188 1.188 0 0 1 1.32 1.165Z"></path>
  <path fill="#8f5027" d="M286.856 326.461c-.862-.065-1.268-.373-1.172-1.07a1.003 1.003 0 0 1 1.098-.993 1.042 1.042 0 0 1 .978 1.128c.02.75-.555.836-.904.935Z"></path>
  <path fill="#b1693a" d="M397.682 324.48c0 1.49.008 2.98-.004 4.468-.007.892-.19 1.76-1.258 1.855-.965.086-1.294-.796-1.378-1.477-.395-3.214-.973-6.422-.689-9.687a2.324 2.324 0 0 1 .713-1.468c.94-.957 1.793-.77 2.35.484a5.288 5.288 0 0 1 .267 2.196c.01 1.21.003 2.42.003 3.63Z"></path>
  <path fill="#b16939" d="M410.553 320.374c0 1.484.026 2.968-.01 4.452-.02.823-.416 1.48-1.306 1.514-.885.035-1.339-.565-1.415-1.4-.286-3.124-.863-6.228-.611-9.391.082-1.03.337-1.85 1.521-1.945 1.246-.1 1.664.868 1.742 1.766.143 1.657.04 3.334.04 5.003Z"></path>
  <path fill="#b1693a" d="M370.214 335.343c.001 1.082-.082 1.98-1.127 2.16-1.149.196-1.424-.832-1.549-1.584a40.583 40.583 0 0 1-.665-9.368c.045-.679.182-1.375.925-1.533.89-.19 1.312.543 1.662 1.19a2.613 2.613 0 0 1 .196 1.078c.142 2.76-.361 5.56.558 8.057ZM380.298 334.114a2.65 2.65 0 0 1-1.613-2.62c-.22-2.588.246-5.22-.546-7.78a1.33 1.33 0 0 1 .626-1.458c.45-.308.933-.692 1.521-.393a1.228 1.228 0 0 1 .575 1.196c.014 1.96.09 3.926-.004 5.882-.059 1.212.473 2.388.114 3.6-.15.508-.012 1.126-.673 1.573Z"></path>
  <path fill="#96562b" d="M408.175 310.791a.964.964 0 0 1-1.151.872.863.863 0 0 1-.749-.982.952.952 0 0 1 1.9.11Z"></path>
  <path fill="#8f5027" d="M394.835 313.274c-.082.361-.205.687-.645.735a.718.718 0 0 1-.889-.739.677.677 0 0 1 .629-.736c.553-.064.815.234.905.74ZM376.058 318.108a.708.708 0 0 1 .84.781.58.58 0 0 1-.67.64.837.837 0 0 1-.732-.694.574.574 0 0 1 .562-.727Z"></path>
  <path fill="#b16939" d="M101.787 320.247v-4.48c-.002-1.12.224-2.109 1.6-2.16 1.348-.049 1.7.823 1.765 2 .17 3.086-.795 6.082-.688 9.163a2.252 2.252 0 0 1-.456 1.006 1.201 1.201 0 0 1-1.441.552.982.982 0 0 1-.75-1.042c-.02-1.68-.008-3.36-.008-5.04Z"></path>
  <path fill="#b06839" d="M114.687 324.267c0-1.764-.004-3.527.002-5.29.002-.687.116-1.326.971-1.424.852-.098 1.667.285 1.681 1.083.068 3.685.672 7.405-.464 11.04a1.807 1.807 0 0 1-.092.261 1.26 1.26 0 0 1-1.287.864c-.724-.081-.802-.674-.807-1.244-.013-1.763-.005-3.527-.004-5.29Z"></path>
  <path fill="#b1693a" d="M145.506 328.37c-.947 2.23-.2 5.124-1.128 7.804-.27.78-.581 1.47-1.48 1.332-.849-.13-.705-.945-.762-1.582-.29-3.268.775-6.45.62-9.712a1.132 1.132 0 0 1 .94-1.216c.652-.124 1.005.38 1.363.798.536.626.42 1.398.447 2.576Z"></path>
  <path fill="#b16939" d="M133.726 325.366c.21 2.49-.822 4.813-.592 7.252.063.662-.22 1.389-1.021 1.412-1 .03-1.133-.804-1.16-1.567a10.906 10.906 0 0 1 .04-3.059 24.783 24.783 0 0 0 .499-6.082c.007-.67.066-1.471.854-1.534a1.264 1.264 0 0 1 1.379 1.408c.01.744.001 1.489.001 2.17Z"></path>
  <path fill="#935429" d="M146.44 322.163a.858.858 0 0 1-.872-.88.732.732 0 0 1 .532-.857.723.723 0 0 1 1 .652.928.928 0 0 1-.66 1.085Z"></path>
  <path fill="#98582c" d="M136.307 318.28a.904.904 0 0 1-1.035.697c-.468-.096-.87-.427-.71-.988.163-.568.678-.534 1.143-.48a.645.645 0 0 1 .602.772Z"></path>
  <path fill="#915328" d="M119.063 313.494a.746.746 0 0 1-1.114.46.679.679 0 0 1-.326-.91.722.722 0 0 1 1.084-.399.685.685 0 0 1 .356.849Z"></path>
  <path fill="#95552a" d="M105.472 310.76a.767.767 0 0 1-.543.853.54.54 0 0 1-.807-.452.657.657 0 0 1 .5-.847.61.61 0 0 1 .85.446Z"></path>
  <path fill="#b26a3a" d="M42.96 319.981c-.109 1.474.196 2.973-.2 4.422-.195.709-.508 1.415-1.457 1.433a1.412 1.412 0 0 1-1.493-1.364c-.256-3.213-.592-6.441.21-9.635.165-.66.403-1.237 1.244-1.232.939.006 1.3.684 1.488 1.4.427 1.634.084 3.317.209 4.976Z"></path>
  <path fill="#b1693a" d="M88.334 319.926c0 1.586.016 3.172-.007 4.757-.01.677-.176 1.362-.956 1.51-.821.157-1.128-.523-1.374-1.124a4.597 4.597 0 0 1-.427-1.597c-.043-2.798-.025-5.596-.024-8.394 0-1.008.207-1.999 1.441-1.96 1.229.038 1.36 1.064 1.36 2.052q.005 2.378.001 4.756ZM71.523 319.456c0-1.484-.006-2.969.003-4.453.003-.571.067-1.171.74-1.323a1.516 1.516 0 0 1 1.434.677 1.82 1.82 0 0 1 .582 1.227c-.024 3.138.38 6.298-.52 9.391-.193.666-.408 1.311-1.22 1.22-.787-.09-.992-.776-1.003-1.451-.028-1.762-.01-3.525-.01-5.288Z"></path>
  <path fill="#b26a3a" d="M57.447 317.333c.118 2.043-.7 3.99-.572 6.051a1.212 1.212 0 0 1-1.223 1.274 1.258 1.258 0 0 1-1.433-1.347c-.019-2.677-.372-5.374.233-8.022.125-.55.077-1.527.943-1.483a2.013 2.013 0 0 1 2.03 1.587 10.182 10.182 0 0 1 .022 1.94Z"></path>
  <path fill="#9b5b2e" d="M74.772 311.314a.868.868 0 0 1-.783.88c-.546.07-.76-.343-.769-.84-.008-.48.14-.938.692-.927a.881.881 0 0 1 .86.887Z"></path>
  <path fill="#915228" d="M41.795 311.084a.59.59 0 0 1-.712.58.64.64 0 0 1-.576-.743.67.67 0 0 1 .75-.589c.465.014.511.391.538.752Z"></path>
  <path fill="#96562b" d="M56.804 310.812a.486.486 0 0 1 .43.464c.01.504-.365.586-.756.513-.281-.053-.53-.235-.426-.578.086-.28.325-.414.752-.399Z"></path>
  <path fill="#ad6232" d="m89.51 310.129-1.184.048c.372-.574.768-.55 1.184-.048Z"></path>
  <path fill="#b1693a" d="M438.042 319.866c0-1.494-.014-2.988.006-4.482.012-.935.376-1.737 1.415-1.724 1.047.012 1.365.84 1.369 1.766q.015 4.342-.008 8.683a2.86 2.86 0 0 1-.235 1.082c-.256.595-.524 1.265-1.375 1.115a1.322 1.322 0 0 1-1.124-1.4c-.037-1.68-.012-3.36-.012-5.04Z"></path>
  <path fill="#b06839" d="M472.205 319.803c0 1.488.026 2.976-.01 4.463a1.361 1.361 0 0 1-1.318 1.512 1.293 1.293 0 0 1-1.401-1.407 416.95 416.95 0 0 1-.02-9.204 1.345 1.345 0 0 1 1.32-1.508c1.06-.02 1.42.75 1.436 1.68.026 1.488.007 2.976.007 4.464ZM457.647 319.635c0 1.295.013 2.591-.005 3.886-.008.606-.246 1.084-.928 1.163a1.06 1.06 0 0 1-1.276-.788 9.484 9.484 0 0 1-.541-2.133c-.082-1.848-.033-3.7-.046-5.552a2.352 2.352 0 0 1 .585-1.791c.393-.399.8-.839 1.423-.594a1.18 1.18 0 0 1 .743 1.091c.031 1.572.012 3.145.012 4.718Z"></path>
  <path fill="#9b5a2e" d="M459.15 310.655a.894.894 0 0 1-.753.98c-.76.115-1.184-.355-1.223-1.09a.744.744 0 0 1 .833-.83 1.115 1.115 0 0 1 1.142.94Z"></path>
  <path fill="#8c4f26" d="m424.044 311.295-.55-1.077a1.158 1.158 0 0 1 .558-.542l.574-.092c.429.205.881.49.754 1.001-.158.633-.754.724-1.336.71Z"></path>
  <path fill="#8f5127" d="M439.678 311.74c-.405-.071-.757-.312-.733-.703a.751.751 0 0 1 .975-.712.681.681 0 0 1 .577.81.742.742 0 0 1-.819.604Z"></path>
  <path fill="#905128" d="M473.298 311.12c-.056.45-.34.672-.748.539a.857.857 0 0 1-.513-.558.643.643 0 0 1 .65-.72c.441-.017.598.333.61.74Z"></path>
  <path fill="#b16939" d="M355.111 332.366c0-.38-.027-.845.007-1.307.055-.764.176-1.59 1.17-1.559.799.026 1.063.744 1.02 1.413-.18 2.793.386 5.526.572 8.288.046.686.201 1.651-.917 1.667a1.26 1.26 0 0 1-1.26-1.521c.235-2.347-.774-4.568-.591-6.981ZM347.27 335.508a1.392 1.392 0 0 1 .846-1.522c.789-.247 1.124.415 1.44 1a4.73 4.73 0 0 1 .509 2.139c.075 2.117-.29 4.262.47 6.343a.926.926 0 0 1-.635 1.322 1.138 1.138 0 0 1-1.416-1.007c-.448-2.725-.81-5.464-1.214-8.275Z"></path>
  <path fill="#b16839" d="M338.9 344.144c0-1.483-.01-2.965.008-4.447a.774.774 0 0 1 .664-.773.88.88 0 0 1 .924.46 3.318 3.318 0 0 1 .584 1.826c-.002 2.225.012 4.45 0 6.676-.005.848-.042 1.876-1.174 1.816-1.105-.058-1.039-1.115-1.054-1.942-.022-1.205-.006-2.41-.006-3.616Z"></path>
  <path fill="#b1693a" d="M334.355 349.133c0 1.12.007 2.239-.002 3.358-.005.58-.09 1.203-.787 1.277a1.235 1.235 0 0 1-1.359-1.135 7.082 7.082 0 0 1-.08-1.393c-.008-1.772-.04-3.546.01-5.317.028-.953-.31-2.433 1.168-2.355 1.368.07 1.007 1.521 1.05 2.487.043 1.024.01 2.052.01 3.078Z"></path>
  <path fill="#945429" d="M338.644 336.631a.858.858 0 0 1-.66.797.552.552 0 0 1-.736-.575c-.004-.4.163-.74.613-.777.387-.03.746.055.783.555ZM333.574 340.546c-.101.374-.435.462-.832.355a.664.664 0 0 1-.505-.849.535.535 0 0 1 .809-.447.783.783 0 0 1 .528.941Z"></path>
  <path fill="#935429" d="M347.671 331.978c-.387.001-.772-.054-.782-.542a.665.665 0 0 1 .654-.727c.202 0 .486.267.59.482.2.417-.023.688-.462.787Z"></path>
  <path fill="#8f5026" d="M354.858 327.496a.442.442 0 0 1-.465.534c-.24-.005-.624-.116-.686-.28-.165-.428.146-.667.554-.691a.576.576 0 0 1 .597.437Z"></path>
  <path fill="#b16939" d="M154.477 335.435c0-1.208.014-2.416-.005-3.623a3.326 3.326 0 0 1 .681-2.079.735.735 0 0 1 .973-.27c.213.121.491.39.49.59-.008 3.231.517 6.484-.353 9.681-.144.53-.269 1.203-.991 1.123-.898-.098-.786-.893-.797-1.52-.022-1.3-.007-2.602-.007-3.902Z"></path>
  <path fill="#b16839" d="M171.284 344.212c.002-1.305-.01-2.611.007-3.917.009-.66.02-1.4.954-1.38a1.21 1.21 0 0 1 1.211 1.29c.06 2.516.05 5.034.061 7.551a4.471 4.471 0 0 1-.055.836c-.131.7-.486 1.26-1.264 1.245-.932-.019-.9-.781-.91-1.428-.02-1.399-.006-2.798-.004-4.197Z"></path>
  <path fill="#b16939" d="M164.557 336.817c-.066 2.136-.735 4.208-.656 6.363a2.382 2.382 0 0 1-.43 1.018.898.898 0 0 1-1.126.548.82.82 0 0 1-.554-.873 15.923 15.923 0 0 1 .023-3.35 23.399 23.399 0 0 0 .526-4.974c-.021-.927.356-1.787 1.415-1.667 1.02.115.748 1.11.798 1.816.026.372.004.746.004 1.12Z"></path>
  <path fill="#b26a3a" d="M177.54 349.845c-.453-1.958.546-3.604.486-5.371-.02-.598.195-1.138.937-1.07a1.099 1.099 0 0 1 .993 1.151c-.455 1.77.538 3.445.22 5.161a14.07 14.07 0 0 0-.52 2.99c.019.603-.23 1.106-.958 1.066a1.15 1.15 0 0 1-1.132-1.04c-.097-1.008-.027-2.031-.027-2.887Z"></path>
  <path fill="#915228" d="M166.156 331.875c-.193.53-.49.686-.874.605a.694.694 0 0 1-.566-.982.66.66 0 0 1 .823-.466.718.718 0 0 1 .617.843Z"></path>
  <path fill="#925328" d="M156.949 326.503c.526.094.82.354.753.9a.669.669 0 0 1-.732.614.71.71 0 0 1-.725-.882c.048-.438.38-.544.704-.632Z"></path>
  <path fill="#905127" d="M174.86 336.7a.715.715 0 0 1-.592.795.746.746 0 0 1-.967-.7c-.024-.391.335-.644.734-.68a.764.764 0 0 1 .824.586Z"></path>
  <path fill="#935428" d="M180.88 341.894a.436.436 0 0 1-.53-.457c.004-.236.115-.614.276-.677.424-.165.66.143.686.544a.568.568 0 0 1-.433.59Z"></path>
  <path fill="#ad6232" d="M424.052 309.676q-.28.27-.558.542l-.022-.587a.4.4 0 0 1 .535-.028Z"></path>
  <path fill="#cd854e" d="M424.007 309.603q-.267.025-.535.028c.163-.303.338-.375.535-.028Z"></path>
  <path fill="#894c23" d="m222.827 404.374.007 1.632c-.192.183-.365.382-.54.58l-.012.011a7.522 7.522 0 0 0-.554.549l-.009.003a2.221 2.221 0 0 1-2.24-.008l-.002.003a15.33 15.33 0 0 0-.56-.561 2.232 2.232 0 0 1-.005-2.241l.004-.005a6.878 6.878 0 0 0 .552-.558l.007-.007c.196-.18.397-.356.588-.542l1.084-.003c.3.342.827.226 1.128.564l-.004-.005c.2.182.374.389.556.588Z"></path>
  <path fill="#8a4c24" d="M291.505 407.074a2.068 2.068 0 0 1-1.691-1.892c0-.87.92-1.96 1.683-1.88a2.01 2.01 0 0 1 1.857 1.742c.165.862-.953 2.026-1.849 2.03Z"></path>
  <path fill="#b06535" d="m218.912 404.342.006 2.241a1.354 1.354 0 0 1-.006-2.241Z"></path>
  <path fill="#ad6232" d="m219.479 407.14 2.24.009a1.35 1.35 0 0 1-2.24-.008Z"></path>
  <path fill="#b06535" d="M222.276 403.791a1.23 1.23 0 0 1-1.129-.564 1.128 1.128 0 0 1 1.129.564ZM218.918 406.583l.559.56ZM221.728 407.146l.554-.549-.554.549ZM222.293 406.586l.541-.58-.54.58ZM220.063 403.23l-.588.542.588-.542ZM219.468 403.78l-.552.557ZM222.827 404.374l-.556-.588.556.588Z"></path>
  <path fill="#99572c" d="m257.036 469.36.008-.585q.544.3-.008.586ZM257.008 457.03l-.536-.575ZM256.466 455.341l.555-.564-.555.564Z"></path>
  <path fill="#9c592e" d="M254.794 443.006a1.757 1.757 0 0 0 2.217-.003l-.001 2.259a1.753 1.753 0 0 0-2.214-.002l-.002-2.254Z"></path>
  <path fill="#99572c" d="m254.222 435.166.559.565-.559-.565ZM254.8 425.627a3.524 3.524 0 0 0 2.22-.552l.02 2.23a1.907 1.907 0 0 0-2.266.006l.026-1.684Z"></path>
  <path fill="none" stroke="#b06839" stroke-linecap="round" stroke-linejoin="round" stroke-width="3" d="M0 512h512"></path>
</svg>