<svg version="1.1" id="Layer_1" xmlns="http://www.w3.org/2000/svg" xmlns:xlink="http://www.w3.org/1999/xlink" x="0px" y="0px"
	 width="100%" viewBox="0 0 245 275" enable-background="new 0 0 245 275" xml:space="preserve">
<path fill="#000000" opacity="1.000000" stroke="none" 
	d="
M159.000000,276.000000 
	C106.000000,276.000000 53.500000,276.000000 1.000000,276.000000 
	C1.000000,184.333328 1.000000,92.666664 1.000000,1.000000 
	C82.666664,1.000000 164.333328,1.000000 246.000000,1.000000 
	C246.000000,92.666664 246.000000,184.333328 246.000000,276.000000 
	C217.166672,276.000000 188.333328,276.000000 159.000000,276.000000 
M79.222633,129.221466 
	C84.057640,136.103394 88.892647,142.985321 93.854774,150.048187 
	C91.595215,151.247421 88.685715,152.817993 85.752907,154.343796 
	C69.947128,162.566833 54.108166,170.726608 38.337868,179.017059 
	C30.736685,183.013000 28.712437,189.379654 32.511074,196.990967 
	C36.526203,205.036087 40.699566,213.002090 44.768684,221.020477 
	C49.634079,230.607941 55.430500,232.537125 65.117348,227.711319 
	C93.883636,213.380508 122.801872,199.342743 151.336273,184.564011 
	C163.560394,178.232758 175.731339,171.325439 186.599731,162.956833 
	C204.543671,149.140152 216.303207,130.797836 217.811127,107.621681 
	C220.858414,60.786171 180.510971,23.763046 133.957764,29.886286 
	C88.457603,35.871021 58.195248,85.347755 79.222633,129.221466 
z"/>
<path fill="#34A753" opacity="1.000000" stroke="none" 
	d="
M79.078735,128.873596 
	C58.195248,85.347755 88.457603,35.871021 133.957764,29.886286 
	C180.510971,23.763046 220.858414,60.786171 217.811127,107.621681 
	C216.303207,130.797836 204.543671,149.140152 186.599731,162.956833 
	C175.731339,171.325439 163.560394,178.232758 151.336273,184.564011 
	C122.801872,199.342743 93.883636,213.380508 65.117348,227.711319 
	C55.430500,232.537125 49.634079,230.607941 44.768684,221.020477 
	C40.699566,213.002090 36.526203,205.036087 32.511074,196.990967 
	C28.712437,189.379654 30.736685,183.013000 38.337868,179.017059 
	C54.108166,170.726608 69.947128,162.566833 85.752907,154.343796 
	C88.685715,152.817993 91.595215,151.247421 93.854774,150.048187 
	C88.892647,142.985321 84.057640,136.103394 79.078735,128.873596 
z"/>
</svg>