<svg width="590" height="132" viewBox="0 0 590 132" fill="none" xmlns="http://www.w3.org/2000/svg">
<path d="M40.58 93.7C33.2133 93.7 26.47 91.66 20.35 87.58C14.3433 83.5 9.52667 77.9467 5.9 70.92C2.27333 63.8933 0.46 55.96 0.46 47.12C0.46 38.1667 2.27333 30.2333 5.9 23.32C9.64 16.2933 14.6267 10.7967 20.86 6.82999C27.2067 2.86333 34.29 0.879998 42.11 0.879998C46.7567 0.879998 51.0067 1.56 54.86 2.91999C58.7133 4.27999 62.0567 6.20666 64.89 8.7C67.8367 11.08 70.2167 13.8567 72.03 17.03C73.9567 20.2033 75.1467 23.6033 75.6 27.23L71.69 25.87V2.74999H89.37V92H71.69V70.75L75.77 69.56C75.09 72.62 73.6733 75.6233 71.52 78.57C69.48 81.4033 66.8167 83.9533 63.53 86.22C60.3567 88.4867 56.7867 90.3 52.82 91.66C48.9667 93.02 44.8867 93.7 40.58 93.7ZM45.17 77.55C50.4967 77.55 55.2 76.2467 59.28 73.64C63.36 71.0333 66.5333 67.4633 68.8 62.93C71.18 58.2833 72.37 53.0133 72.37 47.12C72.37 41.34 71.18 36.1833 68.8 31.65C66.5333 27.1167 63.36 23.5467 59.28 20.94C55.2 18.3333 50.4967 17.03 45.17 17.03C39.9567 17.03 35.31 18.3333 31.23 20.94C27.2633 23.5467 24.09 27.1167 21.71 31.65C19.4433 36.1833 18.31 41.34 18.31 47.12C18.31 53.0133 19.4433 58.2833 21.71 62.93C24.09 67.4633 27.2633 71.0333 31.23 73.64C35.31 76.2467 39.9567 77.55 45.17 77.55ZM153.768 131.1C147.421 131.1 141.075 130.08 134.728 128.04C128.495 126.113 123.451 123.563 119.598 120.39L126.058 106.79C128.325 108.49 130.988 109.963 134.048 111.21C137.108 112.57 140.338 113.59 143.738 114.27C147.138 115.063 150.481 115.46 153.768 115.46C160.001 115.46 165.215 114.44 169.408 112.4C173.601 110.36 176.775 107.357 178.928 103.39C181.081 99.4233 182.158 94.4933 182.158 88.6V71.43L184.028 72.62C183.461 76.1333 181.591 79.5333 178.418 82.82C175.358 85.9933 171.505 88.6 166.858 90.64C162.211 92.68 157.451 93.7 152.578 93.7C144.078 93.7 136.485 91.7167 129.798 87.75C123.225 83.67 118.011 78.1733 114.158 71.26C110.305 64.2333 108.378 56.2433 108.378 47.29C108.378 38.3367 110.248 30.4033 113.988 23.49C117.841 16.4633 123.055 10.9667 129.628 7C136.315 2.92 143.795 0.879998 152.068 0.879998C155.468 0.879998 158.755 1.33333 161.928 2.24C165.101 3.03333 168.048 4.22333 170.768 5.81C173.488 7.28333 175.925 8.92666 178.078 10.74C180.231 12.5533 181.988 14.48 183.348 16.52C184.708 18.56 185.558 20.4867 185.898 22.3L182.158 23.66V2.74999H199.668V86.56C199.668 93.7 198.591 99.99 196.438 105.43C194.398 110.983 191.395 115.63 187.428 119.37C183.461 123.223 178.645 126.113 172.978 128.04C167.311 130.08 160.908 131.1 153.768 131.1ZM154.448 77.55C160.001 77.55 164.931 76.2467 169.238 73.64C173.545 71.0333 176.888 67.4633 179.268 62.93C181.648 58.3967 182.838 53.1833 182.838 47.29C182.838 41.3967 181.591 36.1833 179.098 31.65C176.718 27.0033 173.375 23.3767 169.068 20.77C164.875 18.1633 160.001 16.86 154.448 16.86C149.008 16.86 144.135 18.22 139.828 20.94C135.635 23.5467 132.291 27.1733 129.798 31.82C127.418 36.3533 126.228 41.51 126.228 47.29C126.228 53.07 127.418 58.2833 129.798 62.93C132.291 67.4633 135.635 71.0333 139.828 73.64C144.135 76.2467 149.008 77.55 154.448 77.55ZM224.219 129.4V2.74999H241.899V23.15L239.179 21.62C239.859 18.22 241.785 14.99 244.959 11.93C248.132 8.75666 251.985 6.20666 256.519 4.27999C261.165 2.23999 265.925 1.21999 270.799 1.21999C278.845 1.21999 285.985 3.20333 292.219 7.17C298.452 11.1367 303.382 16.5767 307.009 23.49C310.635 30.4033 312.449 38.3367 312.449 47.29C312.449 56.13 310.635 64.0633 307.009 71.09C303.495 78.0033 298.622 83.5 292.389 87.58C286.155 91.5467 279.129 93.53 271.309 93.53C266.095 93.53 261.052 92.51 256.179 90.47C251.305 88.3167 247.169 85.5967 243.769 82.31C240.369 79.0233 238.272 75.6233 237.479 72.11L241.899 69.73V129.4H224.219ZM268.419 77.38C273.632 77.38 278.279 76.0767 282.359 73.47C286.439 70.8633 289.669 67.2933 292.049 62.76C294.429 58.2267 295.619 53.07 295.619 47.29C295.619 41.51 294.429 36.41 292.049 31.99C289.782 27.4567 286.609 23.8867 282.529 21.28C278.449 18.6733 273.745 17.37 268.419 17.37C263.092 17.37 258.389 18.6733 254.309 21.28C250.229 23.7733 246.999 27.2867 244.619 31.82C242.239 36.3533 241.049 41.51 241.049 47.29C241.049 53.07 242.239 58.2267 244.619 62.76C246.999 67.2933 250.229 70.8633 254.309 73.47C258.389 76.0767 263.092 77.38 268.419 77.38ZM331.465 92V2.74999H349.145V30.8L347.445 24C348.691 19.6933 350.788 15.7833 353.735 12.27C356.795 8.75667 360.251 5.98 364.105 3.94C368.071 1.9 372.151 0.879998 376.345 0.879998C378.271 0.879998 380.085 1.05 381.785 1.38999C383.598 1.72999 385.015 2.12666 386.035 2.58L381.445 21.62C380.085 21.0533 378.555 20.6 376.855 20.26C375.268 19.8067 373.681 19.58 372.095 19.58C369.035 19.58 366.088 20.2033 363.255 21.45C360.535 22.5833 358.098 24.2267 355.945 26.38C353.905 28.42 352.261 30.8567 351.015 33.69C349.768 36.41 349.145 39.4133 349.145 42.7V92H331.465ZM436.331 93.7C427.604 93.7 419.784 91.7167 412.871 87.75C406.071 83.67 400.687 78.1733 396.721 71.26C392.754 64.2333 390.771 56.2433 390.771 47.29C390.771 38.3367 392.754 30.4033 396.721 23.49C400.687 16.4633 406.071 10.9667 412.871 7C419.784 2.92 427.604 0.879998 436.331 0.879998C444.944 0.879998 452.651 2.92 459.451 7C466.364 10.9667 471.804 16.4633 475.771 23.49C479.737 30.4033 481.721 38.3367 481.721 47.29C481.721 56.2433 479.737 64.2333 475.771 71.26C471.804 78.1733 466.364 83.67 459.451 87.75C452.651 91.7167 444.944 93.7 436.331 93.7ZM436.331 77.72C441.657 77.72 446.417 76.4167 450.611 73.81C454.804 71.09 458.091 67.4633 460.471 62.93C462.851 58.2833 463.984 53.07 463.871 47.29C463.984 41.3967 462.851 36.1833 460.471 31.65C458.091 27.0033 454.804 23.3767 450.611 20.77C446.417 18.1633 441.657 16.86 436.331 16.86C431.004 16.86 426.187 18.22 421.881 20.94C417.687 23.5467 414.401 27.1733 412.021 31.82C409.641 36.3533 408.507 41.51 408.621 47.29C408.507 53.07 409.641 58.2833 412.021 62.93C414.401 67.4633 417.687 71.09 421.881 73.81C426.187 76.4167 431.004 77.72 436.331 77.72ZM500.801 129.4V2.74999H518.481V23.15L515.761 21.62C516.441 18.22 518.367 14.99 521.541 11.93C524.714 8.75666 528.567 6.20666 533.101 4.27999C537.747 2.23999 542.507 1.21999 547.381 1.21999C555.427 1.21999 562.567 3.20333 568.801 7.17C575.034 11.1367 579.964 16.5767 583.591 23.49C587.217 30.4033 589.031 38.3367 589.031 47.29C589.031 56.13 587.217 64.0633 583.591 71.09C580.077 78.0033 575.204 83.5 568.971 87.58C562.737 91.5467 555.711 93.53 547.891 93.53C542.677 93.53 537.634 92.51 532.761 90.47C527.887 88.3167 523.751 85.5967 520.351 82.31C516.951 79.0233 514.854 75.6233 514.061 72.11L518.481 69.73V129.4H500.801ZM545.001 77.38C550.214 77.38 554.861 76.0767 558.941 73.47C563.021 70.8633 566.251 67.2933 568.631 62.76C571.011 58.2267 572.201 53.07 572.201 47.29C572.201 41.51 571.011 36.41 568.631 31.99C566.364 27.4567 563.191 23.8867 559.111 21.28C555.031 18.6733 550.327 17.37 545.001 17.37C539.674 17.37 534.971 18.6733 530.891 21.28C526.811 23.7733 523.581 27.2867 521.201 31.82C518.821 36.3533 517.631 41.51 517.631 47.29C517.631 53.07 518.821 58.2267 521.201 62.76C523.581 67.2933 526.811 70.8633 530.891 73.47C534.971 76.0767 539.674 77.38 545.001 77.38Z" fill="black" fill-opacity="0.82"/>
</svg>
