<svg xmlns="http://www.w3.org/2000/svg" width="257" height="252" fill="none" xmlns:v="https://vecta.io/nano"><g clip-path="url(#E)" stroke="#000" stroke-width="3.825"><path d="M42.84 38.124C90.238-7.872 164.09-10.78 214.847 33.593l.565.5c10.336 9.14 11.621 25.331 2.833 36.128-8.751 10.751-24.157 12.053-34.447 2.954l-.008-.007-.242-.215-.007-.006-.007-.006c-30.931-27.117-75.674-26.028-105.306.757 2.61-10.554-.546-22.212-9.073-29.752h0c-7.547-6.672-17.477-8.51-26.315-5.822z" fill="url(#A)"/><path d="M42.489 182.227c8.739-10.75 24.12-12.053 34.398-2.961l.061.055.066.06.007.007.007.006c30.897 27.231 75.667 26.178 105.305-.633-2.602 10.55.551 22.202 9.065 29.739 7.539 6.675 17.461 8.512 26.29 5.823-47.518 46.169-121.657 48.926-172.369 4.033-10.325-9.14-11.608-25.332-2.831-36.129zm0 0l-1.484-1.206 1.484 1.206z" fill="url(#B)"/><path d="M182.815 74.198c10.563 2.604 22.23-.549 29.777-9.067 6.685-7.546 8.524-17.475 5.827-26.31 46.188 47.494 48.99 121.573 4.172 172.306l-.121.135-.006.007c-9.152 10.331-25.367 11.617-36.18 2.833-10.764-8.744-12.067-24.135-2.958-34.417 27.391-30.914 26.373-75.792-.511-105.487z" fill="url(#C)"/><path d="M75.33 177.302c-10.47-2.958-22.236-.197-30.064 8.063-6.935 7.317-9.105 17.179-6.706 26.099C-6.01 162.448-6.325 88.316 40.17 39.115l.125-.13.007-.007c9.494-10.018 25.742-10.76 36.255-1.618 10.464 9.1 11.25 24.527 1.802 34.498-28.412 29.977-28.901 74.864-3.028 105.445z" fill="url(#D)"/></g><defs><linearGradient id="A" x1="190.561" y1="42.075" x2="62.018" y2="48.46" href="#F"><stop stop-color="color(display-p3 0.1460 0.4453 0.9411)"/><stop offset="1" stop-color="color(display-p3 0.5156 0.6493 0.8708)"/></linearGradient><linearGradient id="B" x1="108.695" y1="218.94" x2="208.26" y2="191.728" href="#F"><stop stop-color="color(display-p3 0.9569 0.7059 0.0000)"/><stop offset="1" stop-color="color(display-p3 0.8782 0.8107 0.6208)"/></linearGradient><linearGradient id="C" x1="223.078" y1="147.895" x2="195.848" y2="48.353" href="#F"><stop stop-color="color(display-p3 0.8588 0.2667 0.2157)"/><stop offset="1" stop-color="color(display-p3 0.9374 0.7293 0.7113)"/></linearGradient><linearGradient id="D" x1="37.562" y1="102.295" x2="61.437" y2="202.695" href="#F"><stop stop-color="color(display-p3 0.0588 0.5255 0.2980)"/><stop offset="1" stop-color="color(display-p3 0.4196 0.7137 0.5725)"/></linearGradient><clipPath id="E"><path fill="#fff" d="M0 0h257v252H0z" fill-opacity="1"/></clipPath><linearGradient id="F" gradientUnits="userSpaceOnUse"/></defs></svg>