<svg xmlns="http://www.w3.org/2000/svg" width="2290" height="3006" fill="none" xmlns:v="https://vecta.io/nano"><style><![CDATA[.B{fill:#6489de}.C{fill:#4670d6}.D{fill:#567dda}.E{fill:#bcd3f1}.F{fill:#abccff}.G{fill:#c0d6f2}.H{fill:#7193e1}.I{fill:#a5c8ff}.J{fill:#3462d1}.K{fill:#c4d9f3}.L{fill:#7d9ce4}]]></style><g clip-path="url(#A)"><path d="M34.958 81.682L-8.256 0l-.147 113.031-3.018 2320.449-.381 293.21-.366 281.25 2297.858-6.32.13-102.39.16-121.01.32-250 1.05-801.85c.29-225.02.33-257.57-402.65-262.01-68.1-.75-123.53-55.86-123.44-123.97.04-34.92-14.72-68.23-40.63-91.65l-26.31-23.78c-58.06-52.49-141.12-66.94-213.49-37.15l-169.08 69.61c-138.34 56.95-268.99-96.01-196.42-226.83 39.25-70.752 16.91-161.077-51.7-203.966a152.1 152.1 0 0 1-71.474-129.165l.37-284.768c.091-69.683-29.561-136.093-81.505-182.542l-101.077-90.386c-58.886-52.658-150.886-40.255-193.726 26.116l-13.624 21.107c-34.957 54.158-109.615 65.129-158.675 23.318-25.316-21.575-59.253-30.094-91.756-23.032l-61.371 13.332C188.494 222.827 83.913 174.214 34.958 81.682z" fill="#e5f2ff" stroke="#3565ce" stroke-width="10.638"/><path d="M578.894 2998.78l-172.295.45-500.498-.21-573.834-.09-251.166.7c-2.424.01-4.847-.42-7.277-.65-.492-1.05-.664-2.21-.497-3.35.168-1.15.669-2.21 1.44-3.07 7.015-6.37 4.487-14.84 4.493-22.49l.164-251.33a60.21 60.21 0 0 1 2.509-25.33c3.963-6.86 11.043-6.64 17.606-7.69 32.548-5.19 64.965-11.41 98.109-11.72-30.185.01-60.299 2.9-89.934 8.64-10.565 1.7-21.059 2.96-26.607-9.58a59.11 59.11 0 0 1-1.716-20.03l-.504-651.33c-.809-9.15.118-18.37 2.731-27.17 13.978-15.25 32.162-4.71 45.969-8.36-13.408-3.89-31.552 6.15-45.582-7.72-.807-1.66-1.412-3.41-1.802-5.21-6.871-42.71-.766-48.45 41.581-50.32 109.06-4.82 218.166-1.66 327.24-3.37 3.655-.06 7.316-.02 10.971.01 32.902.28 38.279 7.02 31.827 39.81-4.644 8.35-13.034 7.38-20.692 8.07-4.822.13-9.628.62-14.377 1.47-6.675 1.62-13.454 3.67-12.675 12.46.747 8.38 7.887 7.64 13.723 8.47 11.456 1.64 24.484-3.57 33.766 7.76 2.583 7.56 3.442 15.59 2.515 23.52l.013 826.83c.493 6.69.07 13.42-1.257 20.01-2.981 9.78-11.037 11.92-19.847 13.36-13.861 2.28-27.865 3.41-41.627 6.77 12.527-.62 25.01-1.91 37.395-3.89 7.808-.94 15.898-3.08 22.173 4.26 6.301 21.42 2.03 43.33 3.013 64.99.635 13.91.013 27.87.183 41.8.072 5.88-1.303 12.62 7.035 14.61 2.219.27 4.46.32 6.688.13l371.591.38 14.259.01 224.062.01c4.65-.03 9.301-.19 13.952.03 27.432-.5 54.87-.65 82.302.04 5.686-.2 11.371-.29 17.05 0 26.103-.53 52.205-.65 78.301.01a257.35 257.35 0 0 1 13.611-.01c24.975-.58 49.96-.58 74.934-.01 5.718-.25 11.444-.26 17.162-.02 48.445-.85 96.877-.47 145.315-.28a44.13 44.13 0 0 1 16.408 3.17 4.04 4.04 0 0 1 1.34.91c.38.4.677.86.873 1.37s.286 1.06.266 1.6c-.02.55-.15 1.09-.383 1.58z" fill="#cd854e"/><path d="M579.832 2998.07v-2.09c5.09-6.83 12.747-6.62 19.919-6.64l151.387.29c26.712-.42 53.43-.69 80.142.11 4.585-.08 9.17-.17 13.755 0 26.129-.51 52.257-.63 78.386.02 4.552-.11 9.105-.14 13.657-.01 28.592-.58 57.176-.66 85.772-.01 4.65-.16 9.3-.1 13.95-.04l220.42-.02c4.76-.09 9.52-.09 14.28-.01l380.29-.36c2.31.02 4.61-.27 6.84-.86 9.04-4.36 5.8-12.74 5.82-19.5l.15-225.75.05-737.8a79.41 79.41 0 0 1 1.92-27.26c5.86-10.83 16.55-7.87 25.81-8.74 8.06-.76 17.19-1 17.16-11.71-.04-10.07-9.62-9-16.36-10.46-9.06-1.96-19.92 1.72-26.29-8.62-1.75-4.59-2.5-9.5-2.22-14.41-.01-18.89 4.57-24.37 23.33-25.03 25.02-.89 50.07-.08 75.11.08l141.1-.16c48.91-1.17 97.58 4.06 146.44 3.63 24.51-.21 28.69 4.61 29.08 28.96a64.28 64.28 0 0 1-2.65 25.3c-5.8 9.63-15.63 7.69-24.45 8.04a354.05 354.05 0 0 1-27.84.02c15.66 4.64 35.67-6.43 51.91 7.97 2.65 7.54 3.54 15.58 2.62 23.51l-.23 427.28.27 71.38c1.21 120.39-5.6 240.7-3.27 361.1a65.95 65.95 0 0 1-1.86 19.94c-4.08 12.18-15.98 7.89-26 11.96 8.23 5.15 18.97.91 24.4 9.14 6.04 23.29 1.56 47 2.98 70.47.54 8.92-.98 18.5 8.13 24.59.8.67 1.34 1.6 1.54 2.62a4.62 4.62 0 0 1-.43 3.01c-8.47 1.22-17.06 1.41-25.57.56-264.61.03-529.22.01-793.82-.07l-397.827-.34c-89.22-.01-178.44.26-267.659.36-6.714.01-13.428-.29-20.142-.45z" class="I"/><path d="M-12.873 1897.28c1.101-12.12.917-24.36 1.703-36.51a115.72 115.72 0 0 1 2.705-16.15c.157-1.84.895-3.58 2.105-4.97s2.831-2.36 4.629-2.76c4.716-.75 6 3.51 7.231 6.74a43.48 43.48 0 0 1 3.249 12.31c.502 20.38-1.42 40.74-5.725 60.66-12.648-3.15-16.834-8.97-15.897-19.32zm-256.485-88.2c-.327 5.97-3.118 8.98-9.288 8.37-1.212-.11-2.424-.16-3.648-.26-37.186-2.84-39.367-5.24-33.753-41.88a126.77 126.77 0 0 1 9.779-38.89c4.552-9.05 11.469-19.39 20.266-19.47 9.891-.11 13.192 12.61 17.122 21.42 3.369 9.08 4.569 18.82 3.505 28.44.72 14.54-3.23 28.25-3.983 42.27zm2488.838 158.84c-3.27-7.36-10.37-9.87-16.69-13.56-31.73-18.5-65.06-33.89-97.64-50.71-6.42-3.32-15.58-7.57-10.7-15.92 3.83-6.53 10.9.75 15.93 3.12 32.6 15.4 64.08 33.11 97.24 47.39 2.38.81 4.84 1.41 7.32 1.8.82.1 1.64.01 2.42-.26.77-.27 1.47-.72 2.04-1.31l.02-10.96a32.89 32.89 0 0 0-18.72-16.34l-89.73-45c-4.65-2.38-10.87-3.2-13.5-10.63 33.78 15.62 66.54 30.14 98.46 46.53 7.12 3.67 14.54 10.2 23.47 3.43l-.03-10.96c-3.38-8.11-11.11-10.79-18.03-14.51-28.95-15.57-58.86-29.17-88.87-42.48-6.7-2.75-12.51-7.3-16.78-13.14-4.27-5.85-6.84-12.77-7.43-19.99-5.83-34.08-8.53-68.79-18.85-102.11-.62-.99-1.41-1.87-2.33-2.58-.54-.4-1.05-.82-1.54-1.27-.86-.84-.6-1.12.18-1.1.78.04 1.56.16 2.32.35a20.51 20.51 0 0 1 8.94.8c2.89.92 5.54 2.47 7.76 4.54 36.06 24.56 72 49.3 107.06 75.26l.44.33c2.29 1.5 4.68 2.84 7.1 4.12l.18.11 1.73.9c4.94 1.32 8.94 7.75 14.78 4.19.03 0 .05-.04.09-.06.53-.33 1.02-.69 1.49-1.1 2.66-14.31-5.31-22.55-16.11-29.96l-115.79-80.2c-13.19-8.94-24.34-17.86-25-35.41-.32-3.06-1.37-6-3.05-8.58a19.51 19.51 0 0 0-6.62-6.25l-.01-.02h-.02c-.28-.13-.57-.24-.86-.34-6.43-2.49-12.87-1.6-12.32 6.36 1.54 22.93-13.29 22.47-28.5 21.37-63.96-4.65-128.03-3.47-192.09-3.6-39.66-.07-79.35-.17-119.03.08-13.69.06-20.43-4.99-19.8-19.28a28.55 28.55 0 0 0-.45-11.82 28.75 28.75 0 0 0-5.2-10.63l-7.36-.03c-10.98 2.13-11.79 10.57-12.43 19.47-1.6 22.56-1.7 22.61-24.78 22.67-37.9.06-75.82.26-113.72-.11a138.7 138.7 0 0 0-46.75 7.53l-148.23 48.31c-12.22 4.29-23.09 7.94-21.16-12.5.51-5.49-1.86-11.37-8.94-9.7l-.09.02a17.06 17.06 0 0 0-2.41.81c-.57-.13-1.16-.12-1.73.03a3.86 3.86 0 0 0-1.52.81 12.5 12.5 0 0 0-6.16 5.34c-1.39 2.42-1.93 5.24-1.53 8.01 1.62 19.67-10.3 29.22-25.47 38.14l-185.35 110.42c7.01-25.15 26.86-38.2 46.84-51.56 5.17-3.43 15.46-5.12 12.98-14.72v-.02a15.88 15.88 0 0 0-.37-1.17v-.02c-.18-.48-.36-.99-.6-1.52-1.83-2.79-4.66-4.77-7.91-5.52a12.93 12.93 0 0 0-9.53 1.52c-27.33 15.41-52.79 32.47-60.36 66.57.67-33.41.13-66.25.36-99.06.17-21.33 1.22-22.27 23.15-22.5l34.78-.17c3.94.46 7.92-.53 11.19-2.77 3.28-2.24 5.63-5.59 6.63-9.44l.05.12c5.62-4.41 4.5-8.03-1.5-10.66-6.97-2.33-14.34-3.2-21.66-2.54-45.15-.09-90.33.18-135.489-.2-11.332-.1-26.227 4.13-26.449-15.7-.164-14.63 2.934-16.66 27.235-16.76 23.81-.11 47.613.53 71.393-.36 7.6-.28 17.98 2.75 20.58-9.49v-.02c-3.26 0-6.55-.02-9.83-.02-5.7-10.09-14.82-12.7-25.74-12.77l-207.161-2.98c-224.409-1.87-448.844-1.72-673.24 2.78-13.912.29-26.528 1.81-36.104 13.01a17.24 17.24 0 0 0-10.205.18c2.79 12.14 13.139 9.07 20.764 9.33 26.829.87 53.698-.11 80.554.53 15.268.36 19.506 6.29 17.508 20.57-1.729 12.3-10.775 11.67-19.218 11.73l-137.363.17a66.37 66.37 0 0 0-21.786 1.98c-6.72 2.29-8.843 6.15-3.177 11.91l.701 6.43c16.441 9.87 34.506 4.02 51.772 4.73 13.055.55 18.996 3.67 20.908 18.3 4.369 33.66 1.723 67.21 3.105 103.25-19.677-39.68-25.238-45.4-57.89-63.88-7.821-4.42-14.299-6-20.436 1.96a13.57 13.57 0 0 0-1.133 1.79c-.033.03-.052.05-.052.09-3.491 6.59 3.432 9.15 7.159 12.22 7.682 6.04 15.771 11.54 24.209 16.47a58.47 58.47 0 0 1 25.271 34.72c-6.652-1.92-12.889-5.07-18.393-9.27l-149.547-88.74c-21.55-12.49-40.729-24.73-40.015-53.14.053-1.63-1.703-3.15-2.823-4.61-2.515-3.63-6.445-3.61-10.244-3.93-9.125-.52-7.657 6.67-6.943 11.24 2.574 16.3-3.865 17.11-17.214 12.5-48.989-16.89-98.875-31.09-147.785-48.27-19.01-6.7-39.063-9.94-59.213-9.57-35.974.55-71.967-.14-107.921.32-13.533.16-21.111-4.02-20.122-18.67a38.43 38.43 0 0 0-.858-10.92c-2.168-9.84-6.662-14.35-15.131-9.32-.056.02-.109.05-.157.09-.869.52-1.709 1.09-2.516 1.7-1.575 2.64-2.454 5.63-2.554 8.7.517 27.21-2.201 27.87-32.03 27.85-75.766-.04-151.532.22-227.298-.13-29.344-.13-58.362 5.45-87.805 3.97-12.229-.61-21.772-1.55-21.641-17.41.052-6.22-2.077-13.36-10.998-10.97l-1.428.44a2.74 2.74 0 0 0-1.554.03c-.504.15-.954.45-1.295.85a24.67 24.67 0 0 0-7.887 15.93c.59 14.06-7.801 21.72-18.484 28.96-28.16 19.08-56.332 38.2-83.539 58.53-17.32 12.95-37.86 21.67-52.61 37.98v.02c-.7.75-1.38 1.52-2.03 2.31-.59.7-1.15 1.4-1.7 2.11-.75 17.26-.75 17.39 19.23 15.97l.45-.04a16.15 16.15 0 0 0 4.51-6.02 10.73 10.73 0 0 1 .37-.65v-.02a17.85 17.85 0 0 1 5.43-6.28l119.799-83.79a12.19 12.19 0 0 1 8.993-2.12 5.61 5.61 0 0 1 .806.13c.768.12 1.529.28 2.28.49a18.86 18.86 0 0 0 5.999-1.51c.686-.28 1.353-.61 1.998-.97a31.03 31.03 0 0 0 5.306-3.69c7.533-7.84 17.312-8.02 27.183-8.02h331.7a24.74 24.74 0 0 1 10.5 1.05l.184.06h.019c.223.12.439.23.655.36h.027a5.28 5.28 0 0 1 2.882 4.99c.008.11.026.23.052.35l.02.05a32.14 32.14 0 0 1 .327 5.16 34.1 34.1 0 0 0 .275 4.74c1.69 29.93.852 59.89.642 89.84-.216 32.51-.386 32.41-33.713 32.56-48.308.2-96.766-2.58-144.89.94-64.794 4.75-129.549 1.4-194.304 2.49-15.472.26-19.474-7.26-12.052-21.01 4.015-7.47 10.165-13.84 10.368-23.03 1.452-25.62.549-51.31-2.698-76.76-.601-1.26-1.465-2.38-2.535-3.27-.467-.39-.972-.73-1.507-1.01-2.786-1.25-5.766-2.01-8.81-2.25l-.786-.14-.111-.02c-11.784 5.64-10.592 17.62-11.011 27.04-1.159 26.32-7.009 52-8.757 78.17-.025 7.92-2.446 15.64-6.944 22.15a39.24 39.24 0 0 1-18.255 14.34c-33.294 15.18-65.532 32.69-98.452 48.71-10.98 5.37-18.04 12.34-15.84 25.51a13.5 13.5 0 0 0 2.4 1.79 5.86 5.86 0 0 0 .78.42c6.73 3.32 12.36-2.53 17.85-5.19l93.242-46.37c5.251-3.64 11.645-5.23 17.987-4.49-18.943 13.23-38.122 18.2-54.844 27.83-24.195 13.92-51.535 21.98-73.805 39.44v.01a16.98 16.98 0 0 0-1.28 1.03 24.51 24.51 0 0 0-1.4 1.12c-1.06 3.99-1.41 8.14-1.02 12.26a6.45 6.45 0 0 0 1.69 4.31c.36.11.75.22 1.11.31.39.11.76.2 1.14.3.06 0 .11-.01.17-.02 2.13-.17 4.21-.76 6.11-1.74a35.88 35.88 0 0 0 3.62-1.93c1.67-.94 3.36-1.8 5.04-2.65 1.13-.49 2.22-1.06 3.28-1.69 1.63-.85 3.3-1.57 4.97-2.33a34.53 34.53 0 0 0 3.37-1.59c1.16-.54 2.33-1.07 3.45-1.65 1.18-.56 2.37-1.11 3.51-1.75 1.19-.57 2.4-1.11 3.58-1.76 1.21-.57 2.44-1.13 3.62-1.82 1.22-.59 2.45-1.15 3.64-1.82a41.81 41.81 0 0 0 3.67-1.83c1.23-.59 2.48-1.18 3.68-1.83 1.24-.57 2.47-1.16 3.66-1.84 1.24-.59 2.49-1.18 3.67-1.83 1.25-.56 2.48-1.17 3.68-1.84 1.229-.59 2.48-1.18 3.666-1.83 1.238-.58 2.489-1.16 3.674-1.84 1.232-.59 2.463-1.18 3.668-1.84 1.232-.57 2.463-1.15 3.655-1.83 1.232-.59 2.463-1.16 3.669-1.82 1.231-.59 2.462-1.15 3.655-1.83 1.211-.59 2.443-1.18 3.615-1.82 1.232-.57 2.443-1.16 3.616-1.82 1.192-.59 2.391-1.15 3.563-1.81a41.85 41.85 0 0 0 3.505-1.79c1.159-.59 2.312-1.16 3.432-1.8a32.58 32.58 0 0 0 3.321-1.79c1.598-.89 3.209-1.67 4.867-2.45a20.02 20.02 0 0 0 3.176-1.61c1.54-.81 3.138-1.51 4.736-2.2 1.061-.42 2.129-.85 3.17-1.38 1.566-.6 3.158-1.07 4.795-1.53 1.028-.27 2.031-.52 3.079-.91.431.25.837.55 1.211.88l-.51 1.29c-.44 2.86-.601 5.75-.479 8.64a15.68 15.68 0 0 1-.989 5.75 11.48 11.48 0 0 1-2.371 2.66c-1.028.64-2.109 1.23-3.17 1.83a53.48 53.48 0 0 0-3.432 1.71c-1.179.57-2.372 1.11-3.524 1.74a59 59 0 0 0-3.603 1.8c-1.212.57-2.437 1.16-3.629 1.8a55.49 55.49 0 0 0-3.655 1.82c-1.231.6-2.463 1.18-3.668 1.83-1.231.59-2.463 1.16-3.655 1.84-1.231.59-2.476 1.18-3.668 1.83-1.251.57-2.482 1.16-3.675 1.83-1.231.59-2.476 1.18-3.668 1.84-1.251.58-2.482 1.16-3.668 1.84-1.238.59-2.489 1.18-3.674 1.83-1.245.57-2.483 1.16-3.669 1.84-1.231.59-2.482 1.18-3.674 1.83a46.17 46.17 0 0 0-3.668 1.84c-1.232.59-2.463 1.17-3.668 1.84-1.246.56-2.466 1.17-3.666 1.83-1.22.59-2.45 1.16-3.64 1.82-1.25.59-2.48 1.15-3.66 1.84a76.67 76.67 0 0 0-3.63 1.81c-1.23.56-2.44 1.17-3.62 1.82-1.19.59-2.4 1.15-3.58 1.81-1.19.57-2.38 1.14-3.52 1.81-1.18.59-2.33 1.15-3.47 1.81-1.16.57-2.29 1.14-3.4 1.82-1.12.59-2.26 1.13-3.38 1.76-1.13.49-2.29 1.01-3.39 1.61-1.14.57-2.26 1.11-3.36 1.73-1.15.53-2.29 1.07-3.37 1.69a106.65 106.65 0 0 1-5.14 2.55 35.66 35.66 0 0 0-3.57 1.6l-5.79 2.52a25.91 25.91 0 0 0-4.05 2.1 9 9 0 0 0-3.69 3.57 8.91 8.91 0 0 0-1.13 5c.48 3.49-.79 7.75 1.67 10.35.12.15.25.28.4.39a7.92 7.92 0 0 0 3.3 1.56c8.58-.49 16.87-3.25 24.03-7.99l82.009-40.94c20.541-10.24 20.306-10.24 20.581 13.51l2.862 516.84c3.78 125.76.753 251.75.786 377.64 0 12.14-.439 23.51-15.543 27.05-2.161.33-4.139 1.4-5.597 3.03s-2.304 3.71-2.395 5.9c.171 3.98 4.559 5.83 8.083 6.42 13.474 2.26 15.432 11.66 15.419 22.98l.105 67.82c.112 7.63-.766 15.67 5.109 21.97.125.16.288.31.439.47 5.941.02 11.122-.89 11.004-8.66-.052-4.86.079-9.74.079-14.6l.039-281.51a13.75 13.75 0 0 0 1.487-2.27c.663-1.22 1.068-2.55 1.191-3.93s-.039-2.77-.477-4.08c-.525-1.58-1.275-3.08-2.227-4.45l-.033-704.76c.093-.1.181-.21.262-.33v-.02c1.168-1.33 1.857-3.02 1.959-4.79.102-1.78-.389-3.53-1.395-4.99l-.013-.02h-.02c-.215-.37-.455-.73-.721-1.06l-.183-40.27c-.131-7.64 2.993-11.03 10.834-11.07 31.624-.19 63.268-2.13 94.82-2.79 92.135-1.89 184.328-.77 276.483-.83 3.674-.02 7.349.18 11.004 0 7.847-.42 10.991 3.41 10.788 11.02-.242 8.55-.092 17.08-.092 25.64a36.8 36.8 0 0 0-1.434 2.29 27.04 27.04 0 0 0-4.093 14.88 27.05 27.05 0 0 0 4.702 14.69l.858 1.34-.052 877.26c-.928 1.35-1.656 2.83-2.162 4.39-.468 1.35-.643 2.79-.515 4.21s.559 2.81 1.262 4.05a14.37 14.37 0 0 0 1.415 2.11l.091 74.38-.052 43.53c-.17 7.95 3.282 11.11 10.952 10.15 1.231-1.43 2.275-3.02 3.105-4.71.111-.23.222-.45.314-.67l.053-.11v-.02c3.635-8.25 1.689-17.51 1.689-26.2l.053-102.13v-.02c-.01-.02-.014-.04-.014-.06 0-.03.004-.05.014-.07v-.01-6.58-.01a3.06 3.06 0 0 1 0-.59l.426-862.51c.001-4.36-.08-8.71-.243-13.07v-.01l-.164-4.71v-.02c-.406-11.58-.936-23.19-.262-34.79.151-2.69.374-5.37.682-8.03.507-4.74 1.306-9.45 2.391-14.09 7.925-6.77 16.388-2.24 24.392-.6l310.242 62.67c38.234 7.62 33.59 2.83 33.937 41.54a26.62 26.62 0 0 0-.184 2.1 53.73 53.73 0 0 0-.019 4.21 63.77 63.77 0 0 1-.092 7.01c-.262 2.42-.396 4.86-.4 7.29l.164 751.27c.164 2.38.236 4.79.262 7.17.013 6.77-.393 13.53-.15 20.29.052 1.54.144 3.08.275 4.62-1.16 50.12-.328 100.27-.367 150.39-.338 5.26.522 10.52 2.515 15.4a17.96 17.96 0 0 0 3.629 5.09l10.467.13a20.44 20.44 0 0 0 3.472-5.22 49.48 49.48 0 0 0 2.325-20.92l-.052-121.05c-.151-13.75 5.633-19.84 18.831-21.58 12.183-1.6 24.465-.63 36.563-2.63a16.87 16.87 0 0 0 11.506-5.12 16.88 16.88 0 0 0 4.751-11.67c.328-11.12-6.236-16.7-16.611-18.28a233 233 0 0 0-31.146-.94c-22.532-.41-25.696-3.32-22.742-26.17a452.72 452.72 0 0 0 2.647-58.55l.02-634.59c0-9.14-2.515-19.51 2.345-27.05 7.343-11.38 12.151-20.91.426-32.01a6.48 6.48 0 0 1-1.659-4.23 6.46 6.46 0 0 1 1.528-4.28c2.279-2.49 5.672-1.27 8.554-.06 2.81 1.19 5.522 2.62 8.253 3.96l165.457 79.03c6.566 2.42 12.141 6.95 15.846 12.88s5.33 12.93 4.617 19.89l2.823 335.45 1.048 462.16c.131 25.25-1.029 51.17 7.27 75.8.564 1.72 1.193 3.45 1.867 5.16l10.559-.15a23.35 23.35 0 0 0 3.446-5.01c4.152-8.22 2.574-17.62 2.698-26.53 2.391-164.5-5.725-328.9-3.779-493.41l.196-267.91c0-13.46-1.205-26.85-2.05-40.26-3.452-55-1.159-110.04-1.343-165.06a13.9 13.9 0 0 1 .53-6.37 13.85 13.85 0 0 1 3.322-5.45 13.79 13.79 0 0 1 5.413-3.39c2.043-.7 4.22-.91 6.357-.61l33.02-.17c34.545 0 34.598.02 34.598 34.12l-.786 732.14-2.771 218.17a52 52 0 0 0 2.692 24.76c.925 1.8 2.093 3.46 3.472 4.94l13.781.02c1.409-1.49 2.62-3.16 3.603-4.96 4.696-8.71 2.823-18.77 2.843-28.24l.111-731.96c0-6.71.347-13.47.033-20.17-.642-13.95 5.567-19.67 19.604-19.73l51.321.17c105.078 2.35 210.031-4.96 315.089-3.63 39.661.49 79.146 4.76 118.918 3.78 49.467-1.25 99-.5 148.486-.06 23.803.2 24.72 1.43 24.668 25.16l3.485 504.31c1.454 81.91.183 163.87.353 245.8a53.57 53.57 0 0 0 2.679 24.57c.928 1.87 2.119 3.6 3.537 5.13l10.468-.08c1.387-1.5 2.549-3.2 3.452-5.04 2.657-7.31 3.554-15.14 2.62-22.86l-3.485-928.19c-.347-14.06-.197-28.14.131-42.2-.292-2.14-.088-4.31.596-6.35s1.828-3.9 3.345-5.43 3.367-2.68 5.404-3.38 4.207-.92 6.342-.64l38.548-.13c28.171.07 29.311.78 28.981 28.61l-2.64 478.79c-4.08 160.79-.96 321.74-.87 482.61-.58 6.5.29 13.04 2.56 19.15a19.16 19.16 0 0 0 3.48 5.12l10.55-.11a19.91 19.91 0 0 0 3.5-5.03c2.43-6.72 3.27-13.93 2.43-21.03-1.92-204.83 6.26-409.56 3.88-614.38l-.17-194.46c-.03-15.31 1.53-30.47 2.63-45.71a33.8 33.8 0 0 1 6.01-18.67c3.81-5.49 9.16-9.73 15.37-12.18l137.14-66.08c10.89-5.52 22.32-10 33.52-14.9 3.69-1.62 8.32-4.17 11.29.84 2.14 3.64-.35 6.98-2.89 9.75-5.15 5.63-10.52 11.66-3.26 18.89 9.93 9.83 9.05 22.1 9.05 34.28l.03 335.72.35 405.39c-.24 4.32-.29 8.64-.14 12.96.01 1.49.07 3 .11 4.5-1.16 49.89-.32 99.81-.37 149.71a34.86 34.86 0 0 0 2.44 15.35c.88 1.9 2.08 3.63 3.54 5.12l10.56.1c1.43-1.55 2.6-3.32 3.48-5.24a48.66 48.66 0 0 0 2.37-20.74l.2-118.55c.06-9.74-.39-19.88 13.22-22.21 6.09-1.06 15.12-1.03 14.85-10.11-.28-9-8.52-10.68-15.88-12-15.44-3.42-12.77-15.81-12.77-26.47l-.06-431.83v-9.84l.02-305.28c0-1.56.05-3.12.11-4.66.09-2.04.16-4.03.07-6.06v-.02a36.55 36.55 0 0 0-.18-2.57c.53-34.98-4.35-33.47 33.34-40.96l321.5-64.2c5.82-1.94 12.01-2.54 18.1-1.76 7.73 4.89 5.95 12.87 5.62 19.89l-.24 6.12v.02c-.06 1.4-.1 2.77-.11 4.17-.2 10.22-.02 20.43.18 30.63l.07 4.21.26 20.83.11 964.76c0 8.64-1.91 17.82 1.61 26.04l.06.06v.04a21.07 21.07 0 0 0 1.16 2.27 21.3 21.3 0 0 0 2.33 3.32c6.28.5 10.96-.91 10.81-8.6-.13-5.51.04-11 .04-16.51l.17-994.91c.49-.75.95-1.49 1.37-2.24l.01-.02a27.37 27.37 0 0 0 4.11-14.49c0-5.12-1.45-10.13-4.16-14.48a31.97 31.97 0 0 0-1.32-2.16l-.01-21.97c.36-14.14.45-14.46 14.46-14.55h95.17c92.61.24 185.24-.83 277.81 3.6a55.63 55.63 0 0 0 5.48.03c7.82-.46 10.94 3.38 10.81 11l-.15 40.27c-.55.72-1.02 1.51-1.4 2.34-.62 1.35-.85 2.85-.68 4.32a8.11 8.11 0 0 0 1.66 4.05l.02.02a3.22 3.22 0 0 0 .42.6l.06 130.22-.04 130.21.13 132.05c.75 43.11-2.16 86.17-.44 129.34 3.49 87.92-4.19 175.74-3.28 263.68l-.02 124.72a15.68 15.68 0 0 0-1.42 2.09v.02a9.89 9.89 0 0 0-1.48 5.1c-.02 1.81.45 3.59 1.37 5.14v.02c.44.82.96 1.59 1.55 2.31l.07 84.91c.09 12.77.35 12.77 14.28 13.77h.02v-.02l.44-.41c5.76-5.49 5.47-12.88 5.5-19.93.13-26.81.68-53.63-.29-80.47-.16-4.6-.17-9.21-.02-13.82l.98-427.23-.41-335.53c-.04-57.4-2.97-114.87 3.25-172.19 2.08-19.16 2.79-19.98 20.74-11.67 27.77 12.86 53.61 29.36 81.29 42.38 7.58 3.56 14.9 8.94 24.17 5.89 1.07-4.73 1.14-9.64.19-14.41zm-403.82-252.74c2.19-13.06 5.97-28.95 17.46-31.89 10.5-2.72 17.19 13.06 23.45 22.36 13.02 19.33 10.45 41.96 11.79 63.66.26 4.26-3.36 4.58-6.31 4.68-6.68.2-13.39.05-20.09.05-3.02.24-6.05.63-9.1.73-15.2.45-16.25-.38-16.97-15.98-1.65-14.49-1.72-29.1-.23-43.61h0zm-398.82 50.33c-.3-15.55 4.37-30.78 13.35-43.48 5.45-7.49 9.72-6.96 16.04-1.08a51.17 51.17 0 0 1 16 23.97c4.71 18.29 7.69 36.98 8.92 55.83.38 1.47.42 3.01.1 4.5s-.98 2.88-1.93 4.07-2.16 2.14-3.54 2.78-2.89.95-4.41.9c-9.03 1.18-18.04 2.76-27.04 4.26-7.14 1.17-11.56-.69-12.38-8.87-1.49-15.13-3.57-30.21-5.11-42.88h0zm-272.52 88.85c.49-6.79 1.01-16.98 9.87-16.75 7.32.18 8.04 9.49 8.55 16.25l2.91 41.98c.76 13.94.6 13.94-15.77 19.73-5.14-19.97-7.02-40.64-5.57-61.21h.01z" class="C"/><path d="M-1065.37 1978.53c6.1-.55 11.93-2.76 16.87-6.38l99.981-49.95a36.42 36.42 0 0 1 17.541-6.59c1.592 6.42 1.991 13.07 1.179 19.63l.97 474.75c3.249 142.89.694 285.73 2.469 428.57v11c-.131 19-.137 18.97-19.853 21.81a17.69 17.69 0 0 0-4.939 2.06c-.446.22-.649.93-1.225 1.83 1.579 4.5 5.699 2.74 8.777 2.97 16.179 1.16 17.109 1.88 17.201 18.68l.19 98.99.033 3.08-123.384.39c-7.48.04-15 .45-16.51-9.63-1.7-6.51-2.14-13.28-1.31-19.96l.03-971.58c0-6.55-1.95-13.45 1.98-19.67zm3149.41 903.38l-.1-311.99.21-582.94c.01-22.97 5.85-45.44 2.75-71.31 48.14 20.32 88.91 46.22 132.39 66.65.26 7.32.76 14.63.77 21.94l.21 788.39.52 176c.19 4.89.12 9.78-.2 14.66-1.27 12.12-5.18 15.96-17.54 15.96-39.71 0-79.42-.34-119.14-.55-.02-1.13-.11-2.26-.28-3.38l.38-102.32a6.61 6.61 0 0 0 2.22-2.39c.53-.97.81-2.05.81-3.16a6.7 6.7 0 0 0-3-5.56z" class="I"/><g class="B"><path d="M1046.62 1651.72c-5.75-4.3-12.66-6.77-19.83-7.09-107.398 2.94-214.677-4.47-322.08-3.62-126.438 1-252.941-1.87-379.32 1.11l-199.321 2.31c-8.909.04-13.605 7.7-21.694 7.34 8.331-7.43 4.323-17.21 4.434-25.91.308-24.83-.026-24.81 25.316-24.86l381.115-.65 507.49.67c20.6.03 21.13.84 21.49 21.83.16 9.65-2.31 19.59 2.4 28.87zm-1557.921-39.84l-.04 32.92c.131 7.53-2.842 11.45-10.735 11.09-4.258-.19-8.535.02-12.799.02-78.039.01-156.078.43-234.103-.17-33.491-.26-66.635 6.3-100.152 3.82-4.251-.31-8.542.07-12.799-.16-6.642-.34-9.924-2.92-8.319-10.52.812-5.41.938-10.9.373-16.35-.216-4.55-4.08-5.51-7.689-6.41a167.54 167.54 0 0 1 53.888-6.65c38.462.5 76.565-5.07 114.903-6.36 63.333-2.14 126.614-6.23 190.02-5.88a72.32 72.32 0 0 1 9.039 1.17c5.214 6.08 13.022-1.65 18.413 3.48zm2562.341 14.52c-5.15.78-12.28-.49-8.79 8.94.74 2.32 1.15 4.73 1.22 7.16 1.01 15.12-.45 16.56-15.64 17.05-28.64.91-57.14-2.84-85.66-3.22l-245.45-.42c-4.28 0-8.55-.19-12.82 0-7.58.32-11.27-2.87-11.13-10.75.21-12.21.01-24.42-.02-36.63 43.17-1.75 86.4-1.25 129.51 1.49 11.55.59 23.1 1.69 34.65 1.67 57.86-.08 115.3 8.38 173.19 8.36 13.94-.85 27.91 1.32 40.94 6.35h0zm-385.64-17.91c-9.11 5.52-7.2 14.55-7.23 22.91-.12 26.76 2.02 24.46-24.76 24.49-42.06.06-84.11.21-126.15-.12-10.93-.03-21.79 1.76-32.13 5.3l-164.61 53.74c-2.32.75-4.54 1.84-6.9 2.38-10.25 2.3-13.63-.87-11.4-11.38 1.27-4.05 2.08-8.22 2.41-12.45a7.99 7.99 0 0 0-.42-3.14 7.76 7.76 0 0 0-1.64-2.71c-.72-.79-1.6-1.41-2.57-1.85-.98-.43-2.03-.66-3.1-.67l96.97-32.16c22.6-7.4 45.63-13.59 67.86-21.94 31.16-10.78 63.76-16.8 96.71-17.87 38.94-2.38 77.85-6.44 116.96-4.53z"/></g><path d="M2219.24 1791.55a6.78 6.78 0 0 0-3.14-3.55l-.07-.04c-5.12-1.93-8.35-7.67-14.61-7.27l-1.75.11c-1.14.12-2.3.15-3.45.09a4.85 4.85 0 0 1-1.95-1.78c-.48-.76-.74-1.63-.75-2.53a20.55 20.55 0 0 0-8.4-9.4l-106.33-74.43c-7.43-5.32-9.25.52-12.94 3.8-.3.12-.56.32-.77.58-.2.25-.33.55-.39.87-.05.33-.02.66.09.96.11.31.29.58.54.8v.02c1.24 4.72 2.9 9.35 3.67 14.13l15.51 99.03c.56 5.67 2.66 11.07 6.08 15.63 3.42 4.55 8.03 8.08 13.32 10.19 38.86 17.82 77.03 37.07 115.47 55.78 1.05-34.34 1.08-68.66-.13-102.99zm-97.53-1.6c.47-15.21 1.35-30.44 2.14-45.66.15-2.99.45-6.66 4.21-6.95a9.76 9.76 0 0 1 6.29 2.91c3.84 3.52 6.91 7.8 9.03 12.56a37.86 37.86 0 0 1 3.25 15.12c.39 17.02.09 34.05.09 52.63-25.58-8.32-25.71-8.32-25.02-30.6l.01-.01z" class="F"/><g class="B"><path d="M1122.36 1707.48c0-2.63 2.78-6.5-2.1-7.17-4.85-.43-9.72-.52-14.58-.29l-157.074-.1c-17.005-.03-17.227-.21-17.208-17.26.053-29.94-2.784-26.61 26.018-26.74l82.184-.08c5.82-.04 12.39 1.98 16.86-4.08l70.88-.44c14.55.16 17.43 3.68 17.9 18.82.13 4.24.03 8.48.01 12.73-.09 22.64-.09 22.64-22.89 24.61zM94.169 1651.96c4.598 5.88 11.155 3.85 16.991 3.88l93.281.13c14.253.09 14.673.4 14.679 14.29.02 34.87 3.118 29.45-28.604 29.63l-149.979.11c-5.528 0-11.921-1.08-9.085 8.18l-8.954-1.41c-13.683-1.9-15.131-3.31-15.622-16.91-.262-7.25-.327-14.54.026-21.78.609-12.22 4.323-16.55 16.533-16.7 23.568-.3 47.155.33 70.735.58zm1189.481 33.87c-3.2 5.93-4.47 12.72-3.65 19.41a30.39 30.39 0 0 1-3.89 17.25 30.43 30.43 0 0 1-12.85 12.15l-198.76 118.79a5.82 5.82 0 0 1-3.61 1.61c-1.35.1-2.69-.28-3.79-1.08 7.98-21.02 17.75-40.48 38.76-52.43 10.48-5.96 19.96-13.72 29.89-20.66-1.27-.79-1.68-1.55-1.23-2.29.44-.72.88-1.09 1.33-1.09l111.83-65.92c15.2-8.78 29.31-19.57 45.97-25.74h0zM28.543 1780.97c6.822 8.62 15.783 15.3 25.991 19.39 21.334 11.04 31.454 29.35 38.803 50.41-4.755 4.63-8.437.54-11.607-1.35l-189.83-113.09a25.91 25.91 0 0 1-10.342-8.36c-2.661-3.64-4.328-7.91-4.835-12.39a182.07 182.07 0 0 1-2.436-27.09l116.363 67.47a239.98 239.98 0 0 1 34.081 20.65c1.133 1.57 3.367 2.18 3.812 4.36z"/></g><path d="M28.544 1780.97l-3.812-4.36c7.644.78 6.917-4.62 6.956-9.44l.472-52.57 63.995-.04c7.671-.07 12.059 1.48 13.101 10.76 4.48 40.03 3.255 80.15 3.353 120.26-.274 2.47-.723 4.91-1.342 7.32-6.89-6.32-11.825-14.48-14.221-23.52-9.118-27.98-35.24-37.01-55.873-52.19-5.895-4.34-7.618 5.21-12.629 3.78z" class="H"/><path d="M1125.85 1777.49l-.09 3.38c-7.66-4.07-15.2-7.01-22.13 1.36a9.13 9.13 0 0 1-3.08 1.94c-11.83 5.64-22.42 13.56-31.16 23.33-8.74 9.76-15.45 21.16-19.74 33.54-1.71 3.76-3.67 7.4-5.87 10.89-1.19-1.8-2.01-3.83-2.41-5.96s-.36-4.32.1-6.43v-107.89c.07-16.81.26-16.89 17.57-17.02 15.24-.11 30.5-.51 45.71.18 3.3.21 6.61-.35 9.65-1.64 3.05-1.3 5.75-3.29 7.88-5.81l-.76 55.85c0 4.99-2.28 11.12 4.33 14.28zm1093.38 14.06l-3.14-3.55c1.93-11.26-3.94-18.49-12.49-24.39l-97.51-67.28-38.94-26.96c-2.7-1.46-4.95-3.63-6.51-6.27-1.56-2.63-2.36-5.65-2.34-8.71-.38-9.76-2.87-19.31-7.29-28.01 5.48.58 10.62 2.99 14.57 6.84l143.5 97.63c7.87 5.3 12.26 10.53 11.09 20.6-1.54 13.27 1.21 26.76-.94 40.1z" class="B"/><path d="M2219.48 1967.92l-117.02-60.45c-17.22-8.89-17.51-9.48-12.12-29.86 6 .72 11.73 2.93 16.66 6.43l88.48 44.1c5.13 3.31 10.82 5.67 16.79 6.97l3.92 3.3 3.22.06.07 29.45z" class="G"/><path d="M2219.43 1927.51c-13.65-9.13-28.11-16.99-43.19-23.49l-71.85-35.95-9.76-4.98c-5.66-2.77-9.28-7.2-5.5-12.99 3.24-4.99 7.75-.39 11.17 1.24l98.65 47.39c6.53 3.14 12.63 7.58 20.46 6.76 1.03 7.3 1.04 14.71.02 22.01v.01z" class="K"/><path d="M-107.733 2995.56l.236-154.05c.039-15.84.393-14.83 16.271-18.92a178.05 178.05 0 0 1 39.976-3.03c13.493-.42 17.292-3.43 16.985-13.36-.275-9.25-3.59-11.99-16.258-12.23-14.666-.27-29.351-.39-44.017.03-9.235.26-12.576-3.16-13.238-12.66-1.166-16.67 3.996-32.57 3.976-49.1l-.118-674.95-.013-12.84c-.15-7.01-.196-13.53 9.38-14.71 4.376-.55 6.524-6.68 3.105-7.7-18.472-5.48-11.62-19.47-11.718-31.2 0-.45.628-.91 1.002-1.41 3.95-1.07 6.989 1.32 10.218 2.89l131.861 63.94c18.688 9.01 37.297 18.25 56.449 26.17 12.478 5.17 16.768 12.61 16.657 26.3-.655 80.7-2.548 161.48.157 242.09 6.452 192.44.694 384.89 3.878 577.3.373 22.33 2.279 44.93 3.157 67.43l-227.946.01z" class="E"/><path d="M229.562 2995.39l.556-56.86.144-724.69v-9.17c.105-20.08.105-20.15 20.057-20.21l69.713.06c103.879 2.42 207.713-7.27 311.461-2.95 91.041 3.78 182.003 1.49 272.984 2.91 15.655.25 15.786.39 15.8 18.91l.864 354.07c4.67 146.07.223 292.08 3.164 438.09l-81.609-.12a28.28 28.28 0 0 1-5.24-19c-2.437-42.71-2.784-85.48-4.061-128.21l-7.729-269.28-6.419-245.43a21.88 21.88 0 0 1 2.6-13.83c13.415-27.47 10.238-34.87-18.72-44.28-4.809-.94-9.716-1.27-14.607-.98l-430.077-.04c-3.036-.08-6.072.12-9.072.59-27.184 8.45-31.874 18.64-20.109 44.1 2.29 4.31 3.945 8.92 4.912 13.7-2.24 60.97-1.565 121.99-5.567 182.85-.891 13.44-.937 26.86-.813 40.28.577 61.66-3.517 123.19-4.755 184.81l-6.675 235.95a26.12 26.12 0 0 1-5.181 18.92l-81.621-.19z" fill="#b8d0f0"/><path d="M832.347 2995.52l-81.124-.01c-1.849-2.44-3.164-5.24-3.862-8.22-.697-2.97-.76-6.06-.185-9.07 5.62-87.95 3.163-176.05 1.532-264l-2.41-115.39c-.45-21.38-2.136-42.72-5.05-63.91-7.127-60.68-45.806-94.85-98.502-117.14-20.253-8.58-41.246-15.57-59.122-28.98-4.126-3.09-8.842-5.14-13.434-1.4-21.321 17.35-47.574 24.99-72.052 35.72-61.906 27.15-88.748 76.18-89.829 140.95l-4.736 267.63.682 138.98c0 8.41 1.428 17.29-4.756 24.58l-77.835.14c-9.74-20.47-4.651-41.93-3.492-62.94.629-11.55 2.398-23.07 2.077-34.69-1.828-67.22 2.502-134.38 4.958-201.42 1.991-54.22-1.532-108.77 6.197-162.8 14.181-99.14 65.187-188.4 171.719-214.54 20.27-4.75 39.776-12.31 57.949-22.47 4.14-2.64 8.92-4.1 13.829-4.24 4.908-.13 9.76 1.08 14.035 3.49a456.51 456.51 0 0 0 75.537 27.91c72.34 22.93 115.578 74.77 140.776 143.74a316.54 316.54 0 0 1 18.039 102.29l8.083 276.39c1.821 46.38-.576 92.86 3.937 139.11.225 1.82.08 3.68-.428 5.44-.507 1.77-1.367 3.42-2.526 4.84l-.007.01z" class="E"/><path d="M399.498 2995.26l-.635-42.19-3.452-72.14c-.786-12.38 3.982-23.91 3.714-36.3-.675-30.57.524-61.18-.282-91.74-1.736-65.39 4.854-130.56 4.336-195.94-.337-30.79 8.678-60.95 25.854-86.5 12.146-17.75 28.483-32.22 47.561-42.14 20.557-10.77 41.642-20.5 63.176-29.16 10.396-3.54 19.801-9.51 27.439-17.4 5.718-6.52 10.585-8.56 17.469.18 9.779 12.42 25.264 16.85 39.32 22.38 25.636 9.76 49.973 22.63 72.465 38.32 27.085 19.29 40.637 46.51 47.423 77.54a349.77 349.77 0 0 1 7.631 81.65c-.537 27.51-1.755 55.18.347 82.55 6.57 85.48 1.16 171.04 3.446 256.51.491 18.5-4.035 36.34-4.088 54.63l-150.391.3c-7.31.02-14.627.55-21.943.86l-14.385-1.24c-1.237-2.95-1.712-6.16-1.381-9.33a19.03 19.03 0 0 1 3.274-8.85c1.965-2.91 8.306-3.39 7.16-6.88-1.553-4.75-7.258-1.95-11.188-2.53-39.661.94-79.283.61-118.885.23-15.426-.15-28.533.16-26.463 21.09.229 2.32-1.893 4.39-3.531 6.22l-13.991-.12z" class="D"/><path d="M130.772 2995.4c.079-83.78 2.653-167.64-.282-251.32-6.458-183.93.485-367.91-3.917-551.77l-2.836-192.21c-.065-4.27.236-8.58-.033-12.83-.524-8.47 3-12.19 11.725-12.1l71.548-.02c8.351-.09 12.72 2.79 12.183 11.63-.256 4.26-.007 8.55-.007 12.84l-.995 759.52-2.627 216.05c-.124 6.72.151 13.45.249 20.17l-85.008.04z" class="F"/><path d="M832.347 2995.52a155.09 155.09 0 0 1-3.766-49.03c1.349-66.55-3.439-132.98-4.913-199.45-.891-40.17.393-80.57-3.065-120.59-2.47-28.65-.216-57.5-3.668-85.74-7.88-64.32-29.83-123.23-78.471-168.79-22.893-21.23-50.597-36.57-80.731-44.72a306.63 306.63 0 0 1-71.692-27.23 16.99 16.99 0 0 0-10.044-3.63 17.06 17.06 0 0 0-10.235 3.05 181.85 181.85 0 0 1-60.641 24.51c-36.989 8.69-70.952 27.19-98.318 53.55-23.499 24.16-41.264 53.29-51.982 85.25a305.6 305.6 0 0 0-19.258 86.89c-1.782 26.82-1.349 53.58-2.666 80.32-2.666 54.23-1.683 108.64-4.611 162.74-2.214 40.91.36 81.84-3.288 122.45-2.411 26.82-2.293 53.54-3.328 80.3l-10.493.18c-.059-33.56-2.692-67.36.471-100.62 3.937-41.45-.406-82.98 3.583-124.07 4.081-42.06-.353-84.2 3.708-125.9 3.976-40.84-.249-81.73 3.576-122.24 4.035-42.64.478-85.32 3.779-127.73 1.756-22.49 2.215-44.9 3.132-67.35a6.46 6.46 0 0 1 1.206-2.34c.557-.68 1.249-1.25 2.033-1.65.783-.41 1.643-.66 2.524-.72s1.767.06 2.601.35a11.99 11.99 0 0 1 5.293 5.99c1.172 3.49 1.799 7.13 1.86 10.81-.826 35.36 3.039 70.87-3.229 106.39a225.3 225.3 0 0 1 99.104-116.09 191.05 191.05 0 0 1 42.098-17.87 487.44 487.44 0 0 0 79.224-28.51c1.826-.54 3.699-.9 5.594-1.08a92.43 92.43 0 0 1 14.41-.04c1.919.14 3.821.45 5.679.95 33.157 15.93 69.596 22.62 103.447 36.61 56.312 23.27 105.778 78.68 120.542 134.85-5.037-21.63-1.755-43.64-3.065-65.47.196-18.1-.884-36.21.616-54.21.491-5.93.641-16.36 11.927-8.02 1.147 1.01 2.053 2.26 2.649 3.67.596 1.4.869 2.93.797 4.45.039 4.28.177 8.56.065 12.83-1.703 67.14 3.295 134.16 4.887 201.21.982 41.4-.825 83.06 3.177 124.22 4.035 41.5-.302 83.08 3.668 124.24 4.074 42.11.458 84.2 3.609 126.09 2.194 23.63 3.049 47.36 2.561 71.09l-10.349.09-.007.01z" class="L"/><path d="M413.491 2995.38a70.09 70.09 0 0 0-1.435-17.99c-3.144-12.94-1.827-14.53 12.026-14.58l143.711-.07a4.04 4.04 0 0 1 1.355 1.41c.328.58.508 1.23.525 1.89a64.75 64.75 0 0 0 .079 7.99 4.31 4.31 0 0 1-.519 1.88c-.315.58-.758 1.08-1.296 1.46.61 6.22-.582 12.49-3.432 18.06l-151.014-.05z" class="K"/><path d="M1268.8 2995.58l.29-146.24.13-14.62a10.65 10.65 0 0 1 .62-4.51c.53-1.44 1.38-2.75 2.47-3.83a10.54 10.54 0 0 1 3.86-2.43c1.44-.51 2.99-.71 4.52-.56 3.66-.1 7.32 0 10.97-.17 3.51-.17 8.32.63 8.66-4.24.29-4.13-3.59-5.94-7.48-6.48-1.8-.25-3.65-.2-5.48-.29-13.65-.49-16.83-7.58-16.78-20.83l.33-423.31c0-21.74 1.5-23.25 23.93-24.1 8.54-.33 17.11-.03 25.61-1.1 1.92.1 3.79-.56 5.23-1.82a212.61 212.61 0 0 0-35.67 1.62c-13.9 1.57-19.46-3.68-19.38-18.54l.21-289.48c5.05-14.63 17.86-6.69 26.45-9.61-8.8-2.55-19.86 2.16-28.16-5.89l-.1-25.65c-.29-1.79-.2-3.62.27-5.37.48-1.75 1.32-3.38 2.47-4.78 1.16-1.39 2.6-2.52 4.24-3.31 1.63-.79 3.41-1.22 5.22-1.26l298.23-58.98 67.66-14.33c5.2-2.74 8.3-.91 8.85 4.64.7 7.3-.22 14.69.36 21.98.77 9.65-3.68 13.32-12.81 13.03a259.54 259.54 0 0 0-27.47-.29c-7.35.55-13.12 2.57-13.19 11.67-.06 8.7 4.8 11.77 12.51 12.42 7.93.67 15.87.33 23.81.77 11.46.64 18.85 4.8 17.1 17.96a56.02 56.02 0 0 0-.04 7.33l-.07 982.43c.9 6.05.4 12.23-1.44 18.07l-385.93.1z" class="I"/><g class="F"><path d="M1033.78 2995.42l.89-291.61c6.24-188.18.97-376.35 3.02-564.5.15-14.07 5.53-27.54 3.83-41.75-.71-5.92 3.67-8.67 8.23-10.81 24.3-11.42 47.45-25.25 72.59-34.97 5.68-2.2 11.08-5.12 16.58-7.78l103.95-50.09c4.53-2.16 10.03-7.08 14.23.24 3.61 6.29.37 22.55-4.7 24.59-3.82 1.53-8.72.75-10.98 7.34 19.63 4.15 16.61 19.63 16.61 34.08l-.07 748.35c-17.68 10.17-36.65 2.91-54.69 4.52 17.34 6.6 37.51.77 54.67 10.29l.3 172.17-224.46-.07zm-99.021.06l.196-247.75-.059-609.3c.924-9.15-.021-18.39-2.777-27.16a14.1 14.1 0 0 1-.675-7.24c5.863-38.25-3.223-76.47-.177-114.73 1.048-13.16.832-13.83 13.402-13.98l69.731-.19c9.86-.17 13.13 4.31 12.38 13.32-.16 1.82-.02 3.67-.02 5.5l-.89 456.95c-4.62 176.69-.61 353.31-2.83 529.95-.06 4.9.12 9.79.19 14.68l-88.471-.05z"/></g><g class="J"><path d="M1654.74 2995.48l-.26-234.72.02-761.03c0-26.88 1.96-24.37-24.89-24.48-4.29-.02-8.59.3-12.84-.07-6.49-.57-15.35 3.19-18.85-3.2-4.71-8.56-2.95-19.06-1.14-28.62 1.01-5.33 6.47-4.81 10.63-4.72a215.79 215.79 0 0 1 38.37 1.23c2.36.47 5.15 1.71 6.68-.6 3.99-6.08 1.7-13.06 1.93-19.63.19-5.79 1.84-12.91-7.27-14.16 4.76-4.85 9.13-4.34 10.49 2.31.78 6.06.95 12.18.52 18.28v1045.55l.08 23.84-1.74.11-1.73-.09zm100.39-550.29c-18.63-1.48-39.51 2.73-59.88-3.55-11.86-3.65-15.35-7.67-15.05-19.23.29-11.17 5.4-16.16 16.57-17.7 11.27-1.55 21.57 3.68 32.56 3.65l53.14.04a78.65 78.65 0 0 1 23.43 3.08c12.73 3.82 15.1 6.62 13.6 18.92-1.39 11.53-5 14.58-18.42 14.74l-45.95.05zM1731.51 2120v53.02c0 3.66.14 7.32-.08 10.97.2 3.41-.88 6.76-3.02 9.41a13.72 13.72 0 0 1-8.57 4.92c-8.85 1.26-11.53-6.55-12.75-12.78-2.62-12.45-4.18-25.1-4.65-37.81-.63-31.68-.41-63.38-.11-95.07.13-13.32 3.84-17.51 13.93-20.32 6.11-1.7 9.95.41 11 5.94a118.25 118.25 0 0 1 4.44 26.87c-.68 18.27-.2 36.57-.19 54.85z"/></g><g class="C"><path d="M2010.54 2064.45c-6.89 44.75-2.51 89.81-3.71 134.73-.2 7.22-1.21 13.65-10.19 14.41-7.57.63-9.83-4-12.05-14.63-7.2-34.54 2.05-68.84.72-103.29-.44-11.84 3.95-23.83 3.46-36.08.21-3.03 1.04-5.98 2.45-8.67 2.17-5.27 5.05-10.23 11.97-8.64 5.68 1.31 7.2 5.99 7.33 11.21.09 3.65.02 7.3.02 10.96zm-139.51 8.29c-5.07 39.34-3.47 78.88-3.63 118.37.07 2.44-.09 4.87-.5 7.27a7.86 7.86 0 0 1-1.83 4.1c-.99 1.16-2.31 2-3.78 2.43-3.39.89-5.72-1.27-7.89-3.45-2.23-2.1-3.68-4.9-4.11-7.94-4.49-26.93-5.05-54.38-1.69-81.48 1.64-17.57 2.13-35.23 1.45-52.86-.26-4.85.09-9.71 1.03-14.48 1.53-5.37 5.22-10.4 11.72-9.21 2.78.32 5.31 1.73 7.05 3.91 1.75 2.19 2.55 4.97 2.25 7.75-.26 8.53-.07 17.06-.07 25.59z"/></g><path d="M1931.37 2625.03c28.01-1.57 56.61 5.57 85.66 7.44 5.07.33 8.08 2.55 7.71 7.95-.4 5.8-4.67 6.46-9.17 6.47-7.25-.64-14.43-1.96-21.43-3.93-17.96-3.36-36.38-1.63-54.17-6.23a36.54 36.54 0 0 0-21.67 1.24 71.08 71.08 0 0 1-25.42 1.48c-.75.1-1.52.05-2.26-.17a5.54 5.54 0 0 1-2-1.07 5.64 5.64 0 0 1-1.4-1.78c-.34-.69-.53-1.43-.56-2.2a6.44 6.44 0 0 1 1.03-3.43c.66-1.02 1.6-1.83 2.7-2.35 4.23-2.5 9.1-3.71 14-3.45l26.98.03z" class="F"/><g class="C"><path d="M1669.23 1975.43l.02-33.39c12.69.89 25.41-.69 38.09 3.15 7.52 2.28 10.98 5.34 8.61 12.59-6.12 18.78-.98 17.35-21.09 17.51l-25.63.14zm350.41 308.11c-9.72 0-19.43.05-29.14-.03-3.71-.03-7.88-.43-8.22-5.11-.35-4.84 3.71-5.72 7.47-5.73l60.1.11c3.75.03 7.76.97 7.27 5.9-.48 4.74-4.7 4.88-8.35 4.92l-29.13.03v-.09zm53.2-323.14v11.36l-49.52-.17c-3.05-.01-6.13.13-9.15-.17-4.32-.43-9.32-1.22-8.83-6.85.44-4.97 5.43-3.96 8.81-3.99l58.69-.18zm-205.71-7.15c1.43-.07 2.87-.07 4.3.02 6.12.81 15.77-2.38 15.57 7.29-.14 6.32-8.62 7.24-14.81 7.3-7.31.06-14.65.03-21.96-.32-1.24.02-2.46-.34-3.49-1.04-1.02-.69-1.81-1.68-2.26-2.84-1.22-3.64 1.57-5.59 3.84-7.43 5.85-4.73 12.91-2.38 18.8-2.98h.01zm202.12 928.71l.02 14.69c-7.25-.04-14.49.07-21.73-.16-5.21-.16-9.99-1.99-10.32-7.92-.41-7.39 5.69-6.39 10.3-6.53 7.24-.21 14.48-.07 21.73-.08z"/></g><path d="M575.121 1711.03l320.945.01c21.609 0 23.895 1.9 24.013 24.26l.131 165.06c-.026 18.57-1.12 19.69-19.834 19.7l-300.783.03c-113.515 0-227.031 0-340.55-.02-27.871-.01-25.244 2.58-25.271-25.92l.086-165.06c.039-17.88.216-18.03 18.471-18.04l322.792-.02z" class="E"/><path d="M1658.2 1682.2c.06-8.71-3.63-11.84-12.09-11.75-44.53.51-88.88-5.9-133.48-3.5-6.06.16-12.1.96-18 2.38-34.25 9.07-67.29 21.81-100.97 32.52l-95.69 30.92c-11.5 3.81-11.64 5.28-6.88 18.68a7.1 7.1 0 0 1 1.87 2.41c.43.93.66 1.94.66 2.97 0 1.02-.22 2.04-.65 2.97a7.07 7.07 0 0 1-1.86 2.41c-7.71 3.47-6.86 10.4-7.54 17.16-1.59 15.69-4.68 31.24-5.71 46.94-1.32 20.41-8.35 40.54-3.96 61.73 8.99-1.1 17.31-1.19 25.75-2.92 29.13-5.96 58.46-10.99 87.75-16.18l116.59-20.36 95.05-16.68c14.94-2.7 29.68-6.26 44.83-8.13 7.67-.96 14.64-3.76 14.46-15.02l-.13-126.55h0zm-196.83 130.79c-9.03 1.19-18.04 2.77-27.04 4.26-7.14 1.18-11.56-.68-12.38-8.86-1.49-15.13-3.57-30.21-5.11-42.88-.31-15.55 4.37-30.78 13.35-43.48 5.45-7.49 9.72-6.96 16.04-1.08a51.17 51.17 0 0 1 16 23.97c4.71 18.29 7.69 36.98 8.92 55.83.38 1.47.42 3.01.1 4.5s-.97 2.88-1.92 4.07a9.84 9.84 0 0 1-3.55 2.78c-1.38.64-2.89.94-4.41.9v-.01zm-1583.212 33.04c-4.533-33.06-7.926-66.27-11.233-99.48.151-3.33-.909-6.6-2.984-9.21s-5.025-4.37-8.302-4.97c-13.533-3.62-26.876-7.96-40.199-12.27l-153.057-49.7c-5.76-1.99-11.762-3.18-17.843-3.54-44.581-2.1-88.945 3.55-133.453 3.63-7.402.02-11.397 2.53-11.358 10.55l.013 130.23c-.013 9.16 4.356 12.73 13.33 13.64 12.039 1.23 23.953 3.82 35.881 5.96l87.825 15.8 116.554 20.47 126.68 22.39c1.844-14.5 1.218-29.21-1.854-43.5zm-147.51-36.94c-.334 5.96-3.124 8.97-9.294 8.36-1.212-.11-2.424-.16-3.649-.26-37.185-2.84-39.366-5.24-33.753-41.88 1.176-13.4 4.477-26.53 9.78-38.89 4.552-9.05 11.469-19.39 20.266-19.47 9.891-.11 13.192 12.61 17.122 21.42 3.369 9.08 4.569 18.82 3.504 28.44.721 14.54-3.229 28.25-3.982 42.27l.006.01z" class="F"/><path d="M920.277 2056.02c-.34 33.68 3.812 29.3-29.168 29.31l-638.418.07c-24.452 0-22.507.97-22.526-23.23l.078-73.38c.053-5.85-2.096-12.41 3.669-17.13 9.052 14.08 3.334 29.79 4.834 44.7.655 6.55-.459 13.17.327 21.65a90.09 90.09 0 0 1 2.627-21.56c4.323-16.35 15.275-26.37 28.722-26.41 13.487-.06 24.367 9.96 28.985 26.15 2.738 9.59.956 20.73 8.947 29.08 6.76-4.89 4.494-11.61 5.325-17.29.849-9.8 4.703-19.11 11.037-26.64 16.664-18.17 40.664-13.76 49.88 9.15 4.258 10.6 3.662 22.8 9.74 33.22 8.083-3.51 6.681-10.61 8.319-16.02a63.52 63.52 0 0 1 9.032-21.87c7.88-10.08 17.378-17.88 31.133-15.17 13.251 2.6 18.105 13.4 21.262 25.04 2.489 9.15 1.887 19.25 7.926 28.33 7.127-4.75 5.089-11.44 5.974-16.95.828-10.47 5.444-20.27 12.982-27.57a28.64 28.64 0 0 1 13.154-6.85c4.91-1.09 10.021-.87 14.817.65 4.797 1.51 9.11 4.26 12.505 7.97 3.395 3.72 5.753 8.25 6.836 13.17 2.6 9.28 2.057 19.37 7.29 29.19 5.719-2.84 5.057-7.98 5.43-12.28a68.9 68.9 0 0 1 8.044-27.97c2.537-5.62 6.71-10.34 11.974-13.54 5.264-3.21 11.374-4.75 17.528-4.42 14.463.58 21.635 9.62 26.371 21.81a94.03 94.03 0 0 1 4.775 21.39c.786 5.66-.157 12.55 7.592 15.12 5.98-4.55 3.949-11.14 4.421-16.9 1.88-22.77 10.546-33.47 27.943-34.06 19.166-.64 29.823 9.43 33.295 31.21 1.015 6.38.065 13.56 7.047 18.89 6.891-6.02 4.887-14.62 6.426-21.85 4.192-19.71 12.596-30.13 26.004-31.27 14.751-1.24 27.432 9.43 34.205 27.89 3.053 8.3 1.926 18.27 9.826 26.2 8.593-8.5 7.382-19.6 10.251-28.97 4.061-13.25 9.956-23.83 25.447-24.83 15.039-.97 27.026 8.06 32.685 24.14 3.406 9.7 4.173 20.17 8.031 30.95 7.297-3.26 5.993-9.27 6.497-14.05.309-9.84 3.553-19.36 9.315-27.34 3.048-4.64 7.364-8.3 12.435-10.55s10.681-3 16.163-2.15c5.478.89 10.56 3.4 14.581 7.23 4.021 3.82 6.793 8.77 7.951 14.2 2.628 8.79 4.162 17.87 4.566 27.04.242 6.11.092 12.38 5.908 16.5z" class="H"/><path d="M2071.45 1811.76c-1.66-7.75-2.41-15.66-2.26-23.58-16.33-7.23-18.66-20.76-17.2-36.6 1.14-12.3 2.2-24.61 2.57-36.98-3.01-14.87.13-31.26-11-44.11-6.4-2.12-13.21-2.67-19.87-1.61-112.56-.16-225.12.02-337.74-.15-1.61-.1-3.21.4-4.47 1.4-1.27 1-2.13 2.44-2.41 4.03-.11.39-.22.79-.31 1.19-.46 1.82-.75 3.78-1.38 5.49-.34 1.03-.9 1.96-1.63 2.75-.93.96-2.15 1.57-3.48 1.73-1.84 7.25-3.68 14.26 6.29 17.53 7.16 2.35 7.38 8.9 7.54 15.01.31 11.47.64 22.98-.04 34.42-.59 9.76 4.87 22.83-12.33 25.24-4.08.55-2.26 6.13-2.7 9.54-.83 6.44 1.87 13.23-1.83 19.41 3.06 14.18 3.06 14.64 17.6 14.47 78.19-.86 156.3 1.67 234.46 3.56 43.41 1.05 86.85.28 130.28.33 3.04 0 6.11.13 9.15-.03 11.67-.65 13.64-2.36 10.76-13.04zm-209.41-37.77c-6.68.2-13.38.05-20.08.05-3.02.24-6.05.63-9.1.73-15.2.45-16.25-.38-16.97-15.98a202.39 202.39 0 0 1-.23-43.6c2.19-13.07 5.96-28.96 17.46-31.9 10.5-2.72 17.19 13.06 23.45 22.36 13.02 19.33 10.45 41.97 11.79 63.66.26 4.26-3.36 4.58-6.31 4.68h-.01z" class="F"/><path d="M920.276 2056.02c-7.585.53-11.482-2.58-11.017-10.61.517-9.75-.628-19.52-3.387-28.89-4.375-15.33-9.982-21.35-22.65-22.28-9.367-.69-20.882 8.78-25.631 20.35a62.06 62.06 0 0 0-3.458 23.36c-.19 12.81-.393 12.8-16.736 16.15a365.23 365.23 0 0 0-6.996-39.07c-1.243-5.37-4.113-10.22-8.216-13.9-4.102-3.67-9.239-5.99-14.709-6.64a18.96 18.96 0 0 0-14.132 1.69c-4.313 2.38-7.533 6.34-8.977 11.04-3.714 9.68-6.158 19.79-7.271 30.1a20.75 20.75 0 0 1-4.5 11.79 7.65 7.65 0 0 1-3.167 2.55 7.62 7.62 0 0 1-4.028.56c-1.368-.19-2.66-.74-3.739-1.6s-1.901-2-2.382-3.3c-2.368-4.96-3.847-10.3-4.369-15.78a53.35 53.35 0 0 0-8.81-25.72 24.61 24.61 0 0 0-10.763-9.78 24.54 24.54 0 0 0-14.403-1.99c-4.56.76-8.739 3.02-11.889 6.4a21.03 21.03 0 0 0-5.534 12.32 77.48 77.48 0 0 0-3.551 21.54 19.33 19.33 0 0 1-3.799 13.85c-4.388 5.83-12 5.2-13.925-1.67-2.408-7.55-3.91-15.35-4.474-23.24.121-4.3-.808-8.56-2.706-12.41s-4.71-7.18-8.189-9.7a26.47 26.47 0 0 0-11.773-4.76c-4.254-.6-8.589-.15-12.631 1.3-4.585 1.76-8.534 4.86-11.332 8.89-2.798 4.04-4.316 8.82-4.356 13.74-.55 7.29-.196 14.67-.216 22-.019 5.47-1.467 9.55-8.024 9.89-2.407.47-4.899-.04-6.935-1.41-2.035-1.36-3.451-3.47-3.938-5.88-2.033-5.1-3.067-10.55-3.046-16.05.117-8.6-1.945-17.08-5.993-24.67-8.188-18.33-28.736-20.87-41.463-5.07-7.185 9.23-11.145 20.56-11.273 32.26-.17 4.28-.091 8.56-.209 12.84-.171 6.43-4.16 8.12-9.806 7.96-5.129-.14-8.489-2.52-8.089-7.7-.327-9.13-1.662-18.19-3.983-27.03-1.297-9.26-2.928-18.36-14.797-20.11-15.55-2.29-26.986 2.55-32.325 14.46a62.38 62.38 0 0 0-4.316 28.72c.242 5.7-.066 11.23-8.024 11.68-6.917.39-10.061-2.52-10.343-9.46-.321-7.9-4.297-15.18-3.819-23.38-.355-6.17-2.678-12.06-6.628-16.82a17.17 17.17 0 0 0-4.445-5.2 17.03 17.03 0 0 0-6.13-3.04c-2.227-.58-4.551-.71-6.83-.38a17.2 17.2 0 0 0-6.431 2.33 34.03 34.03 0 0 0-13.153 9.75 34.1 34.1 0 0 0-7.074 14.77c-2.551 7.52-4.024 15.36-4.376 23.29.374 5.03-2.404 7.89-7.696 8.11-5.443.22-9.387-.88-10.356-7.42a283.78 283.78 0 0 0-5.522-28.6c-3.504-13.69-12.57-21.95-23.279-22.32-9.76-.33-21.649 8.82-26.345 19.81-3.208 9.25-4.477 19.06-3.727 28.82-.007 5.65-.406 12.09-7.841 12.07-1.389.04-2.773-.19-4.068-.7-1.295-.5-2.475-1.26-3.468-2.24-.993-.97-1.779-2.13-2.311-3.42a10.29 10.29 0 0 1-.784-4.05c-.537-6.03-4.146-11.49-3.537-17.85a24.25 24.25 0 0 0-.635-7.28c-3.255-15.04-13.375-25.16-25.002-25.15-11.633 0-21.851 10.08-24.963 25.17a116.81 116.81 0 0 1-2.652 17.96c-2.116 5.51.615 12.39-6.105 17.97-5.777-13.94-2.26-27.77-2.856-41.09-.635-14.04-.085-28.13-.052-42.19 208.197-8.16 416.485-1.49 624.715-3.96 17.843-.22 35.05 4.02 52.716 4.02 8.928 0 8.941 6.42 8.934 12.79v71.51z" class="E"/><path d="M577.205 1699.96H258.121c-4.893 0-9.78-.13-14.673-.07-7.068.1-9.085-3.75-9.707-10.31-3.138-32.98-2.64-33.68 30.412-33.68l632.668.01c25.008 0 23.292-2.31 23.397 24.13.013 3.67-.118 7.33-.118 11 0 6.13-3.249 8.8-9.144 8.82l-14.673.1H577.205z" class="H"/><path d="M1271.14 1745.12l-139.78 83.34-78.31 47.27a20.34 20.34 0 0 0-8.71 7.72 20.32 20.32 0 0 0-3.03 11.24l.11 116.13 154.84-82.1 48.51-25.81c3.45-1.23 6.51-3.38 8.84-6.21s3.85-6.24 4.39-9.87l14.37-117.44a57.63 57.63 0 0 0-1.23-24.27zm-121.26 170.45c-5.14-19.97-7.02-40.64-5.57-61.21.5-6.79 1.02-16.97 9.88-16.75 7.32.18 8.04 9.49 8.55 16.26l2.91 41.98c.76 13.93.6 13.93-15.77 19.72zm-1037.154-21.16c.055-3.95-1.052-7.84-3.182-11.17a20.18 20.18 0 0 0-8.805-7.58L-89.32 1762.73c-8.496-4.96-15.818-13.61-27.112-13.48a29.95 29.95 0 0 0-1.388 20.22c5.653 29.89 7.467 60.19 10.152 90.36 1.959 22.18 3.734 43.56 30.813 50.37 4.979 2.27 9.682 5.1 14.017 8.44l148.296 79.59c7.958 4.25 16.165 8.05 27.176 13.51l.092-117.33zM3.024 1916.6c-12.648-3.15-16.834-8.97-15.897-19.32 1.1-12.12.917-24.36 1.703-36.51a115.73 115.73 0 0 1 2.705-16.15c.157-1.84.895-3.58 2.105-4.97a8.69 8.69 0 0 1 4.629-2.76c4.716-.75 6 3.51 7.231 6.74a43.48 43.48 0 0 1 3.249 12.31c.502 20.38-1.42 40.74-5.725 60.66z" class="F"/><path d="M573.328 2169.85H257.806c-4.283 0-8.567.09-12.838-.02-13.644-.38-14.515-1.16-14.744-12.55-.275-13.29 2.292-16.1 15.524-16.74 3.668-.18 7.336-.05 11.004-.05h640.226l7.336.02c15.387.34 16.133 1.66 16.133 16.9 0 9.72-4.126 13.16-13.251 12.48-4.257-.32-8.561-.04-12.838-.04H573.334h-.006z" class="E"/><path d="M576.321 2100.07h319.36l9.177.01c13.834.35 20.495 11.77 14.574 24.67-.62 1.39-1.648 2.56-2.947 3.35-1.299.78-2.807 1.16-4.324 1.07-4.886.22-9.786.21-14.672.21-96.667-.01-193.335.43-289.995-.26-38.299-.29-76.572.76-114.871.35l-117.464-.09-115.63.01c-3.668 0-7.343.06-11.011-.02-16.421-.35-20.711-5.62-18.157-21.35.832-5.13 3.21-7.67 8.253-7.78l14.673-.17h323.034z" class="G"/><path d="M1269.05 1948.72c.1-16.58 1.88-18.15 18.13-21.09l145-26.91 146.6-28.19 67.94-12.99c8.56-1.88 11.41.61 11.31 8.6-.22 3.05-.19 6.11.09 9.15 1.6 10.35-4.7 14.22-13.1 16.05l-41.07 8.3-253.56 50.81-66.27 12.33c-14.77 2.72-14.77 2.68-15.07-12.4-.02-1.22 0-2.44 0-3.67v.01zm-1387.578 18.14c-47.377-6.68-91.001-17.33-134.986-26.13l-194.631-38.94-37.52-7.41c-3.141-.86-6.047-2.42-8.499-4.56s-4.387-4.82-5.659-7.81c-1.272-3-1.848-6.25-1.685-9.5a21.58 21.58 0 0 1 2.625-9.29c2.45-4.1 5.948-2.99 9.655-2.28l50.142 9.27 189.64 35.58 114.412 22.1c15.497 3.03 16.395 4.3 16.5 20.62v18.35h.006z" fill="#b8d0f0"/><path d="M-738.317 1894.56h-154.741c-3.669 0-7.337-.17-10.992.01-7.545.38-10.847-2.75-11.286-10.63-.917-16.61.472-18.46 17.948-18.7l18.321-.04c75.621.55 151.177-3.44 226.766-4.91l126.032-2.42c5.044-.15 12.301-2.33 13.939 5.04 2.341 8.25 1.996 17.02-.983 25.06-.55 1.28-2.914 2.2-4.578 2.47-3.026.38-6.076.53-9.125.45-76.833.44-153.562 6.72-211.301 3.67zm2649.827-.17c-43.39 0-86.77.44-130.16-.15-33.47-.45-66.83-5.21-100.4-3.33-8.66.49-12.36-3.37-11.77-11.92.25-3.64.15-7.33.05-10.99-.19-6.7 2.66-10.43 9.69-10.17 39.57 1.44 79.29-3.14 118.78 2.86 5.46.63 10.96.85 16.45.68 34.22.12 68.57-1.73 102.62.68 46.94 3.32 93.84 2.62 140.77 3.31 13.59.2 19.67 10.77 14.77 24.01a7.86 7.86 0 0 1-3.42 4.09 7.87 7.87 0 0 1-5.24.99l-27.49.07h-124.65v-.13z" class="E"/><path d="M1012.03 1872.46l.09 80.21c.09 8.67-3.71 13.47-11.95 11.14-20.393-5.75-41.071-2.05-61.573-3.26a21.91 21.91 0 0 1-3.59-15.64l-.262-126.15c-.236-15.04 5.993-21.07 20.207-21.53 58.198-1.92 51.068 2.32 51.698 46.28.22 15.27-2.11 30.35-1.97 45.58l.25 45.61c-.58-17.25-.29-34.5.03-51.75.09-4.67-.1-10.27 7.07-10.49zm-796.532 88.1c-20.607 1.14-41.456-2.66-61.854 3.37-2.03.78-4.263.88-6.352.27a9.93 9.93 0 0 1-5.202-3.66c10.12-11.71 5.764-25.81 4.899-38.55-2.364-34.71-.458-69.39-1.179-104.08-.163-7.85 1.644-15.38 9.773-17.79a97.21 97.21 0 0 1 52.231-.31 10.66 10.66 0 0 1 5.756 4.37 10.62 10.62 0 0 1 1.639 7.03c.826 49.78 4.808 99.56.289 149.35z" class="D"/><path d="M1012.03 1872.46c-5.53 4.81-3.46 11.31-3.54 17.17l-.18 54.87c-.06 4.56 1.77 9.73-3.38 14.21-6.117-3.45-3.74-9.56-3.77-14.26l-.1-118.89-.05-12.8c.24-1.36.15-2.76-.27-4.08s-1.141-2.52-2.116-3.49c-.974-.98-2.17-1.71-3.485-2.14a8.66 8.66 0 0 0-4.075-.29c-10.972.07-21.943-.06-32.921-.02-19.336.08-19.441.11-19.474 18.79l-.052 120.72-.027 18.3c-9.137-1.34-7.159-8.5-7.192-14.26l-.059-73.38.007-141.27c.039-20.03 4.598-23.97 24.308-19.13 14.004 3.43 27.969 1.33 41.934 2.05 13.982.72 14.352.55 14.402 14.8l.04 143.1zm-796.532 88.1c-.013-24.97-.845-49.98.197-74.91 1.028-24.43-6.092-48.26-3.983-72.66.576-6.63-2.659-10.24-9.622-10.2-13.402.06-26.803-.02-40.205.02-1.683-.24-3.401-.09-5.015.44-1.614.54-3.08 1.45-4.279 2.65a10.9 10.9 0 0 0-2.628 4.3c-.528 1.61-.669 3.33-.412 5.01 1.362 35.18-3.288 70.48 2.712 105.61 1.004 10.3 1.245 20.66.72 31 .144 7.68-4.801 8.89-10.893 8.72-.019-39.06-1.022-78.15.236-117.17 1.14-35.41-4.899-70.43-3.91-105.75.104-3.66.235-7.34 0-10.98-.544-8.42 2.947-12.54 11.672-12.06 5.476.29 10.985.08 16.474 0 12.16.43 24.329-.56 36.261-2.94 12.924-3.19 15.937.28 16.323 13.88.151 5.5.027 10.99.027 16.48l-.138 199.57c-.02 6.4 2.45 13.58-3.537 18.99z" fill="#b1d0ff"/><path d="M-102.06 1939.82c12.963 6.36 24.727 11.37 35.778 17.65 53.096 30.16 108.798 55.18 162.948 83.25 17.738 9.2 18.013 9.58 13.631 33.26-14.103-6.09-28.114-11.54-41.613-18.06l-161.357-78.23c-8.607-4.08-12.504-8.37-11.312-17.62-.308-6.8.34-13.62 1.925-20.25zm1145.17 133.32c-2.95-23.69-2.93-23.64 15.18-32.87l181.11-92.35c5.02-3.38 10.67-5.7 16.61-6.81 3.43 5.61 1.28 11.21 1.98 16.49a17.63 17.63 0 0 1-2.13 12.28c-2.17 3.7-5.63 6.48-9.71 7.82l-196.63 94.21c-2.09.64-4.23 1.05-6.41 1.23z" class="E"/><path d="M1717.32 1832.25c92.05 6.86 184.28 1.44 276.36 4.22l69.24 3.01c5.4.1 9.96 1.34 9.43 8.13-.44 5.74-4.81 6.62-9.28 6.37-22.47-1.19-45.14 3.19-67.45-2.79-3.6-.66-7.28-.89-10.94-.67-7.33-.14-14.66-.14-21.99-.03-83.62 1.78-167.08-6.35-250.72-3.82-12.16.36-23.82-5.06-36.2-3.93a4.89 4.89 0 0 1-2.28-.2c-.74-.25-1.4-.67-1.94-1.22-.53-.56-.93-1.24-1.15-1.98a4.76 4.76 0 0 1-.12-2.28c.44-3.68 3.5-4.75 6.71-4.77l40.33-.04zm-2448.366 3.5l69.667.04c43.906.46 87.615-6.33 131.554-3.53 6.026.38 16.565-3.69 16.768 5.16.197 9.16-10.369 4.87-16.31 5.64-51.654 6.72-103.78.23-155.33 4.44-48.851 3.99-97.624.24-146.239 3.53-21.878 1.47-43.683 2.99-65.593 3.06-3.669.01-7.337 0-10.998-.18-.915.07-1.835-.05-2.7-.36a6.48 6.48 0 0 1-2.326-1.41 6.65 6.65 0 0 1-1.551-2.24 6.59 6.59 0 0 1-.51-2.68 6.38 6.38 0 0 1 .133-2.72c.24-.89.669-1.72 1.257-2.42.588-.71 1.322-1.28 2.151-1.68a6.43 6.43 0 0 1 2.655-.63c2.41-.3 4.873-.21 7.31-.35 56.637-3.41 113.324-4.63 170.062-3.67z" class="G"/><g class="E"><path d="M918.881 1934.94c-15.203 4.99-668.497 4.99-682.534.38 2.201-1.07-1.382.18.013-1.82.328-.47.917-1.06 1.395-1.07l671.445-1.21a10.62 10.62 0 0 1 5.324.6c1.695.65 3.195 1.72 4.357 3.12zm360.319-18.51c-4.24-.19-9.26.28-9.34-5.89-.07-5.03 3.46-7.45 8.13-8.35l39.34-7.53 93.25-16.09 118.23-20.9 87.68-16.22c9.69-.86 19.3-2.57 28.69-5.11 3.29-1.3 9.55-2.62 10.77 3.09 1.2 5.57-4.12 6.44-8.38 7.22l-60.85 11.16-123.31 23.87-180.56 34.37c-1.19.22-2.43.26-3.65.38zm-450.652 40.41c-66.026 0-132.084 1.23-198.064-.62-24.858-.69-49.906-4.49-74.738-2.69-100.695 7.29-201.483 1.33-302.198 3.32-5.758.11-12.039 1.86-17.266-2.31.576-5.9 5.004-4.53 8.24-4.81 3.642-.31 7.329-.09 10.998-.09l643.763.13c6.976 0 14.79-2.86 20.855 3.47-23.331 3.94-46.853.64-70.256 1.84-7.114.37-14.476-1.84-21.334 1.76z"/></g><g class="C"><path d="M1272.32 2030.08l-.03 287.97.03 7.34c.57 11.86 3.47 15.24 14.23 12.07 15.16-4.45 30.35-1.87 45.5-2.75 2.44-.06 4.88.04 7.31.32 1.23-.03 2.43.38 3.38 1.16s1.6 1.87 1.81 3.08c.65 3.77-1.75 5.44-5.08 6.09-13.71 2.84-27.68 4.23-41.68 4.16-28.09-.4-25.46-2.77-25.47 25.58l-.02 412.7c0 17.02.05 17.02 14.66 24.07-18.23-.65-18.31-.65-18.31-19.86l.02-761.95c.2-.3.47-.55.79-.72.32-.18.68-.26 1.04-.26.37 0 .72.09 1.04.27.32.17.59.43.78.73zm771.23-359.59l-342.24.2c-7.01.01-14.75-2.74-20.94 3.26l-1.29 1.38-1.88.12c-1.03-.39-2.32-1.62-3.08-.96-1.81 1.6-.65-.95.91.98.75 1.14 1.4 2.34 1.92 3.6.45.97.64 2.03.58 3.1-.07 1.06-.41 2.09-.97 2.99-3.39 5.49-10.48 12.16 4.01 11.63 7.94-.29 10.56 4.84 10.58 11.75l-.19 63.71c-.32 11.09-4.22 12.51-17.03 8.25-3.93 8.23 2.66 18.38-4.73 25.98l-.02-122.83c.04-16.4.27-16.69 16.11-16.69l344.7-.02c4.78 0 9.93-.97 13.56 3.55z"/></g><path d="M1043.2 2031.59c-2.67-5.8.84-6.77 4.14-8.78 19.79-12.06 40.92-21.6 61.14-32.87 43.66-24.35 88.21-47.11 132.56-70.18 4.72-2.46 11.53-10.35 15.45-3.03 4.29 7.99-5.68 10.5-11.27 13.46-11.33 6-22.95 11.43-34.37 17.27L1059.28 2025a40.98 40.98 0 0 1-16.08 6.59zm-931.699 2.38l-23.653-12.32-137.409-68.84c-15.203-7.69-30.006-16.17-44.973-24.33-2.162-1.09-4.213-2.4-6.125-3.89a6.64 6.64 0 0 1-2.596-3.7c-.406-1.49-.276-3.09.369-4.5 1.828-3.57 5.103-2.34 7.834-.8 7.421 4.16 14.653 8.68 22.179 12.63l58.126 30.78c38.312 21.29 77.325 41.33 115.991 61.99 4.061 2.16 9.602 3.11 10.257 12.98z" class="E"/><g class="G"><path d="M1024.21 1962.71v-245.3c7.03-.75 6.08 3.91 6.08 7.12.11 46.99 1.76 94.06-.56 140.93-1.32 26.72 3.47 53.11.67 79.65-.59 5.61 1.79 12.16-6.19 17.6zm-899.458-.14v-245.58c2.524 4.48 3.431 9.69 2.568 14.76.144 20.12.812 40.28-.072 60.37-2.241 50.57 5.456 100.86 3.825 151.39.328 3.44-.065 6.91-1.153 10.19s-2.849 6.3-5.168 8.87z"/></g><path d="M2069.19 1788.17c-21.94-2.46-21.87-2.46-21.97-26.02-.08-16.26-.19-32.49 7.34-47.55 5.87 24.33 7.36 49.52 14.63 73.57z" class="D"/><g class="C"><path d="M1257.94 2823.32c-20.24 2.2-39.93-4.11-60.06-3.84-4.38.06-9.32-.35-8.71-6.49 0-1.25.31-2.48.89-3.59a7.86 7.86 0 0 1 2.46-2.76c1.03-.7 2.22-1.14 3.47-1.29 1.24-.14 2.5.02 3.66.48 19.29 5.41 38.9 1.5 58.32 2.68l-.03 14.81zm14.78-792.89l-1.82-.04-1.83.02.06-11.26 34.12.4c3.54.11 7.59 1.27 6.94 6.05-.45 3.42-3.9 4.39-6.94 4.47l-30.52.36h-.01zm-1391.326-.04l-32.391-.27c-3.818-.07-7.336-1.33-6.74-6.18.459-3.71 3.681-4.45 6.734-4.49l32.39-.2.007 11.14z"/></g><path d="M828.548 1956.84c4.782-5.51 11.247-3.47 17.064-3.52l74.527-.08c-4.65 5.81-11.2 3.57-16.965 3.61-24.877.2-49.748.03-74.626-.01z" class="G"/><g class="D"><path d="M1291.09 1751.45c3.67.04 7.97.31 8.46 4.56.68 5.81-4.24 5.96-8.44 6.21-1.16-1.56-1.78-3.45-1.78-5.39a9 9 0 0 1 1.76-5.38zm774.77-54.89l-.54 3.21a15.79 15.79 0 0 1-3.56-.46c-2.87-1.02-5.95-2.33-4.54-6.19.38-.77.93-1.44 1.62-1.96s1.49-.86 2.34-1.01c4.02-.03 4.06 3.55 4.68 6.41z"/></g><path d="M2084.04 2881.91c2.95.52 6.14.89 6.6 4.69.6 4.89-2.89 5.85-6.64 6.43l.04-11.12z" fill="#c57745"/><path d="M2131.69 2092.13c.16 34.1-2.14 68.17-6.89 101.94-.75 6.02-.39 12.18-.52 18.27.41 3.38-.47 6.78-2.48 9.53a13.32 13.32 0 0 1-8.32 5.24c-5.72 1.04-10.83-7.02-11.04-16.23a13.14 13.14 0 0 1 .1-3.65c5.73-21.58 1.81-43.7 3.74-65.44 2.42-27.17 6.34-54.2 7.18-81.52.18-6.07 2.62-11.2 9.6-10.8 6.95.4 8.56 5.93 8.6 11.85l.03 30.81z" class="C"/><path d="M-1033.07 1830.11c0 6.65.45 13.33-.18 19.91a7.77 7.77 0 0 1-2.42 4.8c-1.35 1.26-3.11 2-4.96 2.08-4.69.45-5.79-2.73-6.71-6.61-3.1-13.54-4.35-27.44-3.73-41.31.2-5.69.74-11.77 7.52-12.65 8.41-1.08 9.61 6.37 10.35 12.05.54 7.23.61 14.49.22 21.73h-.09zm3216.16 3.33l4.13-29.64c.2-2.14 1.19-4.13 2.77-5.58a8.72 8.72 0 0 1 5.8-2.28c2.15-.02 4.23.76 5.83 2.19a8.64 8.64 0 0 1 2.86 5.53 28.89 28.89 0 0 1-.09 12.62 90.64 90.64 0 0 0-3.01 26.99c-.14 6.09.13 13.59-8.54 13.05-1.54-.08-3.05-.49-4.41-1.22a10.49 10.49 0 0 1-3.49-2.96c-.93-1.23-1.58-2.65-1.9-4.16a10.56 10.56 0 0 1 .02-4.58c.2-2.41.03-4.85.03-9.96z" class="D"/><path d="M17.192 2186.74c1.867 22.19-5.424 44.8-4.107 68.04-.487 6.06-2.351 11.93-5.45 17.16-.838 1.67-2.287 2.96-4.048 3.6a7.3 7.3 0 0 1-5.417-.17c-1.813-.43-3.382-1.55-4.364-3.14a7.02 7.02 0 0 1-.87-5.3c7.159-33.56 5.974-67.6 6.026-101.58a20.91 20.91 0 0 1 .93-7.18c1.526-4.07 4.094-8.25 8.856-7.95a8.77 8.77 0 0 1 3.557.85c1.113.53 2.101 1.29 2.9 2.23a8.71 8.71 0 0 1 1.736 3.22c.346 1.18.437 2.42.269 3.64l-.026 26.57.007.01zm58.257 15.65c-5.535 14.09-3.164 28.86-2.876 43.27.275 13.51-5.044 26.13-4.428 39.62a7.93 7.93 0 0 1-.498 3.64 8.03 8.03 0 0 1-2.081 3.04 8.13 8.13 0 0 1-3.222 1.78 8.02 8.02 0 0 1-3.677.14c-1.238.04-2.465-.25-3.557-.83a7.03 7.03 0 0 1-2.668-2.49c-.655-1.05-1.022-2.26-1.064-3.5a7.08 7.08 0 0 1 .824-3.56c3.275-10.11.799-20.54 1.834-30.74l6.485-55.59c.557-3.87-1.415-11.89 6.157-10.6a12.01 12.01 0 0 1 7.324 5.19c1.676 2.61 2.27 5.78 1.656 8.82-.046.6-.138 1.2-.21 1.81z" class="B"/><g class="L"><path d="M567.884 2287.3l-1.808.01h-1.808c-56.488 3.62-113.036 1.21-169.557 1.51-12.838.07-19.343 2.45-21.452 17.28-2.489 17.45-16.526 27.17-32.934 32.63l-.066-11.05-3.648-3.68-7.192 3.67a104.33 104.33 0 0 1-9.301-15.25c-8.077-20.13 1.657-36.04 23.829-39.82 49.303 3.87 98.691 1.53 148.034 1.76l268.884.14a413.06 413.06 0 0 0 49.244-1.83c27.793 8.96 33.406 26.97 15.314 49.01-1.526 1.86-2.764 3.96-4.126 5.95-5.175-2.05-7.625-.9-7.559 5.26l.026 60.94c-9.55-1.44-7.985-9.46-8.679-15.57-1.028-9.05-.282-18.22-.478-27.35-.111-5.48.786-12.4-3.511-15.58a63.8 63.8 0 0 1-17.846-17.77 63.68 63.68 0 0 1-9.573-23.29c-1.329-7.19-11.43-5.03-17.856-5.07-40.139-.19-80.285-.28-120.424 0-16.395.11-32.712-.7-49.035-1.96l-3.799.05a13.29 13.29 0 0 0-7.337-2.2c-2.609 0-5.166.77-7.342 2.21z"/><path d="M810.109 2272.67c-7.446 5.37-16.54 7.95-25.697 7.3-138.265-.04-276.533-.04-414.802 0-9.16.68-18.26-1.94-25.664-7.37 4.821-5.56 11.352-3.59 17.227-3.61l429.462-.11c6.722-.67 13.495.64 19.474 3.79z"/></g><g class="H"><path d="M747.784 2219.69l.046-20.14c.157-5.3 2.181-9.73 8.017-10.63 2.472-.43 5.015.07 7.144 1.39 2.128 1.33 3.692 3.4 4.391 5.81a71.75 71.75 0 0 1-3.248 49.81 7.47 7.47 0 0 1-3.99 3.67c-1.743.69-3.678.69-5.423.01-1.799-.45-3.403-1.47-4.574-2.91-1.17-1.43-1.843-3.21-1.917-5.06-.367-7.3-.105-14.63-.105-21.95h-.341zm-363.18-3.87c0-6.07-.197-12.16.065-18.22.028-1.84.626-3.63 1.712-5.12s2.607-2.6 4.354-3.19c2.05-.62 4.24-.57 6.263.12 2.023.7 3.779 2.01 5.023 3.75 3.08 3.77 4.649 8.56 4.401 13.43 1.278 12.35-4.644 23.75-4.277 35.99a6.98 6.98 0 0 1-1.653 4.2 6.91 6.91 0 0 1-3.882 2.3c-3.321.86-5.685-1.27-7.893-3.45-1.499-1.51-2.662-3.33-3.414-5.32-.752-2-1.075-4.13-.948-6.25l.013-18.24h.236zm263.801 5.98l-.065 22.01c.175 2.16-.436 4.32-1.723 6.06-1.287 1.75-3.162 2.98-5.28 3.45-5.567 1.28-8.187-2.86-9.104-6.93a176.58 176.58 0 0 1-1.081-50.96 7.65 7.65 0 0 1 2.624-4.78c1.434-1.21 3.266-1.86 5.145-1.8a7.97 7.97 0 0 1 3.223.21c1.048.29 2.025.79 2.87 1.48a7.93 7.93 0 0 1 2.039 2.51c.5.96.795 2.02.867 3.11.695 8.49.197 17.09.197 25.64h.288zm-142.872-.17v-23.65c.026-4.5.766-8.66 6.354-9.3 5.561-.63 10.676 1.78 11.03 7.08 1.166 17.43 3.478 35.12-3.648 52.01-.531 1.76-1.658 3.29-3.189 4.32s-3.372 1.5-5.209 1.32c-4.716-.53-5.253-4.39-5.305-8.12l-.033-23.66zm-234.575-1.28c0-6.71-.458-13.47.158-20.13.224-2.16 1.248-4.15 2.871-5.58 1.622-1.44 3.724-2.21 5.889-2.17a8.66 8.66 0 0 1 5.805 2.38 8.67 8.67 0 0 1 2.661 5.69 173.5 173.5 0 0 1-.655 40.17c-.825 4.52-2.895 10.05-9.497 8.94-5.895-.98-7.448-5.73-7.566-10.96-.131-6.11-.032-12.23-.032-18.34h.366zm594.533.83c0-6.7-.308-13.42.098-20.09a8.34 8.34 0 0 1 2.276-5.86c1.492-1.58 3.542-2.52 5.715-2.62 4.487-.4 6.747 2.94 7.749 6.44a97.75 97.75 0 0 1 .884 41.5c-.123 1.24-.488 2.43-1.074 3.53a9.5 9.5 0 0 1-2.343 2.84c-.96.78-2.065 1.37-3.253 1.72a9.28 9.28 0 0 1-3.666.35c-6.111-.92-6.53-6.37-6.635-11.36-.112-5.49-.026-10.97-.026-16.45h.275z"/></g><g class="B"><path d="M442.717 2231.15c-.123 2.11-1.057 4.09-2.607 5.54-1.549 1.44-3.596 2.22-5.712 2.19-5.888-.09-8.024-4.89-8.319-9.74-.307-5.05 3.623-7.54 8.168-7.38 1.203-.04 2.398.18 3.505.66 1.106.47 2.096 1.18 2.902 2.07s1.408 1.95 1.764 3.1.458 2.36.299 3.55v.01zm143.298-5.92c-.105 5.76-2.358 9.08-7.127 10.03-5.403 1.07-7.991-2.56-8.672-6.99-.819-5.39 1.415-9.88 7.474-10.08a8.35 8.35 0 0 1 5.471 1.97c1.528 1.3 2.539 3.1 2.848 5.07h.006zm274.348-.93a9.01 9.01 0 0 1-1.937 5.87c-1.319 1.66-3.186 2.81-5.269 3.23-1.021.31-2.099.39-3.155.23a7.17 7.17 0 0 1-2.949-1.15c-.885-.59-1.627-1.38-2.171-2.3s-.877-1.94-.974-3.01a7.63 7.63 0 0 1 .067-3.17 7.64 7.64 0 0 1 1.349-2.87c.646-.85 1.464-1.56 2.4-2.08.936-.51 1.971-.83 3.036-.92a7.88 7.88 0 0 1 3.171-.13c1.055.17 2.063.56 2.963 1.13a7.96 7.96 0 0 1 2.269 2.22c.596.89 1.005 1.89 1.2 2.94v.01zm-143.102 13.14a9.19 9.19 0 0 1-5.801-2.5c-1.575-1.49-2.568-3.5-2.8-5.66a6.72 6.72 0 0 1 .267-2.73c.275-.89.729-1.7 1.333-2.4a6.74 6.74 0 0 1 2.18-1.67c.834-.4 1.741-.63 2.665-.67 1.036-.31 2.128-.38 3.197-.22s2.088.56 2.983 1.17a7.21 7.21 0 0 1 2.194 2.33 7.26 7.26 0 0 1 .98 3.05c.609 4.91-3.111 7.51-7.192 9.3h-.006zm-406.451-11.96c-.596 4.23-2.823 6.78-7.264 5.95-1.064-.08-2.097-.38-3.032-.9-.934-.51-1.747-1.22-2.384-2.07-.637-.86-1.082-1.84-1.306-2.88s-.222-2.12.008-3.16c.72-4.52 4.572-5.26 8.338-4.75 4.362.57 5.784 3.74 5.64 7.81z"/></g><path d="M568.009 2914.92l-.027 14.83a25.24 25.24 0 0 1-.105 18.29l-124.597.05c-4.88 0-9.799-.29-14.646.16-18.583 1.73-18.57 1.83-18.615-17.77-.053-24.4-1.258-22.77 22.912-22.77l113.606-.02c7.307-.89 14.714.4 21.288 3.71.93.73 1.266 1.5 1.009 2.3-.262.81-.537 1.22-.825 1.22z" class="K"/><g class="G"><path d="M567.968 2720.42c-.7 33.37 4.075 29.14-29.109 29.32-36.563.19-73.132.11-109.695-.02-6.459-.02-14.646 2.02-17.555-6.05-3.2-8.65-3.2-18.17 0-26.82 2.227-5.69 10.114-6.84 15.963-6.97 23.148-.52 46.624-2.67 69.379.36 23.764 3.16 47.312 1.87 70.939 2.87a4.92 4.92 0 0 1 1.241 1.63c.292.63.447 1.31.455 2.01a4.89 4.89 0 0 1-.412 2.01c-.279.63-.69 1.2-1.206 1.66zm-.064 161.54c-1.742 14.27-1.742 14.59-14.351 14.63-43.318.16-86.639.15-129.962-.02-12.707-.07-13.054-.82-13.545-13.67-.138-3.65.203-7.33-.04-10.97-.57-8.52 3.112-12.04 11.751-12l133.624-.15c11.58-.13 13.165 5.85 12.51 14.86.528.45.951 1.01 1.242 1.64a4.85 4.85 0 0 1 .443 2.02c.001.69-.148 1.38-.436 2.01s-.71 1.2-1.236 1.65zm.046-106.47l.013 14.74a4.75 4.75 0 0 1 1.121 5.68c-.304.62-.74 1.17-1.278 1.61-46.879.01-93.752.11-140.632-.09-5.613-.03-13.925 3-15.871-4.72-1.623-4.58-2.297-9.45-1.981-14.3a35.94 35.94 0 0 1 3.815-13.93c2.057-3.4 6.164-3.55 9.871-3.56l136.977-.01a9.63 9.63 0 0 1 4.424.86 9.69 9.69 0 0 1 3.561 2.76 7.77 7.77 0 0 1 2.258 5.49 7.75 7.75 0 0 1-2.278 5.47zm.033 51.38l-.065 18.41-.014.02c-5.449 2.75-11.53 4.02-17.626 3.66-41.436-.12-82.866.05-124.303-.09-15.753-.05-15.766-.3-15.949-16.76-.033-3.05.157-6.1.013-9.14-.38-7.8 3.406-10.97 11.024-10.79 9.74.22 19.493.02 29.246.02l100.539.08c5.843.03 12.36-1.99 17.109 3.64a7.77 7.77 0 0 1 .026 10.95zm14.692-113.68l139.479-.01c5.817.01 13.808-2.73 16.703 3.82 2.966 8.12 3.056 17.02.256 25.2-1.153 4.13-5.778 3.88-9.419 3.92-43.31.45-86.469 5.88-129.857 3.69-14.981-.75-20.738-9.08-17.424-25.77-.298-.06-.579-.19-.821-.37-.242-.19-.438-.43-.574-.7a1.97 1.97 0 0 1-.013-1.75c.541-1.63.628-3.38.249-5.05a2.7 2.7 0 0 1 .202-1.73c.257-.54.686-.98 1.219-1.25zm-.19-102.81l.105-14.72a7.82 7.82 0 0 1-2.332-5.42c-.039-2.04.723-4.01 2.122-5.5.839-6.29 5.123-7.43 10.546-7.42l131.822-.05c8.417-.04 12.655 2.98 12.013 11.72-.177 2.42.066 4.88-.013 7.32-.393 13.05-.714 13.61-13.271 13.95-11.593.31-23.187.06-34.781.08l-106.191.06-.02-.02zm-14.515-14.78c-1.814 14.31-1.814 14.63-14.41 14.67H428.877c-14.594-.06-14.895-.65-15.144-13.96-.301-15.71 1.664-18.76 15.19-18.86l126.516-.22c8.123-.05 13.166 1.96 12.524 11.11.515.45.927 1.01 1.209 1.64.282.62.428 1.3.429 1.99s-.144 1.37-.426 1.99c-.281.63-.692 1.18-1.205 1.64zm14.568 29.37l139.099.03c18.091.02 21.602 4.33 18.622 21.39-.878 5.04-3.19 7.63-8.227 7.83-1.218.05-2.437.13-3.655.13l-135.438.04c-5.41 0-9.727-1.07-10.513-7.4-1.613-1.25-2.736-3.02-3.17-5.01-.33-1.31-.484-2.66-.459-4.01l.151-2.01-.046-7.27.315-1.37c.482-.81 1.154-1.5 1.958-2l1.363-.35zm.209 44.29l140.606-.19c16.637.02 17.509 1.52 17.188 17.49-.177 8.49-3.223 12.14-11.843 11.95-14.6-.33-29.214-.07-43.821-.08-34.087 0-68.174-.01-102.261-.02-6.648-9.75-10.873-19.48.131-29.15zm-14.98 29.13c-46.264.01-92.535.3-138.792-.31-5.568-.08-16.5 6.17-16.821-6.46-.524-20.18 1.9-22.52 18.708-22.55l136.963.07a22.37 22.37 0 0 1 5.412 14.64 22.36 22.36 0 0 1-5.47 14.61zm.163-51.38c-.746 6.4-5.128 7.38-10.519 7.38-43.972-.06-87.943-.2-131.907.11-10.343.08-12.007-5.25-11.909-13.8.164-13.58.799-15.49 11.745-15.57l130.073-.32c11.633-.14 13.1 5.97 12.53 14.91.519.46.933 1.02 1.217 1.65s.43 1.31.429 2a4.85 4.85 0 0 1-.436 2 4.78 4.78 0 0 1-1.223 1.64zm14.588-110.11l137.219.08c14.823.07 17.725 4.1 17.096 18.89-.347 8.05-4.061 10.71-11.443 10.42-5.483-.21-10.978 0-16.468-.01l-126.241-.13c-1.532-1.17-2.693-2.76-3.34-4.57a41.66 41.66 0 0 1-1.238-14.3 14.94 14.94 0 0 1 4.415-10.38zm-14.706 29.3l-133.407.06c-3.046 0-6.091.1-9.131-.08-6.347-.37-10.703-2.4-8.685-10.18a35.31 35.31 0 0 0 .786-9.06c-.053-6.72 2.849-10.23 9.832-10.02 4.257.13 8.528-.04 12.792-.04l127.925.02c2.738 2.77 4.31 6.49 4.395 10.38a41.34 41.34 0 0 1-1.133 14.33 9.78 9.78 0 0 1-3.374 4.59zm14.725-66.04c5.455-2.76 11.545-4.02 17.646-3.65l107.921-.21c13.886-.3 17.862 5.17 20.665 15.74a7.16 7.16 0 0 1 .599 3.63c-.121 1.24-.564 2.43-1.285 3.44a7.09 7.09 0 0 1-2.826 2.35 7.16 7.16 0 0 1-3.621.63c-3.648.2-7.316.17-10.971.16l-128.056-.08c-5.862-7.32-10.775-14.64-.065-22.01h-.007zm.052-43.95l78.471-.06a77.03 77.03 0 0 1 9.117.04c7.618.92 14.935-5.21 22.913.02a64.25 64.25 0 0 1 20.305 24.74c-2.135 6.01-7.021 4.45-10.932 4.47l-105.844.05c-5.797-.01-12.832 1.73-14.089-7.31-5.594-7.33-10.847-14.66.065-21.95h-.006zm-14.653 21.94c-.962 7.79-6.786 7.37-12.379 7.37H439.946a32.33 32.33 0 0 1 9.847-20.36 32.35 32.35 0 0 1 20.782-8.92l97.263-.03a15.56 15.56 0 0 1 .098 21.94zm-.15 43.98H423.224c2.757-21.24 3.177-21.77 20.462-21.92l53.155.01a381.2 381.2 0 0 0 67.349-3.67l2.862.99a10.84 10.84 0 0 1 3.727 4.69c1.446 3.26 1.932 6.86 1.401 10.39-.532 3.52-2.058 6.82-4.401 9.51h.007zm.02-77.06h-84.759c24.55-24.56 52.689-31.59 84.753-21.9 1.343 1.21 2.408 2.69 3.119 4.35a12.34 12.34 0 0 1 .994 5.25c.305 3.62-.434 7.25-2.129 10.46l-1.978 1.84zm14.737-21.95c16.297-7.09 33.537-5.14 49.65-1.74 12.413 2.62 23.6 11.07 34.998 18.67-28.657-1.41-56.332 5.88-84.53 4.99l-1.965-1.84a21.27 21.27 0 0 1-1.926-13.14 11.8 11.8 0 0 1 3.773-6.94z"/></g><path d="M567.787 2522.13l.065-21.89c-1.284-1.17-2.253-2.65-3.655-3.71l-.007.01c.22-.57.494-1.11.819-1.62 2.908-3.78 5.457-9.11 11.037-8 6.989 1.39 6.4 7.77 6.492 13.24-5.745 7.36 1.205 14.67.078 22.01-7.415 8.84-7.415 8.84-14.836-.04h.007zm-.02 176.26l.059-29.26c.34-4.52 1.552-9.21 6.576-9.69 6.452-.61 7.631 4.74 8.345 9.83-5.633 9.69 1.048 19.43-.131 29.14a12.1 12.1 0 0 1-7.428 2.52c-2.687 0-5.296-.9-7.421-2.54z" class="H"/><g class="B"><path d="M567.936 2478.15l-.098-21.95-.033-11.13.007.01c4.925-7.41 9.877-7.34 14.842-.04a10.43 10.43 0 0 1 1.593 5.59c-.012 1.98-.587 3.91-1.658 5.57-5.935 7.31 1.493 14.65-.066 21.96a11.71 11.71 0 0 1-7.293 2.55c-2.65 0-5.221-.9-7.294-2.55v-.01zm-.059 469.89c-1.992-2.63-3.062-5.85-3.044-9.16s1.122-6.51 3.142-9.13c6.354-.07 13.29.2 13.821 8.29.609 9.47-6.884 9.94-13.919 10zm.059 29.34l-.157-3.55c-.953-1.02-1.484-2.37-1.488-3.76-.004-1.4.521-2.75 1.469-3.77l.032-3.56 7.114.16a6.6 6.6 0 0 1 3.079.41c.98.37 1.858.97 2.562 1.75s1.215 1.71 1.491 2.73c.277 1.01.311 2.07.099 3.1-.281 4.38-3.111 6.07-7.087 6.32l-7.114.17zm.013-201.89l.013-10.96c4.284-2.01 8.653-4.98 12.557.54 1.115 1.41 1.72 3.16 1.719 4.95-.001 1.8-.609 3.55-1.725 4.96-3.917 5.5-8.287 2.5-12.564.51zm.033 51.38l-.026-10.95c4.277-1.99 8.646-4.99 12.557.51 1.117 1.41 1.725 3.16 1.728 4.95.002 1.8-.602 3.55-1.715 4.96-3.898 5.51-8.273 2.56-12.544.53zm-.066 18.41c2.778-.89 5.221-3.46 8.378-2.43 1.023.26 1.985.72 2.825 1.35a7.88 7.88 0 0 1 2.064 2.35c.521.92.849 1.93.966 2.98a7.78 7.78 0 0 1-.287 3.12c-.188 1.5-.866 2.89-1.928 3.97-1.063 1.07-2.45 1.77-3.948 1.97-4.238.48-6.55-2.44-7.493-6.17a40.97 40.97 0 0 1-.59-7.12l.013-.02zm.092 69.64l-.183-3.52c.281-3.53-.498-7.8 3.255-9.68 3.943-1.96 8.443-2.19 10.493 2.98 1.409 3.55 1.14 7.64-2.934 9.12a42.72 42.72 0 0 1-10.631 1.1z"/></g><g class="L"><path d="M567.812 2566.2l.144-3.55c4.841-7.6 9.675-7.69 14.496.01.056 1.17.133 2.33.229 3.49-.642 5.11-1.9 10.38-8.319 9.74-4.998-.5-6.196-5.19-6.55-9.69zm.131-18.31l-.026-10.99a11.91 11.91 0 0 1 14.6 0l-.052 10.97c-4.834 7.7-9.675 7.57-14.522.02z"/></g><g class="B"><path d="M582.504 2610.4c.039 4.86 3.852 9.7.033 14.57l-.007.02a44.41 44.41 0 0 0-3.635 3.69 8.95 8.95 0 0 1-1.618-.8c-3.786-2.9-9.091-5.45-7.998-11.03 1.376-7.01 7.743-6.4 13.206-6.47l.019.02zm.125 110.11l-.21 3.53a22.51 22.51 0 0 1-14.45-3.62l-.078-7.31c4.938-1.97 9.89-6.64 14.783.08v3.49a2.42 2.42 0 0 1 .803 1.16c.147.45.155.95.023 1.41-.293.84-.583 1.27-.871 1.27v-.01zm-.086-297.39l-.013 7.32c-3.635 6.08-8.161 8.59-14.541 3.61l-.19-10.88c4.893-6.71 9.825-2 14.744-.05zm-14.738 374.4l.151-7.3a39.24 39.24 0 0 1 6.498-2.81c5.266-1.24 7.86 1.31 7.827 6.53-.033 5.27-2.751 7.66-7.965 6.36-2.243-.75-4.421-1.67-6.511-2.78zm.099 84.44l-.013-7.32a40.42 40.42 0 0 1 6.497-2.79c5.234-1.26 7.88 1.2 7.887 6.44 0 5.23-2.633 7.72-7.873 6.46-2.244-.74-4.419-1.67-6.498-2.79zm.065-286.36l-.007-7.26c4.254-2.82 9.342-4.08 14.417-3.6l.21 10.92a11.71 11.71 0 0 1-7.319 2.53c-2.656-.01-5.23-.93-7.301-2.59zm14.469-190.9c-2.019 1.69-4.572 2.62-7.21 2.62a11.18 11.18 0 0 1-7.207-2.63c-1.004-.77-1.358-1.57-1.061-2.39.306-.82.618-1.24.937-1.24 3.288-7.76 8.574-7.42 14.711-3.64a4.92 4.92 0 0 1 1.182 1.67c.27.64.401 1.32.385 2.01s-.179 1.36-.479 1.99c-.3.62-.729 1.16-1.258 1.61zm-14.508 242.31l.013-7.29a24.45 24.45 0 0 1 11.004-3.76l-.013.02c1.061 1.36 2.325 2.52 3.511 3.77l-.02 7.24a11.51 11.51 0 0 1-7.243 2.6c-2.642 0-5.205-.91-7.252-2.58z"/></g><path d="M582.438 2404.69l.17-7.27 17.83 9.43c-8.332 1.93-13.546 3.26-18-2.16z" class="G"/><path d="M567.897 2401.06l.118 3.63c-2.902 4.37-6.976 3.8-12.838 3.14 1.447-2.04 3.351-3.72 5.559-4.89 2.209-1.18 4.661-1.82 7.161-1.88z" class="B"/><path d="M340.325 2338.73c4.533-2.31 2.994-8.87 8.646-11.03 19.389-7.42 23.974-22.48 19.454-41.08 4.258-4.89 9.452-2.91 13.985-2.92l164.75-.07c5.843.02 12.38-2.04 17.109 3.67-22.224 11.49-45.682 20.41-69.923 26.58-30.056 8.16-58.069 22.52-82.231 42.17-33.078 26.73-52.965 61.44-68.554 99.63-.891 2.19-1.579 4.72-7.467 4.25 5.246-40.24 4.172-80.72 4.231-121.2zm246.044-51.49c2.974-4.1 7.402-3.68 11.653-3.67l178.02.16c1.643.15 3.264.47 4.834.98 4.015 3.74.714 7.13.4 10.5-1.297 14.11 2.954 24.31 16.572 29.33 11.279 4.15 12.838 10.84 12.438 20.8-.484 12.22-.085 24.47-.065 36.7-.398 2.11-.285 4.28.332 6.33s1.719 3.92 3.212 5.46v69.12c-13.664-25.38-22.867-49.22-38.286-69.62-22.652-30.52-52.981-54.5-87.903-69.5-21.956-9.48-45.668-12.89-67.709-21.92-11.299-4.63-22.697-8.94-33.498-14.67z" class="E"/><path d="M567.884 2287.3c.809-1.21 1.9-2.19 3.179-2.87a8.74 8.74 0 0 1 4.156-1.04c1.449 0 2.876.35 4.155 1.03s2.373 1.67 3.182 2.87l-14.672.01z" class="D"/><path d="M567.759 2966.31l.02 7.51c-3.636-2.49-3.622-5-.02-7.52v.01z" fill="#99572c"/><g class="J"><path d="M1404.09 2599.35c-20.58.72-41.18-.38-61.57-3.29-8.61-1.65-11.67-4.72-11.09-12.79.18-2.42-.07-4.87.03-7.3.43-12.6 3.37-15.92 16.18-16.84a75.82 75.82 0 0 1 21.85.13c22.89 5.19 46 2.54 69 3.36 5.97.21 13.35-1.32 15.98 5.7a33.45 33.45 0 0 1 2.43 13.34c-.11 4.57-1.15 9.06-3.06 13.21-2.38 4.95-8.19 4.47-13.09 4.48h-36.66zm187.92-483.75v53.13c0 3.67.12 7.34-.07 10.99-.38 7.38-3.34 14.16-11.22 14.08-6.55-.07-9.8-6.16-10.65-12.86-3.08-24.12-5.79-47.93-.86-72.48 2.94-14.7.69-30.43.8-45.69.03-4.89-.09-9.79.26-14.65a10.81 10.81 0 0 1 3.33-7.14c1.97-1.87 4.57-2.94 7.29-2.98a10.87 10.87 0 0 1 7.38 2.78 10.75 10.75 0 0 1 3.52 7.04c.42 6.08.28 12.2.29 18.31l.01 49.47h-.08zm-274.82-12.55c-.29-5.41-.25-10.83.13-16.23.83-6.63 5.84-8.65 11.97-8.71 1.2-.18 2.42-.1 3.59.24a8.32 8.32 0 0 1 3.15 1.73c.91.8 1.64 1.79 2.13 2.9a8.28 8.28 0 0 1 .7 3.53c2.3 10.69 3.54 21.58 3.69 32.51-1.75 31.69 3.09 63.05 5.42 94.54.51 6.88-.03 13.3-7.42 13.98-7.12.64-12.06-3.58-12.92-12.11-2.55-25.32-7.19-50.45-7.22-76-.01-12.19-6.16-23.74-3.22-36.38zm138.95 20.89c.73 19.36-1.78 38.9 3.49 58.06a38.11 38.11 0 0 1 .19 12.74c-.48 6.13 2.61 14.38-7.98 15.29-8.35.72-12.35-3.96-13.91-15.37-5.12-37.5-3.55-75.2-3.67-112.86-.33-2.11-.18-4.26.43-6.31.6-2.05 1.65-3.93 3.08-5.53 1.59-1.44 3.58-2.39 5.71-2.72 2.12-.34 4.3-.04 6.27.84 2.01.79 3.72 2.2 4.86 4.03 1.15 1.83 1.67 3.98 1.49 6.14l.04 45.69z"/></g><path d="M1531.2 2867.16c-3.87-.04-7.71-.67-8.1-5.36a7.82 7.82 0 0 1 1.5-5.18c1.09-1.5 2.68-2.56 4.48-3a12.88 12.88 0 0 1 5.35-.88c18.98 1.92 37.26-4.7 56.27-4.23a266.59 266.59 0 0 0 41.38-5c2.39-.33 4.7-1.54 7.08-1.62 4.08-.16 9.36-1.39 10.53 4.33 1.24 6.05-2.94 8.85-8.31 9.7-7.78 1.23-15.65.67-23.58 1.86-28.71 4.31-57.95 4.08-86.59 9.38h-.01zm58.66-609.24c11.61 0 23.23-.3 34.82.14 4.94.19 13.44-2.72 13.52 4.9.1 9.19-9.02 5.58-14.35 5.82-11.59.5-23.21-.03-34.82.19-14.56.29-29.21-1.46-43.59 3.16-4.21 1.36-10.8 1.76-11.2-5.4-.33-5.89 4.42-8.51 9.8-8.58l45.82-.08v-.15z" class="C"/><path d="M1608.88 2676.64c-8.78-.72-15.54.93-21.93-1.59-1.15-.36-2.15-1.07-2.88-2.03a5.9 5.9 0 0 1-1.2-3.33c-.06-.91.25-1.8.85-2.49s1.45-1.11 2.36-1.17c13.03-2.05 25.86-6.03 39.3-4.2 4.38.6 8.87 1.55 8.81 6.97-.05 4.37-4.49 5.77-7.73 6.33-5.83.82-11.7 1.32-17.58 1.51z" class="I"/><g class="C"><path d="M1232.24 2158.28c1.07 16.31-2 33.99 3.31 51.34a56.43 56.43 0 0 1 .38 16.36c-.05 5.65-.48 12.33-7.7 12.05-6.71-.26-14.15-3.86-13.74-11.87.66-12.99-4.28-25.09-4.22-37.86l.02-62.05c-.1-2.43-.07-4.87.09-7.3.79-7.2 3.76-14.02 11.72-13.48a12.1 12.1 0 0 1 7.69 4.63c1.88 2.48 2.74 5.58 2.39 8.67l.07 39.51h-.01zm-95.33 43.16l.08-42.2c.1-5.08 1.58-10.38 8.07-9.77 5.08.49 6.12 5.23 6.4 9.67.16 2.43.12 4.87.1 7.31-.1 31.47 2.26 62.91 7.04 94.02.34 3.03.33 6.08-.02 9.11 0 1.53-.57 3.01-1.59 4.15a6.24 6.24 0 0 1-3.97 2.02 7.9 7.9 0 0 1-4.49-.26c-1.44-.52-2.7-1.44-3.63-2.66a23.25 23.25 0 0 1-4.34-11.81c-2.01-21.1-5.58-42.11-3.65-59.58zm-36.64 73.63c-.4 8.12 1.41 16.31-6.05 17.7-8.77 1.64-11.65-7.75-11.53-13.37.63-28.01-5.84-55.56-4.47-83.54.22-4.43 1.34-9.17 6.44-9.65 6.53-.6 8.02 4.75 7.98 9.8-.16 18.23 6.3 35.98 3.82 54.32-1.26 9.37 4.48 17.69 3.81 24.74z"/></g><path d="M296.76 1887.12c-12.819 0-25.657.46-38.449-.12-15.76-.72-20.555-5.86-20.764-21.31l-.132-51.27c-.098-9.25-.235-17.99 7.514-25.24 5.462-5.11 3.569-12.21 2.004-18.97-5.004-21.66-.053-31.5 19.932-40.94 28.192-13.3 57.832-8.88 75.543 11.34a25.06 25.06 0 0 1 7.434 12.27c1.23 4.73 1.053 9.72-.51 14.35-3.59 10.62-3.911 21.61 5.718 30.39 1.552 1.9 2.672 4.11 3.284 6.49.612 2.37.7 4.85.26 7.26l-.112 49.44c-.504 19.06-7.991 26.07-26.934 26.35H296.76v-.04zm140.717.03c-12.209 0-24.419.25-36.615-.06-19.264-.47-23.705-5-23.849-23.84l-.085-47.61c-.086-9.8-.459-19.17 7.82-26.99 5.378-5.07 3.072-12.29 1.481-19.01-4.834-20.47.229-30.66 19.021-39.85 28.022-13.69 57.727-9.79 75.806 9.93 7.382 8.05 11.639 16.32 7.604 28.1a25.32 25.32 0 0 0-2.031 15.23 25.31 25.31 0 0 0 7.147 13.61 16.87 16.87 0 0 1 3.65 6.27c.748 2.33.98 4.8.68 7.23l-.151 51.26c-.563 18.74-8.188 25.54-27.524 25.73h-32.954zm138.693.01c-11.593 0-23.187.18-34.781-.05-20.456-.4-24.76-4.73-24.891-24.66l-.045-43.94c-.04-10.91-1.153-21.71 8.253-30.51 4.749-4.44 2.731-11.28 1.356-17.39-5.109-22.67-.164-32.26 21.072-41.91 26.967-12.24 55.113-8.23 72.7 10.27 8.024 8.44 12.445 17.09 8.109 29.61-2.166 4.79-2.77 10.14-1.724 15.3 1.045 5.15 3.685 9.84 7.547 13.41a14.78 14.78 0 0 1 3.215 5.49 14.69 14.69 0 0 1 .597 6.33c-.052 17.7.433 35.42-.164 53.1-.602 17.82-8.344 24.71-26.449 24.92l-34.788.03h-.007zm271.439-.01c-12.203 0-24.419.3-36.615-.08-18.092-.57-22.677-5.3-22.834-22.99l-.098-49.43c-.079-9.21-.492-18.03 7.369-25.28 5.502-5.08 3.759-12.17 2.214-18.95-5.109-22.38.039-32.2 21.32-41.79 27.655-12.48 56.528-7.89 73.919 11.81 3.651 3.25 6.273 7.5 7.541 12.22a25.06 25.06 0 0 1-.401 14.35c-3.564 10.62-4.088 21.62 5.521 30.44 1.571 1.88 2.713 4.08 3.349 6.45a16.87 16.87 0 0 1 .333 7.25l-.112 49.44c-.478 19.24-7.847 26.26-26.718 26.57h-34.781l-.007-.01zm-138.863 0c-12.819-.01-25.651.4-38.45-.11-16.657-.66-21.438-5.8-21.622-22.34l-.091-47.6c-.079-10.37-.937-20.52 8.043-28.74 4.874-4.46 3.046-11.24 1.716-17.35-5.129-23.52-.019-33.23 22.218-42.91 26.332-11.46 53.902-7.34 71.122 10.58 8.018 8.34 12.891 16.9 8.515 29.5a25.23 25.23 0 0 0-1.87 15.26 25.27 25.27 0 0 0 7.333 13.52c1.629 1.83 2.839 3.99 3.545 6.33.706 2.35.891 4.82.542 7.24l-.111 49.43c-.439 20.19-7.664 27.02-27.93 27.19h-32.96 0z" fill="#e5f2ff"/><g class="D"><path d="M651.936 1778.55c-1.003 5.86-3.891 9.34-9.714 8.82-2.089-.23-4.019-1.22-5.42-2.79-1.4-1.56-2.17-3.59-2.162-5.69a8.49 8.49 0 0 1 2.206-5.68c1.413-1.56 3.351-2.53 5.441-2.74 5.961-.56 8.509 3.25 9.649 8.08zm-283.235 8.9a8.21 8.21 0 0 1-3.584-.32c-1.157-.36-2.221-.98-3.117-1.79-.896-.82-1.603-1.83-2.071-2.95a8.34 8.34 0 0 1-.641-3.54 7.81 7.81 0 0 1 .395-3.14 7.83 7.83 0 0 1 1.61-2.73 7.82 7.82 0 0 1 2.561-1.87c.972-.44 2.024-.68 3.091-.7a8 8 0 0 1 3.607.19 7.9 7.9 0 0 1 3.159 1.75c.907.81 1.616 1.83 2.073 2.96s.651 2.35.567 3.56c.083 2.14-.668 4.24-2.095 5.84s-3.418 2.58-5.555 2.74zm143.683-7.92c-.661 3.86-2.489 7.22-6.799 7.23-5.246 0-7.421-3.62-7.27-8.54-.118-1.55.387-3.09 1.404-4.28s2.462-1.92 4.019-2.04c1.08-.12 2.172-.02 3.208.31s1.992.87 2.807 1.59c.814.71 1.469 1.6 1.922 2.58.454.99.695 2.06.709 3.15zm265.57 4.97c-5.646-.43-8.306-2.44-7.677-7.01a6.63 6.63 0 0 1 .572-2.65 6.68 6.68 0 0 1 1.591-2.19c.677-.61 1.473-1.07 2.339-1.36a6.46 6.46 0 0 1 2.69-.3c.91.05 1.8.28 2.618.69a6.76 6.76 0 0 1 2.144 1.65c.597.69 1.05 1.49 1.333 2.36.282.86.388 1.78.311 2.69.131 4.91-3.635 5.47-5.921 6.12z"/></g><g class="C"><path d="M1503.88 1771.52l-.02 29.27c-.05 5.84-1.25 11.53-8.24 12.15-6.32.56-8.48-5.21-9.03-9.67-2.59-21.06-6.37-42.07-4.51-63.46a15.18 15.18 0 0 1 4.67-9.61c6.15-6.27 11.74-5.05 15.39 3.17 1.59 4.62 2.19 9.52 1.75 14.38l.02 23.78-.03-.01zm84.31-26.89l-.07 29.16c-.13 5.39-2.72 9.69-8.55 9.92-5.8.23-8.77-3.7-9.27-9.17-1.87-20.47-5.65-40.8-4-61.52.54-6.74 2.21-12.11 9.96-12.74 8.16-.65 10.9 5.69 11.41 11.57.94 10.85.26 21.84.26 32.77l.26.01zm-264.23 98.05c.01 7.09-.53 12.97-7.38 14.15-7.53 1.28-9.33-5.45-10.15-10.38-3.82-20.22-5.28-40.81-4.35-61.36.29-4.45 1.19-9.01 6.06-10.04 5.83-1.25 8.59 3.55 10.88 7.79.93 2.24 1.36 4.65 1.29 7.06.93 18.08-2.37 36.42 3.65 52.78zm66.05-8.05a17.42 17.42 0 0 1-8.02-6.89c-1.9-3.08-2.78-6.67-2.54-10.27-1.44-16.96 1.61-34.2-3.58-50.96a8.74 8.74 0 0 1 .47-5.46c.74-1.72 2.01-3.15 3.63-4.09 2.95-2.02 6.11-4.54 9.97-2.58a8.09 8.09 0 0 1 3.03 3.37 8.01 8.01 0 0 1 .73 4.47c.09 12.83.59 25.71-.02 38.52-.39 7.94 3.09 15.65.74 23.58-.98 3.33-.08 7.38-4.41 10.31z"/></g><g class="D"><path d="M1572.61 1681.86a6.13 6.13 0 0 1-.75 2.54c-.43.79-1.02 1.47-1.73 2.01s-1.53.92-2.4 1.12-1.78.22-2.66.04c-.74-.09-1.47-.33-2.12-.71-.65-.37-1.23-.87-1.68-1.47-.46-.6-.79-1.29-.98-2.02s-.23-1.49-.12-2.23c.14-1.62.9-3.12 2.13-4.18s2.82-1.6 4.44-1.51a6.27 6.27 0 0 1 4.24 2.02 6.23 6.23 0 0 1 1.63 4.39zm-87.38 16.26c-.53 2.37-1.34 4.5-4.22 4.82-.72.17-1.46.18-2.18.01a4.58 4.58 0 0 1-1.95-.96c-.57-.47-1.02-1.07-1.31-1.75a4.5 4.5 0 0 1-.38-2.14c-.06-.59.01-1.19.19-1.75s.47-1.08.85-1.53a4.5 4.5 0 0 1 1.38-1.08c.53-.27 1.11-.43 1.7-.46 3.62-.42 5.34 1.53 5.92 4.84zm-122.99 31.67c.72-.15 1.46-.12 2.17.08a4.69 4.69 0 0 1 1.89 1.07 4.6 4.6 0 0 1 1.2 1.81 4.62 4.62 0 0 1 .24 2.15 3.89 3.89 0 0 1-.19 1.73c-.2.56-.53 1.06-.95 1.46-.43.41-.94.71-1.51.88-.56.18-1.15.22-1.73.12-1.19-.13-2.3-.65-3.16-1.47-.87-.82-1.44-1.9-1.64-3.07-.15-.57-.18-1.16-.06-1.73.11-.57.35-1.11.71-1.57a3.71 3.71 0 0 1 1.34-1.09c.53-.26 1.11-.38 1.69-.37z"/></g><path d="M1768.25 1741.3l.04-29.36c.08-6.12 2.46-11.38 9.27-11.29 6.85.08 8.94 5.5 8.96 11.57l-.05 56.87c-.05 2.44-.57 4.85-1.54 7.09-1.68 3.9-3.43 8.29-9.01 7.3-2.15-.32-4.11-1.44-5.47-3.14a8.65 8.65 0 0 1-1.89-6.03c-.24-11-.08-22.01-.08-33.01h-.23z" class="C"/><g class="D"><path d="M1992.02 1740.89l-.06 29.23a9.19 9.19 0 0 1-.35 3.65 8.95 8.95 0 0 1-1.79 3.2c-.82.93-1.81 1.68-2.93 2.21s-2.33.81-3.57.85c-1.23.1-2.48-.06-3.64-.48-1.17-.43-2.23-1.11-3.1-1.99-.88-.87-1.55-1.94-1.97-3.1-.42-1.17-.58-2.42-.46-3.65l-.14-60.29a8.88 8.88 0 0 1 .33-3.66 8.7 8.7 0 0 1 1.79-3.21 8.88 8.88 0 0 1 2.95-2.2 8.83 8.83 0 0 1 3.58-.81c6.94-.13 9.3 4.92 9.41 11.01.17 9.74.04 19.49.04 29.24h-.09zm-95.36-1.1l-.03 25.45c-.05 3.97-1.61 7.1-6.08 7.62-.89.21-1.81.24-2.71.1-.9-.15-1.76-.47-2.54-.95-.77-.48-1.45-1.11-1.98-1.85a6.98 6.98 0 0 1-1.13-2.46c-1.71-4.51-2.9-9.19-3.54-13.97-.54-12.11-.22-24.24-.3-36.37a15.5 15.5 0 0 1 .69-6.27 15.46 15.46 0 0 1 3.14-5.46c2.58-2.61 5.24-5.5 9.32-3.89 1.43.57 2.66 1.55 3.53 2.83.87 1.27 1.33 2.77 1.34 4.31.2 10.3.08 20.6.08 30.91h.21zm9.85-58.82a5.87 5.87 0 0 1-1.18 4.2 5.88 5.88 0 0 1-3.75 2.22c-4.98.75-7.76-2.33-8.02-7.14-.09-.74-.01-1.49.23-2.19.24-.71.64-1.34 1.17-1.87a4.99 4.99 0 0 1 1.87-1.16 4.92 4.92 0 0 1 2.19-.22 7.37 7.37 0 0 1 4.91 1.66c1.38 1.13 2.29 2.73 2.57 4.5h.01zm-229.95 4.19l-3.6-7.06c.77-1.56 2.06-2.82 3.65-3.55l3.76-.6c2.81 1.34 5.77 3.21 4.94 6.56-1.04 4.14-4.94 4.74-8.75 4.65zm102.4 2.91c-2.65-.46-4.95-2.04-4.8-4.6.01-.77.19-1.53.54-2.21a4.85 4.85 0 0 1 1.48-1.73 4.77 4.77 0 0 1 2.1-.88c.76-.13 1.53-.07 2.27.16.6.08 1.19.28 1.71.6.52.31.97.73 1.33 1.23a4.58 4.58 0 0 1 .73 1.66c.13.59.13 1.21.01 1.81-.22 1.22-.9 2.31-1.9 3.04-1 .74-2.24 1.07-3.47.92zm220.22-4.06c-.37 2.95-2.23 4.41-4.9 3.53a5.73 5.73 0 0 1-2.11-1.43c-.58-.64-1.01-1.39-1.25-2.22-.07-.6-.02-1.21.17-1.78.18-.57.48-1.1.89-1.55a4.07 4.07 0 0 1 1.45-1.04 4.21 4.21 0 0 1 1.75-.35c2.89-.11 3.91 2.18 3.99 4.85l.01-.01z"/></g><g class="C"><path d="M1225.03 1823.18l.05-8.56c.36-5.01 1.15-10.42 7.66-10.22 5.24.18 6.97 4.88 6.69 9.26-1.18 18.29 2.52 36.2 3.74 54.29.3 4.49 1.32 10.81-6 10.92-1.25.02-2.48-.23-3.61-.75a8.06 8.06 0 0 1-2.93-2.24 8.33 8.33 0 0 1-1.66-3.29 8.21 8.21 0 0 1-.06-3.69c1.54-15.37-5.07-29.92-3.87-45.72h-.01zm-51.36 20.58a9.21 9.21 0 0 1 1.02-5.96c1.01-1.81 2.61-3.23 4.53-4.01 5.16-1.62 7.36 2.72 9.43 6.55a30.84 30.84 0 0 1 3.33 14.01c.49 13.87-1.9 27.92 3.08 41.55.42.83.64 1.74.65 2.67s-.2 1.84-.6 2.68-.99 1.57-1.72 2.14a6.08 6.08 0 0 1-2.49 1.17c-1.05.27-2.14.3-3.21.1-1.06-.19-2.07-.62-2.96-1.25a7.54 7.54 0 0 1-2.15-2.38c-.54-.94-.86-1.99-.95-3.07-2.94-17.85-5.31-35.79-7.96-54.2zm-54.82 56.57l.05-29.13c-.01-1.23.43-2.42 1.23-3.35a5.11 5.11 0 0 1 3.12-1.72c1.2-.2 2.43-.01 3.52.53a5.82 5.82 0 0 1 2.54 2.49 21.74 21.74 0 0 1 3.82 11.96v43.73c-.03 5.55-.27 12.28-7.69 11.89-7.24-.38-6.8-7.3-6.9-12.72-.15-7.89-.04-15.78-.04-23.68h.35zm-29.77 32.67l-.01 22c-.04 3.8-.59 7.88-5.16 8.36-1.07.12-2.16.01-3.19-.3a8.19 8.19 0 0 1-2.83-1.53c-.83-.7-1.51-1.55-2.01-2.51a8.12 8.12 0 0 1-.87-3.09c-.47-3.02-.65-6.07-.52-9.12l.06-34.83c.19-6.24-2.03-15.94 7.65-15.43 8.96.46 6.6 9.97 6.88 16.29.28 6.71.07 13.44.07 20.16h-.07z"/></g><g class="D"><path d="M1117.17 1851.11c-.05 1.23-.5 2.4-1.28 3.34s-1.85 1.6-3.04 1.88a3.52 3.52 0 0 1-1.79.17c-.61-.09-1.18-.34-1.66-.72-.48-.37-.86-.87-1.1-1.43a3.61 3.61 0 0 1-.27-1.78c-.03-2.62 1.07-4.85 4.02-5.09 2.53-.2 4.88.36 5.12 3.63zm-33.2 25.65c-.67 2.45-2.85 3.02-5.45 2.32-.6-.12-1.17-.36-1.67-.71a4.34 4.34 0 0 1-1.23-1.33c-.31-.52-.51-1.11-.58-1.72-.07-.6-.01-1.22.17-1.8a3.51 3.51 0 0 1 .5-1.73 3.42 3.42 0 0 1 1.31-1.25 3.45 3.45 0 0 1 1.75-.44c.61.01 1.21.18 1.74.49 1.25.39 2.31 1.25 2.96 2.39.64 1.15.82 2.5.5 3.78zm92.33-56.12c-2.53 0-5.05-.36-5.12-3.55-.06-.6.01-1.21.2-1.78a4.34 4.34 0 0 1 .9-1.54 4.31 4.31 0 0 1 1.44-1.06 4.37 4.37 0 0 1 1.74-.39c1.33 0 3.19 1.75 3.87 3.16 1.31 2.73-.15 4.51-3.03 5.16zm47.08-29.36a2.99 2.99 0 0 1-.03 1.33 2.8 2.8 0 0 1-.62 1.18c-.29.34-.66.61-1.08.78s-.87.24-1.32.21c-1.57-.04-4.08-.76-4.49-1.84-1.08-2.8.96-4.37 3.63-4.52a3.71 3.71 0 0 1 2.47.72c.72.52 1.23 1.28 1.44 2.14z"/></g><path d="M20.938 1900.77l.046-25.66c.059-4.32.131-9.17 6.249-9.04a7.99 7.99 0 0 1 3.161.65c.998.43 1.897 1.06 2.641 1.85.744.8 1.317 1.73 1.683 2.76.366 1.02.518 2.11.447 3.19.393 16.48.328 32.98.4 49.46.052 1.84-.069 3.67-.36 5.48-.858 4.58-3.183 8.25-8.279 8.15-6.105-.12-5.895-5.11-5.961-9.35l-.026-27.49z" class="J"/><path d="M61.917 1937.67c-2.967-12.83 3.576-23.61 3.183-35.18-.131-3.92 1.277-7.46 6.138-7.01 1.847.17 3.554 1.06 4.766 2.46 1.212 1.41 1.835 3.22 1.738 5.08-2.98 11.59 3.524 22.56 1.441 33.8-1.838 6.39-2.98 12.96-3.406 19.59.125 3.95-1.506 7.24-6.275 6.98a7.52 7.52 0 0 1-5.013-1.99 7.5 7.5 0 0 1-2.402-4.82c-.635-6.61-.17-13.31-.17-18.91z" class="B"/><path d="M44.361 1851.57a4.67 4.67 0 0 1-.89 3.38 4.69 4.69 0 0 1-2.988 1.82 4.86 4.86 0 0 1-2.241.16 4.92 4.92 0 0 1-2.073-.87 4.78 4.78 0 0 1-1.468-1.7c-.351-.67-.54-1.41-.553-2.17-.157-2.56 2.194-4.22 4.808-4.46 1.213-.12 2.431.2 3.425.9.994.71 1.695 1.75 1.973 2.94h.007z" class="J"/><path d="M83.795 1885.59c-.435.1-.886.09-1.318-.02a2.89 2.89 0 0 1-1.17-.61c-.337-.29-.602-.65-.773-1.06a2.9 2.9 0 0 1-.211-1.31c.026-1.54.753-4.02 1.808-4.43 2.777-1.08 4.323.94 4.493 3.56a3.7 3.7 0 0 1-.713 2.45c-.519.71-1.271 1.21-2.124 1.42h.007z" class="B"/><path d="M1676.61 1674.55l-3.65 3.55-.15-3.84c.46-.46 1.07-.73 1.72-.77a2.65 2.65 0 0 1 1.79.59l.29.47z" fill="#ad6232"/><path d="M1676.32 1674.08l-3.51.18c1.07-1.98 2.22-2.46 3.51-.18z" fill="#cd854e"/><path d="M358.553 2294.84l.046 10.69c-1.257 1.2-2.39 2.5-3.537 3.8l-.078.07c-1.271 1.14-2.483 2.34-3.629 3.6l-.059.02a14.56 14.56 0 0 1-7.343 1.96c-2.578-.01-5.108-.71-7.329-2.01l-.014.02-3.668-3.68c-1.299-2.23-1.986-4.76-1.992-7.33a14.62 14.62 0 0 1 1.96-7.35l.026-.03a44.59 44.59 0 0 0 3.615-3.66l.046-.04 3.852-3.55 7.1-.02c1.965 2.24 5.417 1.48 7.389 3.69l-.026-.03c1.31 1.19 2.449 2.55 3.641 3.85z" class="B"/><g class="D"><path d="M808.406 2312.53c-2.96-.54-5.656-2.06-7.662-4.3a13.53 13.53 0 0 1-3.414-8.1c0-5.69 6.026-12.83 11.024-12.31 3.033.21 5.902 1.45 8.119 3.53a13.19 13.19 0 0 1 4.045 7.88c1.08 5.65-6.243 13.27-12.112 13.3zm-475.496-17.9l.04 14.68c-1.201-.81-2.185-1.9-2.866-3.18-.682-1.27-1.04-2.7-1.044-4.15a8.83 8.83 0 0 1 1.022-4.15 8.92 8.92 0 0 1 2.848-3.2zm3.714 18.33l14.672.06a8.88 8.88 0 0 1-3.191 2.86 8.98 8.98 0 0 1-4.159 1.02c-1.45-.01-2.875-.37-4.152-1.05-1.277-.69-2.366-1.68-3.17-2.89zm18.321-21.94c-1.452.11-2.906-.17-4.208-.82s-2.404-1.65-3.188-2.87c1.461-.19 2.945.06 4.263.71a7.42 7.42 0 0 1 3.133 2.98zm.111 18.31l3.544-3.8-3.537 3.8h-.007z"/></g><path d="M582.628 2720.51l.052-3.83c2.376 1.31 2.358 2.59-.052 3.84v-.01z" fill="#99572c"/><g class="B"><path d="M567.943 2547.89a11.56 11.56 0 0 0 7.264 2.57 11.55 11.55 0 0 0 7.257-2.59l-.006 14.8c-2.047-1.68-4.607-2.59-7.249-2.59a11.53 11.53 0 0 0-7.253 2.57l-.013-14.76zm.04-113.84a23.04 23.04 0 0 0 14.541-3.61l.131 14.6c-2.153-1.58-4.756-2.43-7.428-2.42a12.53 12.53 0 0 0-7.415 2.46l.171-11.03z"/></g><path d="M-1101 2999.81H2252.68" stroke="#3462d1" stroke-width="7.979" stroke-linecap="round" stroke-linejoin="round"/></g><defs><clipPath id="A"><path fill="#fff" d="M0 0h2290v3006H0z"/></clipPath></defs></svg>