<svg width="1417" height="722" viewBox="0 0 1417 722" fill="none" xmlns="http://www.w3.org/2000/svg">
<path d="M3 354.5V33C3 16.4315 16.4314 3 33 3H1008.36C1024.92 3 1038.36 16.4315 1038.36 33V199V302C1038.36 318.569 1051.79 332 1068.36 332H1384C1400.57 332 1414 345.431 1414 362V689C1414 705.569 1400.57 719 1384 719H465.658C449.089 719 435.658 705.569 435.658 689V414.5C435.658 397.931 422.226 384.5 405.658 384.5H33C16.4315 384.5 3 371.069 3 354.5Z" fill="white" stroke="black" style="fill:white;fill-opacity:1;stroke:black;stroke-opacity:1;" stroke-width="5"/>
</svg>
