<svg width="600" height="250" viewBox="0 0 600 250" xmlns="http://www.w3.org/2000/svg">
  <path 
    d="M10,0 
       H380 
       A10,10 0 0 1 390,10 
       V105 
       A10,10 0 0 0 400,115 
       H590  
       A10,10 0 0 1 600,125
       V240 
       A10,10 0 0 1 590,250 
       H120 
       A10,10 0 0 1 110,240 
       V150 
       A10,10 0 0 0 100,140 
       H10 
       A10,10 0 0 1 0,130 
       V10 
       A10,10 0 0 1 10,0 
       Z"
    fill="white"
    stroke="black"  
    stroke-width="5"
  />
</svg>
